<?xml version="1.0" encoding="utf-8"?>
<!-- Generator: Adobe Illustrator 16.0.0, SVG Export Plug-In . SVG Version: 6.00 Build 0)  -->
<!DOCTYPE svg PUBLIC "-//W3C//DTD SVG 1.1//EN" "http://www.w3.org/Graphics/SVG/1.1/DTD/svg11.dtd">
<svg version="1.1" id="Camada_1" xmlns="http://www.w3.org/2000/svg" xmlns:xlink="http://www.w3.org/1999/xlink" x="0px" y="0px"
	 width="864px" height="360px" viewBox="0 0 864 360" enable-background="new 0 0 864 360" xml:space="preserve">
<g>
	
		<polyline fill="#FFFFFF" stroke="#3FC0F0" stroke-width="0.7087" stroke-linecap="round" stroke-linejoin="round" stroke-miterlimit="10" points="
		417.797,204.793 392.72,204.793 389.003,213.365 389.003,213.365 388.427,214.927 388.281,216.006 388.75,217.207 390.592,218.167 
		391.097,218.29 391.097,218.85 391.097,220.373 391.097,221.132 390.446,221.132 371.468,221.132 370.815,221.132 370.815,220.373 
		370.815,218.85 370.815,218.29 371.322,218.167 372.692,217.689 373.597,217.048 374.426,215.806 374.426,215.806 375.473,213.644 
		375.473,213.605 396.545,164.705 397.266,162.702 397.266,162.702 397.48,161.302 397.052,159.939 397.052,159.898 
		395.498,158.896 395.064,158.74 395.064,158.217 395.064,156.695 395.064,155.973 395.717,155.973 416.03,155.973 416.717,155.973 
		416.717,156.695 416.717,158.217 416.717,158.776 416.209,158.896 414.659,159.818 414.659,159.818 414.226,160.979 
		414.405,162.222 414.947,163.703 414.947,163.703 436.74,212.763 438.041,215.327 439.049,216.849 439.049,216.849 
		440.134,217.651 441.578,218.167 442.085,218.29 442.085,218.85 442.085,220.373 442.085,221.132 441.432,221.132 420.252,221.132 
		419.604,221.132 419.604,220.373 419.604,218.85 419.604,218.25 420.144,218.167 421.913,217.369 422.381,215.967 422.201,214.965 
		421.589,213.365 421.589,213.365 417.797,204.793 	"/>
	
		<polyline fill="#FFFFFF" stroke="#3FC0F0" stroke-width="0.7087" stroke-linecap="round" stroke-linejoin="round" stroke-miterlimit="10" points="
		392.321,203.352 418.196,203.352 418.592,203.352 418.773,203.751 422.778,212.724 422.778,212.724 423.43,214.525 
		423.679,215.967 422.778,218.41 420.9,219.45 420.9,219.652 440.784,219.652 440.784,219.45 439.557,218.932 438.186,217.889 
		438.186,217.848 436.958,216.087 435.59,213.403 413.757,164.343 413.757,164.343 413.145,162.622 412.925,160.979 
		413.719,158.776 413.719,158.776 415.38,157.695 415.38,157.417 396.364,157.417 396.364,157.695 398.025,158.979 398.025,158.979 
		398.781,161.302 398.528,163.142 398.528,163.142 397.734,165.348 376.626,214.246 376.626,214.246 375.545,216.567 
		375.545,216.567 374.498,218.091 373.236,219.01 372.115,219.45 372.115,219.652 389.796,219.652 389.796,219.412 387.882,218.29 
		386.98,216.006 387.2,214.525 387.848,212.763 387.848,212.724 391.747,203.751 391.926,203.352 392.321,203.352 	"/>
	
		<polyline fill="#FFFFFF" stroke="#3FC0F0" stroke-width="0.7087" stroke-linecap="round" stroke-linejoin="round" stroke-miterlimit="10" points="
		413.611,194.662 405.383,174.597 397.052,194.662 413.611,194.662 	"/>
	
		<polyline fill="#FFFFFF" stroke="#3FC0F0" stroke-width="0.7087" stroke-linecap="round" stroke-linejoin="round" stroke-miterlimit="10" points="
		405.998,172.596 415.2,195.063 415.634,196.104 414.622,196.104 396.038,196.104 394.991,196.104 395.424,195.063 404.809,172.555 
		405.422,171.151 405.998,172.596 	"/>
	
		<polyline fill="#FFFFFF" stroke="#3FC0F0" stroke-width="0.7087" stroke-linecap="round" stroke-linejoin="round" stroke-miterlimit="10" points="
		462.288,209.158 496.858,209.158 497.796,209.038 497.796,209.038 498.373,208.679 498.373,208.679 498.88,207.997 
		499.313,206.756 499.384,206.193 499.888,206.193 501.262,206.193 501.909,206.193 501.909,206.914 501.909,223.338 
		501.909,224.059 501.262,224.059 499.888,224.059 499.384,224.059 499.313,223.537 498.88,222.295 498.373,221.572 
		498.373,221.572 497.796,221.254 497.796,221.254 496.858,221.132 446.412,221.132 445.762,221.132 445.762,220.373 
		445.762,218.85 445.762,218.33 446.195,218.167 447.352,217.689 448,217.168 448,217.168 448.289,216.526 448.434,215.445 
		448.434,161.621 448.289,160.54 448,159.898 448,159.898 447.352,159.378 447.352,159.378 446.195,158.896 445.762,158.776 
		445.762,158.217 445.762,156.695 445.762,155.973 446.412,155.973 464.31,155.973 464.96,155.973 464.96,156.695 464.96,158.217 
		464.96,158.776 464.453,158.896 463.302,159.378 462.722,159.857 462.722,159.857 462.361,160.54 462.361,160.54 462.288,161.621 
		462.288,209.158 	"/>
	
		<polyline fill="#FFFFFF" stroke="#3FC0F0" stroke-width="0.7087" stroke-linecap="round" stroke-linejoin="round" stroke-miterlimit="10" points="
		496.858,210.6 461.641,210.6 460.993,210.6 460.993,209.88 460.993,161.621 461.134,160.139 461.134,160.139 461.714,158.939 
		461.714,158.939 462.722,158.059 463.665,157.657 463.665,157.417 447.063,157.417 447.063,157.657 447.926,158.097 
		447.926,158.097 448.94,158.939 448.94,158.939 449.515,160.139 449.733,161.621 449.733,215.445 449.515,216.929 448.94,218.131 
		448.94,218.131 447.926,218.97 447.063,219.412 447.063,219.652 496.858,219.652 498.156,219.852 498.156,219.852 499.24,220.492 
		499.24,220.492 500.034,221.615 500.395,222.615 500.611,222.615 500.611,207.636 500.395,207.636 500.034,208.637 499.24,209.76 
		499.24,209.76 498.156,210.4 498.156,210.4 496.858,210.6 	"/>
	
		<polyline fill="#FFFFFF" stroke="#3FC0F0" stroke-width="0.7087" stroke-linecap="round" stroke-linejoin="round" stroke-miterlimit="10" points="
		537.851,154.811 545.14,155.374 551.562,157.095 557.263,159.98 562.1,164.022 562.1,164.022 566.283,169.191 569.242,175.077 
		571.05,181.644 571.624,188.935 570.47,197.984 567.077,206.435 561.88,213.365 555.312,218.29 547.302,221.254 537.991,222.256 
		530.775,221.693 524.354,219.972 518.726,217.089 513.818,213.043 509.559,207.636 506.529,201.269 504.871,195.063 
		504.291,188.492 505.445,179.161 508.838,170.631 508.838,170.631 513.889,163.783 520.457,158.896 528.467,155.894 
		537.851,154.811 537.851,154.811 	"/>
	
		<polyline fill="#FFFFFF" stroke="#3FC0F0" stroke-width="0.7087" stroke-linecap="round" stroke-linejoin="round" stroke-miterlimit="10" points="
		551.128,158.456 544.92,156.816 537.851,156.255 537.851,156.255 528.754,157.294 521.037,160.178 514.756,164.864 
		509.919,171.354 509.919,171.354 506.746,179.521 505.662,188.492 506.169,194.779 507.757,200.708 510.64,206.835 
		514.683,212.003 519.376,215.847 524.79,218.609 530.995,220.253 537.991,220.811 547.015,219.852 554.737,217.008 
		561.016,212.281 565.996,205.634 569.242,197.584 570.323,188.935 569.749,181.927 568.088,175.637 565.202,170.032 
		561.232,165.065 561.232,165.065 556.539,161.22 551.128,158.456 	"/>
	
		<polyline fill="#FFFFFF" stroke="#3FC0F0" stroke-width="0.7087" stroke-linecap="round" stroke-linejoin="round" stroke-miterlimit="10" points="
		537.924,167.067 530.562,168.389 524.644,172.314 524.644,172.314 521.898,175.637 519.95,179.442 518.726,183.729 
		518.362,188.533 518.726,193.341 519.95,197.625 521.898,201.43 524.644,204.793 524.644,204.793 530.635,208.719 537.991,210.04 
		545.354,208.719 551.345,204.793 554.09,201.308 556.108,197.145 557.263,193.058 557.623,188.816 557.192,183.849 
		556.038,179.442 554.09,175.599 551.345,172.314 551.345,172.314 545.28,168.43 537.924,167.067 537.924,167.067 	"/>
	
		<polyline fill="#FFFFFF" stroke="#3FC0F0" stroke-width="0.7087" stroke-linecap="round" stroke-linejoin="round" stroke-miterlimit="10" points="
		530.128,167.029 537.924,165.585 537.924,165.626 545.714,167.067 552.209,171.192 552.209,171.192 555.098,174.717 
		557.192,178.842 558.49,183.526 558.924,188.816 558.49,193.341 557.336,197.705 555.171,202.15 552.209,205.875 545.79,210.08 
		537.991,211.481 530.201,210.08 523.776,205.875 523.776,205.875 520.817,202.313 518.726,198.225 517.498,193.619 
		517.067,188.533 517.498,183.446 518.726,178.88 520.817,174.796 523.776,171.233 523.776,171.233 530.128,167.029 	"/>
	
		<polyline fill="#FFFFFF" stroke="#3FC0F0" stroke-width="0.7087" stroke-linecap="round" stroke-linejoin="round" stroke-miterlimit="10" points="
		595.873,193.139 595.873,209.158 632.031,209.158 632.969,209.038 632.969,209.038 633.543,208.679 633.543,208.679 
		633.977,207.997 633.977,207.997 634.41,206.756 634.557,206.193 635.061,206.193 636.432,206.193 637.082,206.193 
		637.082,206.914 637.082,223.338 637.082,224.059 636.432,224.059 635.061,224.059 634.557,224.059 634.41,223.537 
		633.977,222.295 633.977,222.295 633.543,221.572 633.543,221.572 632.969,221.254 632.969,221.254 632.031,221.132 
		579.994,221.132 579.347,221.132 579.347,220.373 579.347,218.85 579.347,218.33 579.78,218.167 580.935,217.689 581.582,217.168 
		581.582,217.168 581.872,216.526 582.016,215.445 582.016,161.621 581.872,160.54 581.582,159.898 581.582,159.898 
		580.935,159.378 580.935,159.378 579.78,158.896 579.347,158.776 579.347,158.217 579.347,156.695 579.347,155.973 
		579.994,155.973 631.021,155.973 631.955,155.813 631.955,155.813 632.535,155.495 632.535,155.495 632.969,154.774 
		632.969,154.774 633.402,153.532 633.543,153.009 634.05,153.009 635.421,153.009 636.071,153.009 636.071,153.731 
		636.071,170.152 636.071,170.873 635.421,170.873 634.05,170.873 633.543,170.873 633.402,170.352 632.969,169.109 
		632.969,169.109 632.535,168.389 632.535,168.389 631.955,168.028 631.955,168.028 631.021,167.908 595.873,167.908 
		595.873,181.566 618.461,181.566 619.328,181.443 619.328,181.443 619.905,181.084 619.905,181.084 620.409,180.403 
		620.843,179.123 620.989,178.602 621.49,178.602 622.864,178.602 623.512,178.602 623.512,179.322 623.512,195.381 
		623.512,196.104 622.864,196.104 621.49,196.104 620.989,196.104 620.843,195.541 620.409,194.34 619.905,193.619 619.905,193.619 
		619.328,193.259 618.461,193.139 595.873,193.139 	"/>
	
		<polyline fill="#FFFFFF" stroke="#3FC0F0" stroke-width="0.7087" stroke-linecap="round" stroke-linejoin="round" stroke-miterlimit="10" points="
		594.572,209.88 594.572,192.418 594.572,191.696 595.226,191.696 618.461,191.696 619.762,191.896 620.77,192.538 620.77,192.538 
		621.563,193.66 621.924,194.662 622.217,194.662 622.217,180.043 621.924,180.043 621.563,181.045 620.77,182.164 620.77,182.164 
		619.762,182.806 619.762,182.806 618.461,183.006 595.226,183.006 594.572,183.006 594.572,182.284 594.572,167.186 
		594.572,166.467 595.226,166.467 631.021,166.467 632.315,166.666 632.315,166.666 633.329,167.308 633.402,167.308 
		634.123,168.43 634.123,168.43 634.483,169.43 634.771,169.43 634.771,154.452 634.483,154.452 634.123,155.453 634.123,155.453 
		633.402,156.575 633.329,156.575 632.315,157.218 632.315,157.218 631.021,157.417 580.647,157.417 580.647,157.657 
		581.509,158.097 581.509,158.097 582.522,158.939 582.522,158.939 583.1,160.139 583.316,161.621 583.316,215.445 583.1,216.929 
		582.522,218.131 582.522,218.131 581.582,218.97 580.647,219.412 580.647,219.652 632.031,219.652 633.329,219.852 
		633.329,219.852 634.41,220.492 634.41,220.492 635.131,221.615 635.131,221.615 635.564,222.615 635.781,222.615 635.781,207.636 
		635.564,207.636 635.131,208.637 635.131,208.679 634.41,209.76 634.41,209.76 633.329,210.4 633.329,210.4 632.031,210.6 
		595.226,210.6 594.572,210.6 594.572,209.88 	"/>
	
		<polyline fill="#FFFFFF" stroke="#3FC0F0" stroke-width="0.7087" stroke-linecap="round" stroke-linejoin="round" stroke-miterlimit="10" points="
		660.101,178.563 660.101,215.445 660.247,216.526 660.534,217.168 660.534,217.168 661.185,217.689 662.339,218.167 
		662.772,218.33 662.772,218.85 662.772,220.373 662.772,221.132 662.125,221.132 645.379,221.132 644.731,221.132 644.731,220.373 
		644.731,218.85 644.731,218.33 645.165,218.167 646.319,217.689 646.967,217.168 646.967,217.168 647.257,216.526 647.4,215.445 
		647.4,161.579 647.257,160.54 647.257,160.54 646.967,159.898 646.967,159.898 646.319,159.378 646.319,159.378 645.235,158.896 
		644.731,158.776 644.731,158.217 644.731,156.695 644.731,155.973 645.379,155.973 664.867,155.973 665.515,155.973 
		665.515,156.695 665.515,158.217 665.515,158.776 665.008,158.896 663.927,159.499 663.927,159.499 663.713,160.379 
		663.927,161.182 664.647,162.342 695.321,197.545 695.321,161.579 695.175,160.54 695.175,160.54 694.888,159.898 694.888,159.898 
		694.24,159.378 693.156,158.896 692.652,158.776 692.652,158.217 692.652,156.695 692.652,155.973 693.3,155.973 710.113,155.973 
		710.767,155.973 710.767,156.695 710.767,158.217 710.767,158.776 710.26,158.896 709.105,159.378 708.525,159.898 
		708.525,159.898 708.165,160.54 708.165,160.54 708.095,161.579 708.095,215.445 708.165,216.526 708.525,217.168 708.525,217.168 
		709.105,217.689 710.26,218.167 710.767,218.33 710.767,218.85 710.767,220.373 710.767,221.132 710.113,221.132 692.072,221.132 
		691.425,221.132 691.425,220.373 691.425,218.85 691.425,218.29 691.932,218.167 692.866,217.651 693.156,216.849 692.793,216.006 
		691.281,214.084 660.101,178.563 	"/>
	
		<polyline fill="#FFFFFF" stroke="#3FC0F0" stroke-width="0.7087" stroke-linecap="round" stroke-linejoin="round" stroke-miterlimit="10" points="
		658.806,215.445 658.806,176.76 658.806,174.997 659.96,176.278 692.219,213.084 693.807,215.164 694.454,216.849 693.807,218.65 
		692.72,219.412 692.72,219.652 709.466,219.652 709.466,219.412 708.525,218.97 707.518,218.131 707.518,218.131 706.938,216.929 
		706.797,215.445 706.797,161.579 706.938,160.139 706.938,160.139 707.518,158.939 707.518,158.939 708.525,158.097 
		709.466,157.657 709.466,157.417 693.947,157.417 693.947,157.657 694.888,158.097 695.898,158.939 695.898,158.939 
		696.476,160.139 696.476,160.139 696.619,161.579 696.619,199.347 696.619,201.11 695.538,199.827 663.713,163.344 
		663.713,163.344 662.772,161.861 662.412,160.379 662.989,158.498 662.989,158.498 664.217,157.695 664.217,157.417 
		646.029,157.417 646.029,157.657 646.894,158.097 646.894,158.097 647.907,158.939 647.907,158.939 648.481,160.139 
		648.481,160.139 648.701,161.579 648.701,215.445 648.481,216.929 647.907,218.131 647.907,218.131 646.967,218.97 
		646.029,219.412 646.029,219.652 661.478,219.652 661.478,219.412 660.607,218.97 659.6,218.131 659.6,218.131 659.02,216.929 
		658.806,215.445 	"/>
	
		<path fill="#FFFFFF" stroke="#3FC0F0" stroke-width="0.7087" stroke-linecap="round" stroke-linejoin="round" stroke-miterlimit="10" d="
		M770.45,198.185h-13.57c0,0-0.36,0-0.65,0.04c-0.287,0.12-0.287,0.12-0.504,0.16c-0.36,0.281-0.51,0.439-0.656,0.683
		c-0.141,0.28-0.141,0.28-0.284,0.64c-0.146,0.398-0.287,0.92-0.287,0.92l-0.144,0.52c0,0,0,0-0.507,0c-1.371,0-1.371,0-1.371,0
		h-0.653c0,0,0,0,0-0.719c0-14.815,0-14.815,0-14.815v-0.721c0,0,0,0,0.653,0c1.371,0,1.371,0,1.371,0h0.507c0,0,0,0,0.144,0.561
		c0,0,0,0,0.146,0.521c0.144,0.439,0.287,0.759,0.287,0.759c0.144,0.322,0.284,0.563,0.434,0.68c0.36,0.243,0.577,0.322,0.577,0.322
		c0.217,0.083,0.577,0.12,0.938,0.12c0,0,0,0,27.208,0c0.653,0,0.653,0,0.653,0v0.721c0,0,0,0,0,1.523c0,0.563,0,0.563,0,0.563
		l-0.504,0.158c0,0-0.434,0.12-0.794,0.281c-0.58,0.36-0.794,0.524-0.94,0.683c-0.287,0.401-0.36,0.683-0.36,0.683
		c-0.073,0.28-0.073,0.639-0.073,1.081c0,0,0,0,0,13.055c0,0,0,0,0,0.404c0,0.359,0.073,0.64,0.073,0.64s0.073,0.278,0.22,0.48
		c0.431,0.52,0.718,0.681,0.718,0.681c0.29,0.199,0.724,0.357,1.157,0.478c0,0,0,0,0.504,0.161c0,0.521,0,0.521,0,0.521v1.159
		c0,0,0,0,0,0.439c-5.845,3.686-11.256,6.328-16.597,8.049c0,0-5.344,1.763-10.532,2.646c-5.203,0-5.203,0-9.891,0
		c-4.26-0.602-8.156-1.845-8.156-1.845c-3.823-1.28-7.219-3.123-10.248-5.648c0,0,0,0-3.753-3.123
		c-2.815-3.803-4.69-8.168-4.69-8.168c-1.951-4.406-2.886-9.372-2.886-14.978c0,0,0-5.208,0.864-9.895
		c1.658-4.16,1.658-4.16,3.393-8.287c2.452-3.646,5.845-6.727,5.845-6.727c3.173-2.924,6.855-5.127,11.039-6.568
		c0,0,4.26-1.482,8.95-2.203c5.194,0,5.194,0,6.855,0c1.588,0.082,3.176,0.239,3.176,0.239c1.585,0.202,3.1,0.444,4.544,0.762
		c0,0,1.518,0.36,3.103,0.801c1.655,0.599,1.655,0.599,1.655,0.599c1.658,0.563,3.396,1.204,5.273,2.001c0,0,0,0,0.861,0.404
		c0.791,0.321,1.521,0.523,1.521,0.523c0.574,0.199,1.081,0.281,1.441,0.281c0,0,0.217,0,0.434-0.04
		c0.504-0.283,0.864-0.521,1.222-0.845c0.724-0.076,0.724-0.076,0.724-0.076l1.157,0.68c0,0,0,0,0.574,0.319
		c-0.287,0.642-0.287,0.642-0.287,0.642l-6.712,15.258c0,0,0,0-0.287,0.68c-0.65-0.357-0.65-0.357-0.65-0.357l-1.228-0.681
		c-0.284-0.642-0.284-0.642-0.284-0.642c-0.073-0.48-0.073-0.844-0.149-1.204c0,0,0-0.28-0.073-0.523
		c-0.214-0.319-0.36-0.521-0.501-0.719c0,0-0.29-0.281-0.58-0.563c-0.36-0.28-0.36-0.28-0.36-0.28
		c-0.794-0.683-1.802-1.323-3.032-1.922c0,0-1.225-0.563-2.669-1.122c-1.591-0.479-1.591-0.479-3.249-1.002
		c-1.591-0.359-3.103-0.599-3.103-0.599s-1.515-0.239-3.032-0.357c-1.441,0-1.441,0-4.333,0c-2.666,0.439-5.124,1.362-5.124,1.362
		c-2.382,0.88-4.541,2.241-6.489,4.039c0,0-2.095,2.045-3.759,4.449c-1.084,2.682-1.084,2.682-2.159,5.407
		c-0.507,3.04-0.507,6.406-0.507,6.406c0,3.283,0.507,6.208,1.588,8.81c0,0,1.008,2.644,2.596,4.967
		c2.095,2.001,2.095,2.001,4.04,3.844c2.235,1.358,4.77,2.282,4.77,2.282c2.593,0.923,5.405,1.403,8.654,1.403
		c0,0,1.515,0,3.105-0.119c1.515-0.204,1.515-0.204,3.097-0.403c1.521-0.321,3.032-0.719,3.032-0.719s1.518-0.403,2.889-0.842
		c1.298-0.563,1.298-0.563,2.528-1.043c1.084-0.521,2.092-1.159,2.092-1.159L770.45,198.185L770.45,198.185z"/>
	
		<path fill="#FFFFFF" stroke="#3FC0F0" stroke-width="0.7087" stroke-linecap="round" stroke-linejoin="round" stroke-miterlimit="10" d="
		M756.88,196.744h14.218c0,0,0,0,0.65,0c0,0.719,0,0.719,0,0.719v8.73c0,0,0,0,0,0.401c-1.515,0.964-2.742,1.603-4.113,2.162
		c0,0-1.374,0.563-2.889,1.039c-1.515,0.441-1.515,0.441-1.515,0.441c-1.594,0.403-3.176,0.719-4.764,0.921
		c0,0-1.591,0.199-3.173,0.319c-1.594,0-1.594,0-4.907,0c-3.032-0.479-5.704-1.479-5.704-1.479
		c-2.742-0.964-5.124-2.443-7.146-4.406c0,0,0,0-2.309-2.164c-1.661-2.481-2.818-5.284-2.818-5.284
		c-1.084-2.802-1.655-5.969-1.655-9.412c0,0,0-3.565,0.577-6.807c1.157-2.884,1.157-2.884,2.309-5.807
		c1.734-2.527,4.043-4.727,4.043-4.727c2.019-1.92,4.327-3.407,6.853-4.364c0,0,2.596-0.962,5.411-1.443c3.032,0,3.032,0,4.547,0
		c1.515,0.16,3.176,0.403,3.176,0.403c1.588,0.281,3.17,0.643,4.904,1.16c0,0,1.661,0.521,3.105,1.081
		c1.295,0.599,1.295,0.599,2.593,1.242c1.157,0.683,2.027,1.441,2.027,1.441s0.431,0.36,0.718,0.68
		c0.287,0.281,0.287,0.281,0.577,0.602c0.22,0.321,0.36,0.598,0.36,0.598s0.149,0.283,0.29,0.68
		c0.073,0.439,0.073,0.439,0.141,0.722c0,0.321,0,0.68,0,0.68c0.363,0.201,0.363,0.201,6.498-13.778
		c-0.577,0.082-0.867,0.283-1.154,0.439c0,0,0,0-0.434,0.24c-0.434,0.079-0.794,0.079-0.794,0.079c-0.507,0-1.081-0.079-1.808-0.319
		c0,0-0.718-0.199-1.515-0.56c-1.008-0.401-1.008-0.401-2.813-1.201c-1.731-0.642-3.322-1.204-3.322-1.204s-1.655-0.561-3.17-1
		c-1.447-0.321-1.447-0.321-2.889-0.642c-1.521-0.281-3.032-0.439-3.032-0.439c-1.518-0.16-3.032-0.24-4.693-0.24
		c0,0-5.051,0-9.671,0.719c-4.034,1.403-4.034,1.403-8.083,2.807c-3.536,2.124-6.636,4.925-6.636,4.925
		c-3.176,2.921-5.558,6.366-7.151,10.33c0,0-1.588,3.968-2.382,8.452c0,5.007,0,5.007,0,10.374c0.867,4.805,2.669,8.971,2.669,8.971
		c1.808,4.204,4.477,7.77,8.083,10.812c0,0,0,0,2.895,2.363c3.243,1.802,6.923,3.003,6.923,3.003
		c3.753,1.202,7.863,1.801,12.483,1.801c0,0,5.051,0,10.178-0.842c5.194-1.721,5.194-1.721,10.318-3.407
		c5.268-2.524,10.538-5.845,10.538-5.845c0-0.201-0.36-0.319-0.656-0.48c-0.284-0.157-0.284-0.157-0.718-0.401
		c-0.36-0.28-0.577-0.598-0.577-0.598c-0.287-0.322-0.434-0.719-0.583-1.201c0,0,0,0-0.073-0.442
		c-0.067-0.48-0.067-1.002-0.067-1.002v-13.055c0,0,0-0.563,0.067-1.04c0.073-0.439,0.073-0.439,0.22-0.921
		c0.217-0.403,0.434-0.719,0.434-0.719s0.284-0.322,0.577-0.599c0.431-0.24,0.431-0.24,0.431-0.24
		c0.284-0.161,0.58-0.319,0.94-0.439c-26.558-0.283-26.558-0.283-26.558-0.283c-0.507,0-0.938-0.037-1.298-0.158
		c0,0-0.434-0.16-0.797-0.36c-0.574-0.521-0.794-0.921-1.008-1.361c0,0-0.146-0.319-0.287-0.68c-0.36-0.403-0.36,12.976-0.36,12.976
		c0.507-0.721,0.653-1.002,0.653-1.002c0.217-0.48,0.431-0.845,0.721-1.121c0.647-0.521,1.081-0.64,1.081-0.64
		C755.942,196.823,756.376,196.744,756.88,196.744z"/>
	
		<polyline fill="#FFFFFF" stroke="#3FC0F0" stroke-width="0.7087" stroke-linecap="round" stroke-linejoin="round" stroke-miterlimit="10" points="
		809.778,193.139 809.778,209.158 845.934,209.158 846.874,209.038 846.874,209.038 847.448,208.679 847.448,208.679 
		847.882,207.997 847.882,207.997 848.315,206.756 848.462,206.193 848.969,206.193 850.337,206.193 850.987,206.193 
		850.987,206.914 850.987,223.338 850.987,224.059 850.337,224.059 848.969,224.059 848.462,224.059 848.315,223.537 
		847.882,222.295 847.882,222.295 847.448,221.572 847.448,221.572 846.874,221.254 846.874,221.254 845.934,221.132 
		793.832,221.132 793.179,221.132 793.179,220.373 793.179,218.85 793.179,218.33 793.686,218.167 794.843,217.689 795.487,217.168 
		795.487,217.168 795.78,216.526 795.854,215.445 795.854,161.621 795.78,160.54 795.487,159.898 795.487,159.898 794.843,159.378 
		794.843,159.378 793.686,158.896 793.179,158.776 793.179,158.217 793.179,156.695 793.179,155.973 793.832,155.973 
		844.853,155.973 845.793,155.813 845.793,155.813 846.367,155.495 846.367,155.495 846.874,154.774 846.874,154.774 
		847.308,153.532 847.448,153.009 847.882,153.009 849.256,153.009 849.977,153.009 849.977,153.731 849.977,170.152 
		849.977,170.873 849.256,170.873 847.882,170.873 847.448,170.873 847.308,170.352 846.874,169.109 846.874,169.109 
		846.367,168.389 846.367,168.389 845.793,168.028 845.793,168.028 844.926,167.908 809.778,167.908 809.778,181.566 
		832.369,181.566 833.233,181.443 833.233,181.443 833.811,181.084 833.811,181.084 834.317,180.403 834.748,179.123 
		834.821,178.602 835.328,178.602 836.696,178.602 837.35,178.602 837.35,179.322 837.35,195.381 837.35,196.104 836.696,196.104 
		835.328,196.104 834.821,196.104 834.748,195.541 834.317,194.34 833.811,193.619 833.811,193.619 833.233,193.259 
		832.369,193.139 809.778,193.139 	"/>
	
		<polyline fill="#FFFFFF" stroke="#3FC0F0" stroke-width="0.7087" stroke-linecap="round" stroke-linejoin="round" stroke-miterlimit="10" points="
		808.48,209.88 808.48,192.418 808.48,191.696 809.131,191.696 832.369,191.696 833.667,191.896 834.678,192.538 834.678,192.538 
		835.472,193.66 835.832,194.662 836.049,194.662 836.049,180.043 835.832,180.043 835.472,181.045 834.678,182.164 
		834.678,182.164 833.667,182.806 833.667,182.806 832.369,183.006 809.131,183.006 808.48,183.006 808.48,182.284 808.48,167.186 
		808.48,166.467 809.131,166.467 844.926,166.467 846.227,166.666 846.227,166.666 847.234,167.308 847.234,167.308 848.031,168.43 
		848.031,168.43 848.389,169.43 848.605,169.43 848.605,154.452 848.389,154.452 848.031,155.453 848.031,155.453 847.234,156.575 
		847.234,156.575 846.227,157.218 846.227,157.218 844.853,157.417 794.553,157.417 794.553,157.657 795.42,158.097 795.42,158.097 
		796.428,158.939 796.428,158.939 797.005,160.139 797.148,161.621 797.148,215.445 797.005,216.929 796.428,218.131 
		796.428,218.131 795.42,218.97 794.553,219.412 794.553,219.652 845.934,219.652 847.234,219.852 847.234,219.852 848.315,220.492 
		848.245,220.492 849.039,221.615 849.039,221.615 849.399,222.615 849.689,222.615 849.689,207.636 849.399,207.636 
		849.039,208.637 849.039,208.679 848.245,209.76 848.315,209.76 847.234,210.4 847.234,210.4 845.934,210.6 809.131,210.6 
		808.48,210.6 808.48,209.88 	"/>
	
		<polyline fill="#FFFFFF" stroke="#FFFFFF" stroke-width="0.7087" stroke-linecap="round" stroke-linejoin="round" stroke-miterlimit="10" points="
		418.196,204.071 392.321,204.071 388.427,213.043 387.633,216.006 390.446,218.85 390.446,220.373 371.468,220.373 371.468,218.85 
		374.027,217.569 376.049,213.926 397.158,165.025 398.133,161.302 395.717,158.217 395.717,156.695 416.03,156.695 416.03,158.217 
		413.577,160.979 414.373,164.022 436.164,213.084 438.619,217.369 441.432,218.85 441.432,220.373 420.252,220.373 420.252,218.85 
		423.03,215.967 422.201,213.043 418.196,204.071 	"/>
	<polyline fill="#075D71" stroke="#FFFFFF" stroke-miterlimit="10" points="414.622,195.381 405.422,172.875 396.038,195.381 
		414.622,195.381 	"/>
	
		<polyline fill="#FFFFFF" stroke="#FFFFFF" stroke-width="0.7087" stroke-linecap="round" stroke-linejoin="round" stroke-miterlimit="10" points="
		461.641,209.88 496.858,209.88 498.807,209.24 499.888,206.914 501.262,206.914 501.262,223.338 499.888,223.338 498.807,221.053 
		496.858,220.373 446.412,220.373 446.412,218.85 448.434,217.651 449.081,215.445 449.081,161.621 448.434,159.418 
		446.412,158.217 446.412,156.695 464.31,156.695 464.31,158.217 462.218,159.418 461.641,161.621 461.641,209.88 	"/>
	
		<polyline fill="#FFFFFF" stroke="#FFFFFF" stroke-width="0.7087" stroke-linecap="round" stroke-linejoin="round" stroke-miterlimit="10" points="
		537.851,155.533 544.993,156.093 551.345,157.777 556.902,160.621 561.666,164.545 565.779,169.593 568.665,175.358 
		570.396,181.807 570.977,188.935 569.893,197.785 566.5,206.035 561.446,212.803 555.024,217.651 547.161,220.572 537.991,221.533 
		530.922,220.974 524.57,219.292 519.016,216.446 514.249,212.524 510.139,207.236 507.106,200.99 505.519,194.899 505.012,188.492 
		506.096,179.365 509.418,170.993 514.322,164.343 520.744,159.538 528.613,156.616 537.851,155.533 	"/>
	<polyline fill="#095D71" stroke="#FFFFFF" stroke-miterlimit="10" points="537.924,166.347 530.342,167.668 524.21,171.753 
		521.397,175.197 519.303,179.161 518.148,183.608 517.715,188.533 518.148,193.459 519.303,197.945 521.397,201.871 
		524.21,205.314 530.415,209.398 537.991,210.761 545.573,209.398 551.781,205.314 554.594,201.75 556.759,197.426 557.843,193.178 
		558.273,188.816 557.843,183.689 556.612,179.123 554.594,175.159 551.781,171.753 545.5,167.749 537.924,166.347 	"/>
	
		<polyline fill="#FFFFFF" stroke="#FFFFFF" stroke-width="0.7087" stroke-linecap="round" stroke-linejoin="round" stroke-miterlimit="10" points="
		595.226,192.418 595.226,209.88 632.031,209.88 633.977,209.24 635.061,206.914 636.432,206.914 636.432,223.338 635.061,223.338 
		633.977,221.053 632.031,220.373 579.994,220.373 579.994,218.85 582.089,217.651 582.666,215.445 582.666,161.621 
		582.089,159.418 579.994,158.217 579.994,156.695 631.021,156.695 632.969,156.012 634.05,153.731 635.421,153.731 
		635.421,170.152 634.05,170.152 632.969,167.828 631.021,167.186 595.226,167.186 595.226,182.284 618.461,182.284 
		620.339,181.644 621.49,179.322 622.864,179.322 622.864,195.381 621.49,195.381 620.339,193.058 618.461,192.418 595.226,192.418 
			"/>
	
		<path fill="#FFFFFF" stroke="#FFFFFF" stroke-width="0.7087" stroke-linecap="round" stroke-linejoin="round" stroke-miterlimit="10" d="
		M659.453,176.76v38.687c0,0,0,1,0.22,1.719c0.434,0.48,0.434,0.48,0.791,0.965c0.656,0.399,1.661,0.717,1.661,0.717v1.523
		c0,0,0,0-16.746,0c0-1.523,0-1.523,0-1.523c1.014-0.318,1.661-0.717,2.092-1.201c0,0,0.357-0.48,0.583-1.202c0-1,0-1,0-1
		c0-53.867,0-53.867,0-53.867c0-0.959-0.22-1.68-0.583-2.161c0,0-0.431-0.478-1.084-0.918c-1.014-0.281-1.014-0.281-1.014-0.281
		c0-1.521,0-1.521,0-1.521h19.488c0,0,0,0,0,1.521c0,0,0,0-1.228,0.319c-0.577,0.722-0.577,1.844-0.577,1.844
		c0,0.718,0.363,1.525,1.154,2.443c0,0,0,0,31.755,36.523c0-37.767,0-37.767,0-37.767c0-0.959-0.217-1.679-0.58-2.162
		c0,0-0.36-0.476-1.081-0.916c-1.011-0.283-1.011-0.283-1.011-0.283c0-1.522,0-1.522,0-1.522h16.813c0,0,0,0,0,1.522
		c0,0,0,0-1.011,0.283c-0.718,0.439-1.084,0.916-1.084,0.916c-0.434,0.483-0.58,1.206-0.58,2.162c0,0,0,0,0,53.867c0,0,0,0,0,1
		c0.146,0.719,0.58,1.204,0.58,1.204c0.36,0.479,1.084,0.879,2.095,1.201c0,0,0,0,0,1.522c-18.041,0-18.041,0-18.041,0v-1.522
		c0,0,1.157-0.281,1.734-0.962c0-1.042,0-1.042,0-1.644c-0.724-1.084-2.024-2.643-2.024-2.643L659.453,176.76z"/>
	
		<polyline fill="#FFFFFF" stroke="#FFFFFF" stroke-width="0.7087" stroke-linecap="round" stroke-linejoin="round" stroke-miterlimit="10" points="
		771.101,197.463 756.88,197.463 754.932,198.104 753.851,200.428 752.477,200.428 752.477,185.609 753.851,185.609 
		754.932,187.974 756.88,188.573 784.088,188.573 784.088,190.098 781.996,191.337 781.416,193.54 781.416,206.595 781.996,208.757 
		784.088,209.959 784.088,211.121 775.932,215.688 767.995,218.932 760.126,220.893 752.406,221.533 745.768,221.094 
		739.776,219.691 734.436,217.408 729.745,214.203 724.911,209.12 721.445,203.152 719.351,196.262 718.63,188.492 719.28,181.246 
		721.085,174.756 724.19,169.07 728.518,164.142 733.568,160.379 739.343,157.695 745.911,156.055 753.271,155.533 762.508,156.535 
		772.396,159.898 776.512,161.139 778.53,160.101 779.758,160.78 773.046,176.038 771.818,175.358 771.385,173.155 769.87,171.474 
		762.364,167.828 752.983,166.347 744.754,167.749 738.118,171.913 733.067,179.322 731.406,188.735 733.067,197.864 
		737.898,205.033 744.827,209.319 753.704,210.761 763.088,209.517 771.101,206.193 771.101,197.463 	"/>
	
		<polyline fill="#FFFFFF" stroke="#FFFFFF" stroke-width="0.7087" stroke-linecap="round" stroke-linejoin="round" stroke-miterlimit="10" points="
		809.131,192.418 809.131,209.88 845.934,209.88 847.882,209.24 848.969,206.914 850.337,206.914 850.337,223.338 848.969,223.338 
		847.882,221.053 845.934,220.373 793.832,220.373 793.832,218.85 795.921,217.651 796.501,215.445 796.501,161.621 
		795.921,159.418 793.832,158.217 793.832,156.695 844.853,156.695 846.801,156.012 847.882,153.731 849.256,153.731 
		849.256,170.152 847.882,170.152 846.801,167.828 844.926,167.186 809.131,167.186 809.131,182.284 832.369,182.284 
		834.244,181.644 835.328,179.322 836.696,179.322 836.696,195.381 835.328,195.381 834.244,193.058 832.369,192.418 
		809.131,192.418 	"/>
	
		<polyline fill="#FFFFFF" stroke="#3FC0F0" stroke-width="0.7087" stroke-linecap="round" stroke-linejoin="round" stroke-miterlimit="10" points="
		405.456,279.163 386.621,279.163 383.809,285.731 383.195,287.853 385.251,289.936 385.251,291.059 371.468,291.059 
		371.468,289.936 373.343,289.016 374.786,286.373 390.124,250.81 390.879,248.084 389.076,245.844 389.076,244.722 
		403.868,244.722 403.868,245.844 402.065,247.845 402.644,250.089 418.518,285.731 420.287,288.854 422.344,289.936 
		422.344,291.059 406.937,291.059 406.937,289.936 408.958,287.853 408.343,285.731 405.456,279.163 	"/>
	
		<polyline fill="#FFFFFF" stroke="#3FC0F0" stroke-width="0.7087" stroke-linecap="round" stroke-linejoin="round" stroke-miterlimit="10" points="
		402.824,272.877 396.146,256.496 389.328,272.877 402.824,272.877 	"/>
	
		<polyline fill="#FFFFFF" stroke="#3FC0F0" stroke-width="0.7087" stroke-linecap="round" stroke-linejoin="round" stroke-miterlimit="10" points="
		459.405,291.059 444.033,259.059 444.033,287.453 444.464,289.055 445.978,289.936 445.978,291.059 433.784,291.059 
		433.784,289.936 435.297,289.055 435.73,287.453 435.73,248.284 435.297,246.726 433.784,245.844 433.784,244.722 449.805,244.722 
		449.805,245.844 448.359,247.725 448.793,249.286 460.126,273.116 471.602,249.689 472.393,247.405 470.878,245.844 
		470.878,244.722 486.61,244.722 486.61,245.844 485.096,246.726 484.662,248.284 484.662,287.453 485.096,289.055 486.61,289.936 
		486.61,291.059 473.62,291.059 473.62,289.936 475.138,289.095 475.571,287.453 475.571,259.059 459.405,291.059 	"/>
	
		<polyline fill="#FFFFFF" stroke="#FFFFFF" stroke-width="0.7087" stroke-linecap="round" stroke-linejoin="round" stroke-miterlimit="10" points="
		539.219,266.788 544.492,270.994 546.221,277.722 545.213,283.369 542.107,287.653 537.344,290.255 530.562,291.059 
		502.056,291.059 502.056,289.936 503.57,289.055 504.004,287.453 504.004,248.326 503.57,246.726 502.056,245.844 502.056,244.722 
		530.274,244.722 536.837,245.401 541.17,247.725 543.912,251.65 544.853,257.016 543.405,262.822 539.219,266.788 	"/>
	
		<path fill="#FFFFFF" stroke="#FFFFFF" stroke-width="0.7087" stroke-linecap="round" stroke-linejoin="round" stroke-miterlimit="10" d="
		M513.095,263.145h16.022c0,0,2.382,0,4.043-0.402c1.008-0.801,1.008-0.801,2.095-1.684c0.504-1.402,0.504-3.282,0.504-3.282
		c0-1.962-0.504-3.323-1.518-4.163c0,0-1.008-0.799-2.742-1.24c-2.382,0-2.382,0-2.382,0c-16.022,0-16.022,0-16.022,0V263.145
		L513.095,263.145z"/>
	
		<path fill="#FFFFFF" stroke="#FFFFFF" stroke-width="0.7087" stroke-linecap="round" stroke-linejoin="round" stroke-miterlimit="10" d="
		M513.095,283.408h15.519c0,0,2.813,0,4.907-0.439c1.298-0.879,1.298-0.879,2.742-1.881c0.721-1.682,0.721-4.005,0.721-4.005
		c0-2.282-0.721-3.926-2.165-4.966c0,0-1.298-0.882-3.319-1.326c-2.886,0-2.886,0-2.886,0c-15.519,0-15.519,0-15.519,0V283.408
		L513.095,283.408z"/>
	
		<path fill="#FFFFFF" stroke="#3FC0F0" stroke-width="0.7087" stroke-linecap="round" stroke-linejoin="round" stroke-miterlimit="10" d="
		M562.24,287.453v-39.169c0,0,0-0.68-0.144-1.2c-0.284-0.358-0.284-0.358-0.58-0.719c-0.504-0.281-1.222-0.521-1.222-0.521v-1.122
		c0,0,0,0,12.99,0c0,1.122,0,1.122,0,1.122c-0.721,0.199-1.228,0.48-1.444,0.882c0,0-0.29,0.36-0.434,0.879c0,0.68,0,0.68,0,0.68
		c0,39.169,0,39.169,0,39.169c0,0.721,0.144,1.242,0.434,1.642c0,0,0.284,0.36,0.788,0.639c0.656,0.205,0.656,0.205,0.656,0.205
		c0,1.122,0,1.122,0,1.122h-12.99c0,0,0,0,0-1.122c0,0,0,0,0.718-0.24c0.504-0.281,0.797-0.642,0.797-0.642
		C562.1,288.695,562.24,288.176,562.24,287.453z"/>
	
		<polyline fill="#FFFFFF" stroke="#3FC0F0" stroke-width="0.7087" stroke-linecap="round" stroke-linejoin="round" stroke-miterlimit="10" points="
		599.696,270.714 599.696,283.408 626.477,283.408 627.845,282.93 628.639,281.246 629.646,281.246 629.646,293.22 628.639,293.22 
		627.845,291.538 626.477,291.059 588.657,291.059 588.657,289.936 590.172,289.055 590.532,287.453 590.532,248.326 
		590.172,246.726 588.657,245.844 588.657,244.722 625.75,244.722 627.121,244.282 627.915,242.598 628.926,242.598 
		628.926,254.533 627.915,254.533 627.121,252.852 625.75,252.373 599.696,252.373 599.696,263.343 616.583,263.343 618.03,262.865 
		618.751,261.182 619.762,261.182 619.762,272.877 618.751,272.877 618.03,271.193 616.583,270.714 599.696,270.714 	"/>
	
		<path fill="#FFFFFF" stroke="#3FC0F0" stroke-width="0.7087" stroke-linecap="round" stroke-linejoin="round" stroke-miterlimit="10" d="
		M654.256,259.341v28.113c0,0,0,0.721,0.146,1.242c0.287,0.358,0.287,0.358,0.583,0.72c0.501,0.281,1.219,0.52,1.219,0.52v1.123
		c0,0,0,0-12.196,0c0-1.123,0-1.123,0-1.123c0.724-0.238,1.228-0.52,1.518-0.881c0,0,0.287-0.358,0.434-0.88
		c0-0.721,0-0.721,0-0.721c0-39.167,0-39.167,0-39.167c0-0.68-0.146-1.201-0.434-1.562c0,0-0.284-0.358-0.791-0.64
		c-0.721-0.239-0.721-0.239-0.721-0.239c0-1.122,0-1.122,0-1.122h14.145c0,0,0,0,0,1.122c0,0,0,0-0.858,0.239
		c-0.434,0.52-0.434,1.319-0.434,1.319c0,0.563,0.281,1.161,0.788,1.804c0,0,0,0,23.165,26.553c0-27.475,0-27.475,0-27.475
		c0-0.68-0.144-1.201-0.431-1.562c0,0-0.29-0.358-0.794-0.64c-0.721-0.239-0.721-0.239-0.721-0.239c0-1.122,0-1.122,0-1.122h12.199
		c0,0,0,0,0,1.122c0,0,0,0-0.718,0.239c-0.513,0.281-0.797,0.64-0.797,0.64c-0.29,0.36-0.431,0.882-0.431,1.562c0,0,0,0,0,39.167
		c0,0,0,0,0,0.721c0.141,0.521,0.431,0.88,0.431,0.88c0.284,0.361,0.797,0.643,1.518,0.881c0,0,0,0,0,1.123
		c-13.137,0-13.137,0-13.137,0v-1.123c0,0,0.867-0.203,1.298-0.678c0-0.762,0-0.762,0-1.203c-0.504-0.801-1.521-1.922-1.521-1.922
		L654.256,259.341z"/>
	
		<polyline fill="#FFFFFF" stroke="#3FC0F0" stroke-width="0.7087" stroke-linecap="round" stroke-linejoin="round" stroke-miterlimit="10" points="
		728.228,252.373 728.228,287.453 728.664,289.055 730.179,289.936 730.179,291.059 717.188,291.059 717.188,289.936 
		718.703,289.055 719.137,287.453 719.137,252.373 706.217,252.373 704.846,252.852 704.052,254.533 703.044,254.533 
		703.044,242.598 704.052,242.598 704.846,244.282 706.217,244.722 741.077,244.722 742.519,244.282 743.313,242.598 
		744.32,242.598 744.32,254.533 743.313,254.533 742.519,252.852 741.077,252.373 728.228,252.373 	"/>
	
		<polyline fill="#FFFFFF" stroke="#3FC0F0" stroke-width="0.7087" stroke-linecap="round" stroke-linejoin="round" stroke-miterlimit="10" points="
		782.066,279.163 763.302,279.163 760.419,285.731 759.839,287.853 761.934,289.936 761.934,291.059 748.146,291.059 
		748.146,289.936 749.954,289.016 751.469,286.373 766.768,250.81 767.488,248.084 765.757,245.844 765.757,244.722 
		780.552,244.722 780.552,245.844 778.747,247.845 779.324,250.089 795.2,285.731 796.935,288.854 798.953,289.936 798.953,291.059 
		783.581,291.059 783.581,289.936 785.603,287.853 785.028,285.731 782.066,279.163 	"/>
	
		<polyline fill="#FFFFFF" stroke="#3FC0F0" stroke-width="0.7087" stroke-linecap="round" stroke-linejoin="round" stroke-miterlimit="10" points="
		779.468,272.877 772.759,256.496 765.974,272.877 779.468,272.877 	"/>
	
		<polyline fill="#FFFFFF" stroke="#3FC0F0" stroke-width="0.7087" stroke-linecap="round" stroke-linejoin="round" stroke-miterlimit="10" points="
		821.471,283.408 847.088,283.408 848.535,282.93 849.329,281.246 850.337,281.246 850.337,293.22 849.329,293.22 848.535,291.538 
		847.088,291.059 810.432,291.059 810.432,289.936 811.946,289.055 812.38,287.453 812.38,248.326 811.946,246.726 810.432,245.844 
		810.432,244.722 823.419,244.722 823.419,245.844 821.904,246.726 821.471,248.326 821.471,283.408 	"/>
	
		<polyline fill="#FFFFFF" stroke="#3FC0F0" stroke-width="0.7087" stroke-linecap="round" stroke-linejoin="round" stroke-miterlimit="10" points="
		405.022,279.884 387.02,279.884 384.384,286.053 383.988,287.132 383.843,287.853 384.168,288.615 385.432,289.256 
		385.899,289.376 385.899,289.936 385.899,291.059 385.899,291.778 385.251,291.778 371.468,291.778 370.815,291.778 
		370.815,291.059 370.815,289.936 370.815,289.376 371.322,289.256 372.261,288.896 372.261,288.936 372.872,288.453 
		373.485,287.615 374.207,286.053 374.207,286.053 389.544,250.49 390.05,249.049 390.05,249.049 390.192,248.084 389.942,247.203 
		389.942,247.203 388.895,246.523 388.427,246.365 388.427,245.844 388.427,244.722 388.427,244.001 389.076,244.001 
		403.868,244.001 404.52,244.001 404.52,244.722 404.52,245.844 404.52,246.403 404.048,246.563 402.967,247.125 402.715,247.845 
		402.859,248.724 402.859,248.724 403.22,249.767 403.22,249.767 419.098,285.412 420.032,287.254 420.758,288.333 420.758,288.333 
		421.479,288.896 422.456,289.256 422.996,289.338 422.996,289.936 422.996,291.059 422.996,291.778 422.344,291.778 
		406.937,291.778 406.289,291.778 406.289,291.059 406.289,289.936 406.289,289.338 406.832,289.218 408.018,288.695 
		408.307,287.853 408.2,287.173 408.2,287.173 407.766,286.053 407.766,286.053 405.022,279.884 	"/>
	
		<polyline fill="#FFFFFF" stroke="#FFFFFF" stroke-width="0.7087" stroke-linecap="round" stroke-linejoin="round" stroke-miterlimit="10" points="
		386.621,278.442 405.456,278.442 405.855,278.442 406.035,278.841 408.92,285.412 408.92,285.412 409.427,286.73 409.427,286.73 
		409.606,287.853 408.885,289.733 408.092,290.337 421.225,290.337 420.9,290.178 419.854,289.376 419.854,289.376 418.916,288.055 
		417.942,286.053 402.065,250.408 401.597,249.087 401.597,249.087 401.417,247.845 402.065,246.123 402.932,245.442 
		389.942,245.442 390.917,246.283 390.917,246.283 391.527,248.084 391.312,249.49 391.312,249.49 390.736,251.131 375.399,286.654 
		375.399,286.654 374.571,288.375 373.778,289.537 372.803,290.217 372.803,290.217 372.583,290.337 384.238,290.337 
		383.303,289.657 382.542,287.853 382.723,286.73 383.195,285.412 383.195,285.412 386.045,278.883 386.225,278.442 
		386.621,278.442 	"/>
	
		<polyline fill="#FFFFFF" stroke="#3FC0F0" stroke-width="0.7087" stroke-linecap="round" stroke-linejoin="round" stroke-miterlimit="10" points="
		401.812,272.155 396.146,258.258 390.338,272.155 401.812,272.155 	"/>
	
		<polyline fill="#075D71" stroke="#3FC0F0" stroke-width="0.7087" stroke-linecap="round" stroke-linejoin="round" stroke-miterlimit="10" points="
		396.725,256.218 403.438,272.557 403.833,273.597 402.824,273.597 389.328,273.597 388.316,273.597 388.715,272.557 
		395.535,256.218 396.146,254.773 396.725,256.218 	"/>
	
		<polyline fill="#FFFFFF" stroke="#3FC0F0" stroke-width="0.7087" stroke-linecap="round" stroke-linejoin="round" stroke-miterlimit="10" points="
		458.825,291.379 444.681,261.942 444.681,287.453 444.754,288.176 444.968,288.574 445.328,288.896 446.125,289.256 
		446.629,289.417 446.629,289.936 446.629,291.059 446.629,291.778 445.978,291.778 433.784,291.778 433.135,291.778 
		433.135,291.059 433.135,289.936 433.135,289.417 433.568,289.256 434.361,288.896 434.795,288.574 434.937,288.176 
		435.01,287.453 435.01,248.284 434.937,247.604 434.937,247.604 434.795,247.203 434.361,246.884 433.568,246.563 433.135,246.403 
		433.135,245.844 433.135,244.722 433.135,244.001 433.784,244.001 449.805,244.001 450.455,244.001 450.455,244.722 
		450.455,245.844 450.455,246.403 449.948,246.563 449.227,246.966 449.011,247.725 449.081,248.246 449.374,248.928 
		460.126,271.596 471.021,249.327 471.602,248.084 471.745,247.405 471.525,246.846 471.525,246.846 470.805,246.563 
		470.23,246.485 470.23,245.844 470.23,244.722 470.23,244.001 470.878,244.001 486.61,244.001 487.258,244.001 487.258,244.722 
		487.258,245.844 487.258,246.403 486.824,246.563 486.03,246.884 485.603,247.203 485.383,247.604 485.31,248.284 485.31,287.453 
		485.383,288.176 485.603,288.574 486.03,288.896 486.824,289.256 487.258,289.417 487.258,289.936 487.258,291.059 
		487.258,291.778 486.61,291.778 473.62,291.778 472.97,291.778 472.97,291.059 472.97,289.936 472.97,289.376 473.477,289.256 
		474.197,288.936 474.631,288.615 474.631,288.615 474.848,288.176 474.848,288.176 474.918,287.453 474.918,261.822 
		459.979,291.418 459.332,292.54 458.825,291.379 	"/>
	
		<polyline fill="#FFFFFF" stroke="#FFFFFF" stroke-width="0.7087" stroke-linecap="round" stroke-linejoin="round" stroke-miterlimit="10" points="
		444.607,258.697 459.405,289.537 474.991,258.697 476.219,256.294 476.219,259.059 476.219,287.453 476.072,288.615 
		476.072,288.615 475.639,289.537 474.848,290.217 474.631,290.337 485.67,290.337 485.383,290.178 484.662,289.537 
		484.589,289.537 484.155,288.615 484.015,287.453 484.015,248.284 484.155,247.165 484.589,246.244 484.662,246.244 
		485.383,245.601 485.67,245.442 472.032,245.442 472.469,245.803 472.469,245.803 473.043,247.405 472.826,248.606 
		472.176,250.007 460.7,273.477 460.126,274.637 459.546,273.438 448.217,249.608 447.856,248.646 447.713,247.725 448.217,246.043 
		448.867,245.442 434.725,245.442 434.937,245.601 435.73,246.244 436.237,247.165 436.237,247.165 436.381,248.284 
		436.381,287.453 436.237,288.615 435.73,289.537 435.01,290.178 434.725,290.337 444.968,290.337 444.754,290.178 443.96,289.537 
		443.96,289.537 443.528,288.615 443.38,287.453 443.38,259.059 443.38,256.177 444.607,258.697 	"/>
	
		<path fill="#FFFFFF" stroke="#FFFFFF" stroke-width="0.7087" stroke-linecap="round" stroke-linejoin="round" stroke-miterlimit="10" d="
		M540.663,266.707c1.881,0.963,3.322,2.281,4.333,3.844c0,0,1.225,1.963,1.875,4.326c0,2.844,0,2.844,0,5.047
		c-0.36,2-1.081,3.764-1.081,3.764c-0.724,1.762-1.805,3.281-3.246,4.525c0,0,0,0-0.721,0.642c-0.794,0.563-1.658,1.002-1.658,1.002
		c-0.867,0.439-1.734,0.844-2.669,1.084c0,0-0.94,0.28-2.024,0.475c-1.154,0.163-1.154,0.163-2.306,0.282
		c-1.228,0.081-2.599,0.081-2.599,0.081h-28.506c0,0,0,0-0.653,0c0-0.72,0-0.72,0-0.72v-1.121c0,0,0,0,0-0.521
		c0.431-0.158,0.431-0.158,0.431-0.158c0.36-0.121,0.656-0.24,0.794-0.361c0.434-0.32,0.434-0.32,0.507-0.402
		c0.146-0.523,0.217-0.764,0.217-1.04c0,0,0,0,0-39.126c-0.07-0.521-0.07-0.721-0.07-0.721c-0.217-0.402-0.29-0.521-0.431-0.642
		c-0.22-0.081-0.22-0.081-0.434-0.2c-0.22-0.121-0.583-0.201-0.583-0.201l-0.431-0.158c0,0,0,0,0-0.563c0-1.122,0-1.122,0-1.122
		v-0.718c0,0,0,0,0.653,0c28.219,0,28.219,0,28.219,0c1.368,0,2.596,0.08,3.68,0.201c0,0,1.157,0.119,2.162,0.281
		c0.867,0.24,0.867,0.24,0.867,0.24c0.867,0.24,1.655,0.563,2.455,0.965c0,0,0.721,0.401,1.441,0.881
		c0.653,0.598,0.653,0.598,0.653,0.598c1.298,1.121,2.309,2.527,2.962,4.208c0,0,0.647,1.644,1.008,3.524c0,2.123,0,2.123,0,4.529
		c-0.504,2.042-1.515,3.803-1.515,3.803C543.191,264.585,542.107,265.748,540.663,266.707z"/>
	
		<path fill="#FFFFFF" stroke="#FFFFFF" stroke-width="0.7087" stroke-linecap="round" stroke-linejoin="round" stroke-miterlimit="10" d="
		M543.912,271.394c-1.084-1.682-2.742-3.003-4.978-3.926c0,0,0,0-1.371-0.64c1.371-0.723,1.371-0.723,1.371-0.723
		c1.729-0.916,3.103-2.158,3.967-3.642c0,0,0.864-1.523,1.298-3.325c0-2.124,0-2.124,0-4.046c-0.284-1.682-0.864-3.161-0.864-3.161
		c-0.577-1.439-1.444-2.643-2.596-3.647c0,0,0,0-0.574-0.519c-0.653-0.442-1.301-0.803-1.301-0.803
		c-0.721-0.319-1.444-0.641-2.238-0.842c0,0,0,0-0.794-0.203c-0.935-0.199-1.948-0.279-1.948-0.279s-1.081-0.123-2.235-0.201
		c-1.371,0-1.371,0-1.371,0c-27.281,0-27.281,0-27.281,0c0.293,0.157,0.58,0.32,0.867,0.561c0.36,0.521,0.507,0.844,0.65,1.201
		c0,0,0.07,0.32,0.146,0.719c0,0.404,0,0.404,0,0.404c0,39.126,0,39.126,0,39.126c0,0.439-0.076,0.803-0.146,1.157
		c0,0-0.144,0.36-0.284,0.68c-0.146,0.243-0.146,0.243-0.36,0.482c-0.29,0.24-0.577,0.399-0.577,0.399
		c-0.29,0.159-0.29,0.159,27.281,0.159c0,0,0,0,1.295,0c1.228-0.082,2.309-0.2,2.309-0.2c1.087-0.12,2.095-0.322,2.962-0.562
		c0,0,0.864-0.282,1.731-0.602c0.718-0.398,0.718-0.398,1.515-0.841c0.721-0.48,1.301-1.04,1.301-1.04s1.298-1.123,2.309-2.484
		c0.577-1.521,0.577-1.521,1.228-3.084c0.357-1.8,0.357-3.805,0.357-3.805C545.573,275.197,544.993,273.116,543.912,271.394z"/>
	
		<polyline fill="#444444" stroke="#FFFFFF" stroke-width="0.7087" stroke-linecap="round" stroke-linejoin="round" stroke-miterlimit="10" points="
		513.745,262.423 529.114,262.423 532.003,262.142 533.734,261.381 533.734,261.381 534.748,259.941 535.108,257.776 
		533.881,254.214 532.076,253.373 529.114,253.092 513.745,253.092 513.745,262.423 	"/>
	<path fill="#095D71" stroke="#FFFFFF" stroke-miterlimit="10" d="M529.114,263.864h-16.02c0,0,0,0-0.653,0c0-0.718,0-0.718,0-0.718
		v-10.773c0,0,0,0,0-0.721c0.653,0,0.653,0,0.653,0h16.02c0,0,1.225,0,2.312,0.119c0.867,0.203,0.867,0.203,1.878,0.443
		c0.718,0.358,1.298,0.801,1.298,0.801c0,0.038,1.222,1,1.805,2.563c0,2.203,0,2.203,0,3.242c-0.149,0.922-0.434,1.684-0.434,1.684
		c-0.357,0.842-0.791,1.521-1.447,2.039c0,0,0,0-0.577,0.439c-0.718,0.36-1.655,0.563-1.655,0.563
		C531.426,263.744,530.342,263.864,529.114,263.864z"/>
	
		<path fill="#FFFFFF" stroke="#FFFFFF" stroke-width="0.7087" stroke-linecap="round" stroke-linejoin="round" stroke-miterlimit="10" d="
		M513.745,282.686h14.868c0,0,1.368,0,2.525-0.082c1.011-0.236,1.011-0.236,1.948-0.439c0.794-0.279,1.371-0.682,1.371-0.682
		c0.58-0.439,1.087-1,1.371-1.719c0,0,0.287-0.721,0.507-1.603c0-1.081,0-1.081,0-2.121c-0.22-0.882-0.507-1.6-0.507-1.6
		s-0.284-0.722-0.791-1.282c-0.58-0.439-0.58-0.439-0.58-0.439c-0.577-0.4-1.295-0.68-2.309-0.879c0,0-0.94-0.24-2.162-0.32
		c-1.371,0-1.371,0-1.371,0c-14.868,0-14.868,0-14.868,0L513.745,282.686L513.745,282.686z"/>
	<polyline fill="#075D71" stroke="#FFFFFF" stroke-miterlimit="10" points="528.613,284.131 513.095,284.131 512.447,284.131 
		512.447,283.408 512.447,270.793 512.447,270.07 513.095,270.07 528.613,270.07 532.437,270.392 535.108,271.476 535.108,271.476 
		536.983,273.837 536.983,273.837 537.631,277.08 536.983,280.405 535.108,282.686 535.108,282.686 532.437,283.81 528.613,284.131 
			"/>
	
		<polyline fill="#FFFFFF" stroke="#3FC0F0" stroke-width="0.7087" stroke-linecap="round" stroke-linejoin="round" stroke-miterlimit="10" points="
		561.593,287.453 561.593,248.284 561.52,247.604 561.52,247.604 561.306,247.203 560.945,246.884 560.151,246.563 559.645,246.403 
		559.645,245.844 559.645,244.722 559.645,244.001 560.295,244.001 573.285,244.001 574.006,244.001 574.006,244.722 
		574.006,245.844 574.006,246.403 573.499,246.563 572.705,246.846 572.705,246.846 572.271,247.165 572.271,247.165 
		572.131,247.604 572.058,248.284 572.058,287.453 572.131,288.176 572.131,288.176 572.271,288.615 572.345,288.615 
		572.705,288.936 573.499,289.256 574.006,289.376 574.006,289.936 574.006,291.059 574.006,291.778 573.285,291.778 
		560.295,291.778 559.645,291.778 559.645,291.059 559.645,289.936 559.645,289.417 560.151,289.256 560.945,288.896 
		561.306,288.574 561.52,288.176 561.593,287.453 	"/>
	
		<polyline fill="#FFFFFF" stroke="#FFFFFF" stroke-width="0.7087" stroke-linecap="round" stroke-linejoin="round" stroke-miterlimit="10" points="
		562.894,248.284 562.894,287.453 562.747,288.615 562.313,289.537 561.52,290.178 561.232,290.337 572.345,290.337 
		572.131,290.217 571.337,289.537 570.83,288.615 570.83,288.615 570.757,287.453 570.757,248.284 570.83,247.165 571.337,246.244 
		571.337,246.244 572.131,245.564 572.131,245.564 572.345,245.442 561.306,245.442 561.52,245.601 562.313,246.244 
		562.747,247.165 562.747,247.165 562.894,248.284 	"/>
	
		<polyline fill="#FFFFFF" stroke="#3FC0F0" stroke-width="0.7087" stroke-linecap="round" stroke-linejoin="round" stroke-miterlimit="10" points="
		600.347,271.435 600.347,282.686 626.477,282.686 627.121,282.608 627.481,282.409 627.481,282.409 627.771,281.967 
		628.059,281.088 628.205,280.525 628.639,280.525 629.646,280.525 630.3,280.525 630.3,281.246 630.3,293.22 630.3,293.941 
		629.646,293.941 628.639,293.941 628.205,293.941 628.059,293.381 627.771,292.54 627.481,292.059 627.481,292.059 
		627.121,291.857 627.121,291.857 626.477,291.778 588.657,291.778 588.01,291.778 588.01,291.059 588.01,289.936 588.01,289.417 
		588.438,289.256 589.231,288.896 589.665,288.574 589.812,288.176 589.885,287.453 589.885,248.326 589.812,247.604 
		589.665,247.203 589.231,246.884 588.438,246.563 588.01,246.403 588.01,245.844 588.01,244.722 588.01,244.001 588.657,244.001 
		625.75,244.001 626.327,243.922 626.688,243.723 626.688,243.723 626.978,243.239 627.268,242.398 627.411,241.879 
		627.915,241.879 628.926,241.879 629.576,241.879 629.576,242.598 629.576,254.533 629.576,255.256 628.926,255.256 
		627.915,255.256 627.411,255.256 627.268,254.735 626.978,253.851 626.688,253.373 626.688,253.373 626.327,253.171 
		626.327,253.171 625.75,253.092 600.347,253.092 600.347,262.623 616.583,262.623 617.236,262.543 617.236,262.543 
		617.597,262.344 617.884,261.865 618.174,261.022 618.317,260.46 618.751,260.46 619.762,260.46 620.409,260.46 620.409,261.182 
		620.409,272.877 620.409,273.597 619.762,273.597 618.751,273.597 618.317,273.597 618.174,273.074 617.884,272.193 
		617.523,271.716 617.523,271.716 617.236,271.514 616.583,271.435 600.347,271.435 	"/>
	
		<polyline fill="#FFFFFF" stroke="#FFFFFF" stroke-width="0.7087" stroke-linecap="round" stroke-linejoin="round" stroke-miterlimit="10" points="
		599.049,283.408 599.049,270.714 599.049,269.993 599.696,269.993 616.583,269.993 617.597,270.151 618.461,270.673 
		618.461,270.673 619.038,271.514 619.111,271.792 619.111,262.262 619.038,262.543 618.391,263.426 617.597,263.905 
		617.597,263.905 616.583,264.064 599.696,264.064 599.049,264.064 599.049,263.343 599.049,252.373 599.049,251.65 599.696,251.65 
		625.75,251.65 626.688,251.811 626.688,251.811 627.555,252.292 627.555,252.33 628.132,253.171 628.278,253.452 628.278,243.641 
		628.132,243.922 627.555,244.803 627.555,244.803 626.688,245.322 625.75,245.442 589.592,245.442 589.812,245.601 
		590.605,246.244 590.605,246.244 591.109,247.203 591.183,248.326 591.183,287.453 591.109,288.615 590.605,289.537 
		589.885,290.178 589.592,290.337 626.477,290.337 627.481,290.498 627.481,290.498 628.278,290.976 628.926,291.857 
		628.999,292.139 628.999,282.327 628.926,282.608 628.278,283.49 627.481,283.968 626.477,284.131 599.696,284.131 
		599.049,284.131 599.049,283.408 	"/>
	
		<polyline fill="#FFFFFF" stroke="#3FC0F0" stroke-width="0.7087" stroke-linecap="round" stroke-linejoin="round" stroke-miterlimit="10" points="
		654.906,261.141 654.906,287.453 654.979,288.176 655.196,288.574 655.557,288.896 656.351,289.256 656.857,289.417 
		656.857,289.936 656.857,291.059 656.857,291.778 656.204,291.778 644.008,291.778 643.36,291.778 643.36,291.059 643.36,289.936 
		643.36,289.417 643.794,289.256 644.585,288.896 645.019,288.574 645.165,288.176 645.309,287.453 645.309,248.284 
		645.165,247.604 645.165,247.604 645.019,247.203 644.585,246.884 643.794,246.563 643.36,246.403 643.36,245.844 643.36,244.722 
		643.36,244.001 644.008,244.001 658.155,244.001 658.806,244.001 658.806,244.722 658.806,245.844 658.806,246.403 
		658.299,246.563 657.651,246.926 657.651,246.926 657.505,247.405 658.155,248.688 680.093,273.957 680.093,248.284 
		680.02,247.604 679.876,247.203 679.445,246.884 679.445,246.884 678.648,246.563 678.218,246.403 678.218,245.844 
		678.218,244.722 678.218,244.001 678.865,244.001 691.064,244.001 691.712,244.001 691.712,244.722 691.712,245.844 
		691.712,246.403 691.205,246.563 690.414,246.884 690.414,246.884 690.051,247.203 689.837,247.604 689.764,248.284 
		689.764,287.453 689.837,288.176 690.051,288.574 690.414,288.896 691.205,289.256 691.712,289.417 691.712,289.936 
		691.712,291.059 691.712,291.778 691.064,291.778 677.928,291.778 677.28,291.778 677.28,291.059 677.28,289.936 677.28,289.376 
		677.784,289.256 678.435,288.936 678.435,288.936 678.578,288.496 678.288,287.973 677.28,286.61 654.906,261.141 	"/>
	
		<polyline fill="#FFFFFF" stroke="#FFFFFF" stroke-width="0.7087" stroke-linecap="round" stroke-linejoin="round" stroke-miterlimit="10" points="
		653.608,287.453 653.608,259.341 653.608,257.576 654.689,258.857 678.218,285.611 679.372,287.132 679.876,288.496 
		679.372,289.936 678.865,290.337 690.051,290.337 689.837,290.178 689.043,289.537 689.043,289.537 688.609,288.615 
		688.463,287.453 688.463,248.284 688.609,247.165 689.043,246.244 689.043,246.244 689.837,245.601 689.837,245.601 
		690.051,245.442 679.806,245.442 680.093,245.601 680.093,245.601 680.813,246.244 681.32,247.165 681.467,248.284 681.467,275.76 
		681.467,277.521 680.31,276.239 657.218,249.689 657.218,249.689 656.204,247.405 656.711,245.923 656.711,245.923 
		657.218,245.442 644.948,245.442 645.235,245.601 645.959,246.244 646.463,247.165 646.463,247.165 646.606,248.284 
		646.606,287.453 646.463,288.615 645.959,289.537 645.235,290.178 644.948,290.337 655.27,290.337 654.979,290.178 
		654.186,289.537 654.186,289.537 653.752,288.615 653.608,287.453 	"/>
	
		<polyline fill="#FFFFFF" stroke="#3FC0F0" stroke-width="0.7087" stroke-linecap="round" stroke-linejoin="round" stroke-miterlimit="10" points="
		728.881,253.092 728.881,287.453 728.951,288.176 729.168,288.574 729.531,288.896 730.322,289.256 730.826,289.417 
		730.826,289.936 730.826,291.059 730.826,291.778 730.179,291.778 717.188,291.778 716.541,291.778 716.541,291.059 
		716.541,289.936 716.541,289.417 716.969,289.256 717.763,288.896 718.196,288.574 718.343,288.176 718.486,287.453 
		718.486,253.092 706.217,253.092 705.569,253.171 705.279,253.373 705.209,253.373 704.919,253.811 704.919,253.811 
		704.629,254.735 704.559,255.256 704.052,255.256 703.044,255.256 702.391,255.256 702.391,254.533 702.391,242.598 
		702.391,241.879 703.044,241.879 704.052,241.879 704.485,241.879 704.629,242.398 704.992,243.28 705.279,243.723 
		705.569,243.922 705.569,243.922 706.217,244.001 741.077,244.001 741.725,243.922 741.725,243.922 742.085,243.723 
		742.372,243.28 742.372,243.28 742.665,242.398 742.806,241.879 743.313,241.879 744.32,241.879 744.974,241.879 744.974,242.598 
		744.974,254.533 744.974,255.256 744.32,255.256 743.313,255.256 742.806,255.256 742.665,254.735 742.372,253.811 
		742.372,253.811 742.085,253.373 742.085,253.373 741.725,253.171 741.077,253.092 728.881,253.092 	"/>
	
		<polyline fill="#FFFFFF" stroke="#FFFFFF" stroke-width="0.7087" stroke-linecap="round" stroke-linejoin="round" stroke-miterlimit="10" points="
		727.58,287.453 727.58,252.373 727.58,251.65 728.228,251.65 741.077,251.65 742.085,251.811 742.952,252.292 742.952,252.292 
		743.529,253.171 743.529,253.171 743.673,253.452 743.673,243.68 743.529,243.922 743.529,243.922 742.952,244.803 
		742.085,245.322 742.085,245.322 741.077,245.442 706.217,245.442 705.209,245.322 705.209,245.322 704.415,244.803 
		704.415,244.803 703.838,243.96 703.691,243.641 703.691,253.452 703.765,253.171 703.765,253.171 704.415,252.292 
		704.415,252.292 705.209,251.811 706.217,251.65 719.137,251.65 719.784,251.65 719.784,252.373 719.784,287.453 719.644,288.615 
		719.137,289.537 718.416,290.178 718.123,290.337 729.241,290.337 728.951,290.178 728.157,289.537 728.157,289.537 
		727.724,288.615 727.58,287.453 	"/>
	
		<polyline fill="#FFFFFF" stroke="#3FC0F0" stroke-width="0.7087" stroke-linecap="round" stroke-linejoin="round" stroke-miterlimit="10" points="
		781.706,279.884 763.665,279.884 760.993,286.053 760.633,287.132 760.633,287.132 760.486,287.853 760.779,288.615 
		762.074,289.256 762.581,289.376 762.581,289.936 762.581,291.059 762.581,291.778 761.934,291.778 748.146,291.778 
		747.499,291.778 747.499,291.059 747.499,289.936 747.499,289.376 748.003,289.256 748.94,288.896 748.94,288.936 749.521,288.453 
		750.095,287.615 750.815,286.053 750.889,286.053 766.19,250.49 766.694,249.087 766.841,248.084 766.551,247.203 766.551,247.203 
		765.54,246.523 765.106,246.365 765.106,245.844 765.106,244.722 765.106,244.001 765.757,244.001 780.552,244.001 
		781.202,244.001 781.202,244.722 781.202,245.844 781.202,246.403 780.695,246.563 779.614,247.125 779.395,247.845 
		779.468,248.724 779.468,248.724 779.904,249.767 779.904,249.767 795.78,285.412 796.645,287.254 797.368,288.333 
		797.368,288.333 798.092,288.896 799.1,289.256 799.604,289.338 799.604,289.936 799.604,291.059 799.604,291.778 798.953,291.778 
		783.581,291.778 782.934,291.778 782.934,291.059 782.934,289.936 782.934,289.338 783.511,289.218 784.665,288.695 
		784.955,287.853 784.809,287.173 784.809,287.173 784.375,286.053 784.375,286.053 781.706,279.884 	"/>
	
		<polyline fill="#FFFFFF" stroke="#FFFFFF" stroke-width="0.7087" stroke-linecap="round" stroke-linejoin="round" stroke-miterlimit="10" points="
		763.302,278.442 782.066,278.442 782.5,278.442 782.644,278.841 785.603,285.412 785.603,285.412 786.036,286.73 786.036,286.73 
		786.25,287.853 785.529,289.733 784.735,290.337 797.872,290.337 797.582,290.178 796.501,289.376 796.501,289.376 
		795.561,288.055 794.553,286.053 778.747,250.408 778.24,249.087 778.24,249.087 778.1,247.845 778.747,246.123 779.614,245.442 
		766.621,245.442 767.562,246.283 767.562,246.283 768.139,248.084 767.922,249.49 767.345,251.131 752.043,286.654 
		752.043,286.654 751.249,288.375 750.455,289.537 749.447,290.217 749.447,290.217 749.23,290.337 760.92,290.337 759.912,289.657 
		759.191,287.853 759.405,286.73 759.405,286.73 759.839,285.412 759.839,285.412 762.728,278.883 762.868,278.442 763.302,278.442 
			"/>
	
		<polyline fill="#FFFFFF" stroke="#3FC0F0" stroke-width="0.7087" stroke-linecap="round" stroke-linejoin="round" stroke-miterlimit="10" points="
		778.46,272.155 772.759,258.258 766.981,272.155 778.46,272.155 	"/>
	
		<polyline fill="#454545" stroke="#FFFFFF" stroke-width="0.7087" stroke-linecap="round" stroke-linejoin="round" stroke-miterlimit="10" points="
		773.406,256.218 780.048,272.557 780.479,273.597 779.468,273.597 765.974,273.597 764.963,273.597 765.396,272.557 
		772.179,256.218 772.829,254.773 773.406,256.218 	"/>
	
		<polyline fill="#FFFFFF" stroke="#3FC0F0" stroke-width="0.7087" stroke-linecap="round" stroke-linejoin="round" stroke-miterlimit="10" points="
		822.118,282.686 847.088,282.686 847.741,282.608 848.102,282.409 848.102,282.409 848.389,281.967 848.676,281.088 
		848.822,280.525 849.329,280.525 850.337,280.525 850.987,280.525 850.987,281.246 850.987,293.22 850.987,293.941 
		850.337,293.941 849.329,293.941 848.822,293.941 848.676,293.381 848.389,292.54 848.102,292.059 848.102,292.059 
		847.741,291.857 847.088,291.778 810.432,291.778 809.778,291.778 809.778,291.059 809.778,289.936 809.778,289.417 
		810.212,289.256 811.006,288.896 811.439,288.574 811.586,288.176 811.727,287.453 811.727,248.326 811.586,247.604 
		811.439,247.203 811.006,246.884 810.212,246.563 809.778,246.403 809.778,245.844 809.778,244.722 809.778,244.001 
		810.432,244.001 823.419,244.001 824.069,244.001 824.069,244.722 824.069,245.844 824.069,246.403 823.565,246.563 
		822.771,246.846 822.771,246.846 822.408,247.165 822.408,247.165 822.191,247.604 822.191,247.604 822.118,248.326 
		822.118,282.686 	"/>
	
		<polyline fill="#FFFFFF" stroke="#FFFFFF" stroke-width="0.7087" stroke-linecap="round" stroke-linejoin="round" stroke-miterlimit="10" points="
		847.088,284.131 821.471,284.131 820.823,284.131 820.823,283.408 820.823,248.326 820.967,247.203 820.967,247.203 
		821.397,246.244 821.397,246.244 822.191,245.564 822.191,245.564 822.408,245.442 811.366,245.442 811.586,245.601 
		812.38,246.244 812.38,246.244 812.881,247.203 813.027,248.326 813.027,287.453 812.881,288.615 812.38,289.537 811.656,290.178 
		811.366,290.337 847.088,290.337 848.102,290.498 848.969,290.976 849.543,291.857 849.689,292.139 849.689,282.327 
		849.543,282.608 848.969,283.49 848.102,283.968 847.088,284.131 	"/>
	
		<polyline fill="#FFFFFF" stroke="#FFFFFF" stroke-width="0.5102" stroke-linecap="round" stroke-linejoin="round" stroke-miterlimit="10" points="
		290.348,327.462 275.771,326.419 261.626,323.296 248.096,318.172 235.322,311.123 223.449,302.311 212.696,291.898 
		203.132,279.884 195.015,266.389 188.555,251.85 183.974,236.671 181.193,221.094 180.257,205.314 181.193,189.535 
		183.974,173.955 188.555,158.776 195.015,144.239 203.132,130.745 212.696,118.728 223.449,108.274 235.322,99.504 248.096,92.498 
		261.626,87.373 275.771,84.207 290.348,83.126 290.348,98.744 277.646,99.666 265.306,102.43 253.509,106.915 242.356,113.041 
		232,120.692 222.62,129.784 214.284,140.275 207.21,152.051 201.582,164.705 197.54,177.96 195.161,191.536 194.328,205.314 
		195.161,219.09 197.54,232.666 201.582,245.923 207.21,258.579 214.284,270.354 222.62,280.845 232,289.936 242.356,297.585 
		253.509,303.754 265.306,308.158 277.646,310.962 290.348,311.844 290.348,327.462 	"/>
	<g id="SPLINE_67_">
		<polyline fill="#FFFFFF" stroke="#FFFFFF" stroke-miterlimit="10" points="180.257,327.541 180.257,107.155 180.257,83.044 
			170.333,83.044 12.105,327.541 29.426,327.541 166.22,116.207 166.22,327.541 180.257,327.541 		"/>
	</g>
	
		<path fill="#FFFFFF" stroke="#FDFDFD" stroke-width="0.5102" stroke-linecap="round" stroke-linejoin="round" stroke-miterlimit="10" d="
		M144.677,209.88h188.975c0,0,0,0,0,142.01c-14.577,0-14.577,0-14.577,0v-125.79c0,0,0,0-19.991,0c-154.407,0-154.407,0-154.407,0
		V209.88z"/>
</g>
</svg>
