<?xml version="1.0" encoding="utf-8"?>
<!-- Generator: Adobe Illustrator 16.0.0, SVG Export Plug-In . SVG Version: 6.00 Build 0)  -->
<!DOCTYPE svg PUBLIC "-//W3C//DTD SVG 1.1//EN" "http://www.w3.org/Graphics/SVG/1.1/DTD/svg11.dtd">
<svg version="1.1" id="Capa_1" xmlns="http://www.w3.org/2000/svg" xmlns:xlink="http://www.w3.org/1999/xlink" x="0px" y="0px"
	 width="58.777px" height="65.546px" viewBox="277.195 436.476 58.777 65.546"
	 enable-background="new 277.195 436.476 58.777 65.546" xml:space="preserve">
<g>
	<ellipse fill="#15ED0A" cx="306.583" cy="469.25" rx="29.388" ry="32.774"/>
	<g>
		<path fill="#FFFFFF" d="M315.865,447.031h-18.564c-1.777,0-3.211,1.544-3.211,3.442v40.374c0,1.896,1.434,3.437,3.211,3.437
			h18.564c1.772,0,3.211-1.541,3.211-3.437v-40.374C319.076,448.575,317.638,447.031,315.865,447.031z M302.002,449.123h9.164
			c0.231,0,0.422,0.369,0.422,0.829c0,0.457-0.19,0.829-0.422,0.829h-9.164c-0.233,0-0.417-0.372-0.417-0.829
			C301.584,449.492,301.769,449.123,302.002,449.123z M306.586,490.889c-1.131,0-2.051-0.987-2.051-2.197
			c0-1.213,0.92-2.194,2.051-2.194c1.126,0,2.046,0.981,2.046,2.194C308.632,489.901,307.712,490.889,306.586,490.889z
			 M316.671,483.365h-20.174v-30.524h20.174V483.365L316.671,483.365z"/>
	</g>
</g>
</svg>
