<?xml version="1.0" encoding="utf-8"?>
<!-- Generator: Adobe Illustrator 16.0.0, SVG Export Plug-In . SVG Version: 6.00 Build 0)  -->
<!DOCTYPE svg PUBLIC "-//W3C//DTD SVG 1.1//EN" "http://www.w3.org/Graphics/SVG/1.1/DTD/svg11.dtd">
<svg version="1.1" id="Layer_1" xmlns="http://www.w3.org/2000/svg" xmlns:xlink="http://www.w3.org/1999/xlink" x="0px" y="0px"
	 width="595.764px" height="216px" viewBox="0 0 595.764 216" enable-background="new 0 0 595.764 216" xml:space="preserve">
<g id="SPLINE">
	
		<polyline fill="#1AC5FF" stroke="#1AC5FF" stroke-width="0.7087" stroke-linecap="round" stroke-linejoin="round" stroke-miterlimit="10" points="
		281.318,99.55 264.6,99.55 262.122,105.265 262.122,105.265 261.738,106.306 261.641,107.025 261.953,107.826 263.181,108.466 
		263.518,108.548 263.518,108.921 263.518,109.937 263.518,110.442 263.084,110.442 250.432,110.442 249.997,110.442 
		249.997,109.937 249.997,108.921 249.997,108.548 250.335,108.466 251.248,108.147 251.851,107.72 252.404,106.892 
		252.404,106.892 253.102,105.45 253.102,105.425 267.15,72.824 267.631,71.489 267.631,71.489 267.774,70.556 267.488,69.647 
		267.488,69.62 266.452,68.952 266.163,68.848 266.163,68.499 266.163,67.484 266.163,67.003 266.598,67.003 280.14,67.003 
		280.598,67.003 280.598,67.484 280.598,68.499 280.598,68.872 280.26,68.952 279.226,69.566 279.226,69.566 278.937,70.341 
		279.057,71.169 279.418,72.156 279.418,72.156 293.947,104.863 294.814,106.572 295.486,107.587 295.486,107.587 296.21,108.122 
		297.172,108.466 297.51,108.548 297.51,108.921 297.51,109.937 297.51,110.442 297.075,110.442 282.955,110.442 282.523,110.442 
		282.523,109.937 282.523,108.921 282.523,108.521 282.883,108.466 284.062,107.934 284.374,106.999 284.254,106.331 
		283.846,105.265 283.846,105.265 281.318,99.55 	"/>
</g>
<g id="SPLINE_1_">
	
		<polyline fill="#1AC5FF" stroke="#1AC5FF" stroke-width="0.7087" stroke-linecap="round" stroke-linejoin="round" stroke-miterlimit="10" points="
		264.334,98.589 281.584,98.589 281.848,98.589 281.969,98.855 284.639,104.837 284.639,104.837 285.073,106.038 285.239,106.999 
		284.639,108.628 283.387,109.321 283.387,109.456 296.643,109.456 296.643,109.321 295.824,108.976 294.911,108.28 
		294.911,108.253 294.093,107.079 293.18,105.29 278.625,72.583 278.625,72.583 278.217,71.436 278.07,70.341 278.599,68.872 
		278.599,68.872 279.707,68.151 279.707,67.966 267.03,67.966 267.03,68.151 268.137,69.007 268.137,69.007 268.641,70.556 
		268.472,71.782 268.472,71.782 267.943,73.253 253.871,105.852 253.871,105.852 253.15,107.399 253.15,107.399 252.452,108.415 
		251.611,109.027 250.864,109.321 250.864,109.456 262.651,109.456 262.651,109.296 261.375,108.548 260.774,107.025 
		260.92,106.038 261.352,104.863 261.352,104.837 263.951,98.855 264.071,98.589 264.334,98.589 	"/>
</g>
<g id="SPLINE_2_">
	
		<polyline fill="none" stroke="#1AC5FF" stroke-width="0.7087" stroke-linecap="round" stroke-linejoin="round" stroke-miterlimit="10" points="
		278.528,92.796 273.042,79.419 267.488,92.796 278.528,92.796 	"/>
</g>
<g id="SPLINE_3_">
	
		<polyline fill="none" stroke="#1AC5FF" stroke-width="0.7087" stroke-linecap="round" stroke-linejoin="round" stroke-miterlimit="10" points="
		273.452,78.085 279.587,93.063 279.876,93.757 279.201,93.757 266.812,93.757 266.114,93.757 266.403,93.063 272.659,78.058 
		273.068,77.122 273.452,78.085 	"/>
</g>
<g id="SPLINE_4_">
	
		<polyline fill="#1AC5FF" stroke="#1AC5FF" stroke-width="0.7087" stroke-linecap="round" stroke-linejoin="round" stroke-miterlimit="10" points="
		310.979,102.46 334.025,102.46 334.651,102.38 334.651,102.38 335.035,102.141 335.035,102.141 335.373,101.686 335.662,100.858 
		335.71,100.483 336.046,100.483 336.961,100.483 337.394,100.483 337.394,100.964 337.394,111.913 337.394,112.394 
		336.961,112.394 336.046,112.394 335.71,112.394 335.662,112.046 335.373,111.218 335.035,110.736 335.035,110.736 
		334.651,110.523 334.651,110.523 334.025,110.442 300.395,110.442 299.962,110.442 299.962,109.937 299.962,108.921 
		299.962,108.574 300.251,108.466 301.021,108.147 301.453,107.8 301.453,107.8 301.646,107.372 301.742,106.651 301.742,70.769 
		301.646,70.048 301.453,69.62 301.453,69.62 301.021,69.273 301.021,69.273 300.251,68.952 299.962,68.872 299.962,68.499 
		299.962,67.484 299.962,67.003 300.395,67.003 312.327,67.003 312.76,67.003 312.76,67.484 312.76,68.499 312.76,68.872 
		312.422,68.952 311.655,69.273 311.269,69.593 311.269,69.593 311.028,70.048 311.028,70.048 310.979,70.769 310.979,102.46 	"/>
</g>
<g id="SPLINE_5_">
	
		<polyline fill="#1AC5FF" stroke="#1AC5FF" stroke-width="0.7087" stroke-linecap="round" stroke-linejoin="round" stroke-miterlimit="10" points="
		334.025,103.421 310.548,103.421 310.115,103.421 310.115,102.941 310.115,70.769 310.21,69.78 310.21,69.78 310.596,68.98 
		310.596,68.98 311.269,68.394 311.896,68.126 311.896,67.966 300.829,67.966 300.829,68.126 301.404,68.419 301.404,68.419 
		302.08,68.98 302.08,68.98 302.464,69.78 302.609,70.769 302.609,106.651 302.464,107.641 302.08,108.441 302.08,108.441 
		301.404,109.001 300.829,109.296 300.829,109.456 334.025,109.456 334.892,109.589 334.892,109.589 335.613,110.016 
		335.613,110.016 336.143,110.765 336.383,111.432 336.528,111.432 336.528,101.445 336.383,101.445 336.143,102.112 
		335.613,102.861 335.613,102.861 334.892,103.288 334.892,103.288 334.025,103.421 	"/>
</g>
<g id="SPLINE_6_">
	
		<polyline fill="#1AC5FF" stroke="#1AC5FF" stroke-width="0.7087" stroke-linecap="round" stroke-linejoin="round" stroke-miterlimit="10" points="
		361.354,66.229 366.213,66.604 370.494,67.751 374.295,69.675 377.52,72.369 377.52,72.369 380.31,75.815 382.281,79.739 
		383.486,84.117 383.87,88.978 383.1,95.011 380.839,100.645 377.374,105.265 372.995,108.548 367.655,110.523 361.448,111.191 
		356.638,110.816 352.356,109.669 348.604,107.747 345.332,105.05 342.493,101.445 340.473,97.2 339.367,93.063 338.981,88.683 
		339.751,82.462 342.012,76.775 342.012,76.775 345.38,72.21 349.759,68.952 355.098,66.95 361.354,66.229 361.354,66.229 	"/>
</g>
<g id="SPLINE_7_">
	
		<polyline fill="#1AC5FF" stroke="#1AC5FF" stroke-width="0.7087" stroke-linecap="round" stroke-linejoin="round" stroke-miterlimit="10" points="
		370.205,68.658 366.067,67.565 361.354,67.191 361.354,67.191 355.29,67.884 350.145,69.807 345.958,72.931 342.733,77.257 
		342.733,77.257 340.618,82.702 339.895,88.683 340.232,92.874 341.291,96.826 343.214,100.911 345.909,104.356 349.037,106.919 
		352.646,108.761 356.783,109.856 361.448,110.229 367.464,109.589 372.611,107.693 376.798,104.542 380.118,100.11 382.281,94.744 
		383.003,88.978 382.619,84.306 381.512,80.112 379.589,76.376 376.941,73.064 376.941,73.064 373.813,70.501 370.205,68.658 	"/>
</g>
<g id="SPLINE_8_">
	
		<polyline fill="#1AC5FF" stroke="#1AC5FF" stroke-width="0.7087" stroke-linecap="round" stroke-linejoin="round" stroke-miterlimit="10" points="
		361.402,74.399 356.495,75.28 352.549,77.897 352.549,77.897 350.72,80.112 349.421,82.649 348.604,85.507 348.362,88.71 
		348.604,91.915 349.421,94.771 350.72,97.308 352.549,99.55 352.549,99.55 356.543,102.167 361.448,103.048 366.356,102.167 
		370.351,99.55 372.18,97.227 373.525,94.451 374.295,91.727 374.535,88.898 374.248,85.587 373.479,82.649 372.18,80.087 
		370.351,77.897 370.351,77.897 366.307,75.308 361.402,74.399 361.402,74.399 	"/>
</g>
<g id="SPLINE_9_">
	
		<polyline fill="#1AC5FF" stroke="#1AC5FF" stroke-width="0.7087" stroke-linecap="round" stroke-linejoin="round" stroke-miterlimit="10" points="
		356.206,74.374 361.402,73.411 361.402,73.438 366.597,74.399 370.927,77.149 370.927,77.149 372.853,79.499 374.248,82.249 
		375.113,85.372 375.402,88.898 375.113,91.915 374.344,94.824 372.9,97.788 370.927,100.271 366.646,103.074 361.448,104.009 
		356.254,103.074 351.971,100.271 351.971,100.271 349.999,97.896 348.604,95.171 347.786,92.101 347.498,88.71 347.786,85.318 
		348.604,82.274 349.999,79.552 351.971,77.177 351.971,77.177 356.206,74.374 	"/>
</g>
<g id="SPLINE_10_">
	
		<polyline fill="#1AC5FF" stroke="#1AC5FF" stroke-width="0.7087" stroke-linecap="round" stroke-linejoin="round" stroke-miterlimit="10" points="
		400.035,91.78 400.035,102.46 424.141,102.46 424.766,102.38 424.766,102.38 425.149,102.141 425.149,102.141 425.438,101.686 
		425.438,101.686 425.728,100.858 425.824,100.483 426.16,100.483 427.075,100.483 427.508,100.483 427.508,100.964 
		427.508,111.913 427.508,112.394 427.075,112.394 426.16,112.394 425.824,112.394 425.728,112.046 425.438,111.218 
		425.438,111.218 425.149,110.736 425.149,110.736 424.766,110.523 424.766,110.523 424.141,110.442 389.45,110.442 
		389.018,110.442 389.018,109.937 389.018,108.921 389.018,108.574 389.307,108.466 390.076,108.147 390.509,107.8 390.509,107.8 
		390.701,107.372 390.798,106.651 390.798,70.769 390.701,70.048 390.509,69.62 390.509,69.62 390.076,69.273 390.076,69.273 
		389.307,68.952 389.018,68.872 389.018,68.499 389.018,67.484 389.018,67.003 389.45,67.003 423.467,67.003 424.091,66.896 
		424.091,66.896 424.477,66.685 424.477,66.685 424.766,66.204 424.766,66.204 425.055,65.376 425.149,65.027 425.487,65.027 
		426.4,65.027 426.835,65.027 426.835,65.509 426.835,76.456 426.835,76.937 426.4,76.937 425.487,76.937 425.149,76.937 
		425.055,76.589 424.766,75.761 424.766,75.761 424.477,75.28 424.477,75.28 424.091,75.04 424.091,75.04 423.467,74.96 
		400.035,74.96 400.035,84.065 415.094,84.065 415.672,83.983 415.672,83.983 416.057,83.744 416.057,83.744 416.393,83.29 
		416.682,82.437 416.779,82.089 417.114,82.089 418.029,82.089 418.462,82.089 418.462,82.569 418.462,93.275 418.462,93.757 
		418.029,93.757 417.114,93.757 416.779,93.757 416.682,93.382 416.393,92.581 416.057,92.101 416.057,92.101 415.672,91.86 
		415.094,91.78 400.035,91.78 	"/>
</g>
<g id="SPLINE_11_">
	
		<polyline fill="#1AC5FF" stroke="#1AC5FF" stroke-width="0.7087" stroke-linecap="round" stroke-linejoin="round" stroke-miterlimit="10" points="
		399.169,102.941 399.169,91.3 399.169,90.818 399.604,90.818 415.094,90.818 415.961,90.952 416.634,91.38 416.634,91.38 
		417.163,92.128 417.403,92.796 417.598,92.796 417.598,83.05 417.403,83.05 417.163,83.718 416.634,84.464 416.634,84.464 
		415.961,84.892 415.961,84.892 415.094,85.025 399.604,85.025 399.169,85.025 399.169,84.544 399.169,74.479 399.169,73.999 
		399.604,73.999 423.467,73.999 424.331,74.132 424.331,74.132 425.006,74.56 425.055,74.56 425.536,75.308 425.536,75.308 
		425.776,75.975 425.968,75.975 425.968,65.989 425.776,65.989 425.536,66.656 425.536,66.656 425.055,67.404 425.006,67.404 
		424.331,67.833 424.331,67.833 423.467,67.966 389.885,67.966 389.885,68.126 390.46,68.419 390.46,68.419 391.136,68.98 
		391.136,68.98 391.52,69.78 391.665,70.769 391.665,106.651 391.52,107.641 391.136,108.441 391.136,108.441 390.509,109.001 
		389.885,109.296 389.885,109.456 424.141,109.456 425.006,109.589 425.006,109.589 425.728,110.016 425.728,110.016 
		426.208,110.765 426.208,110.765 426.497,111.432 426.641,111.432 426.641,101.445 426.497,101.445 426.208,102.112 
		426.208,102.141 425.728,102.861 425.728,102.861 425.006,103.288 425.006,103.288 424.141,103.421 399.604,103.421 
		399.169,103.421 399.169,102.941 	"/>
</g>
<g id="SPLINE_12_">
	
		<polyline fill="#1AC5FF" stroke="#1AC5FF" stroke-width="0.7087" stroke-linecap="round" stroke-linejoin="round" stroke-miterlimit="10" points="
		442.854,82.063 442.854,106.651 442.952,107.372 443.144,107.8 443.144,107.8 443.576,108.147 444.346,108.466 444.635,108.574 
		444.635,108.921 444.635,109.937 444.635,110.442 444.203,110.442 433.039,110.442 432.607,110.442 432.607,109.937 
		432.607,108.921 432.607,108.574 432.896,108.466 433.666,108.147 434.098,107.8 434.098,107.8 434.292,107.372 434.387,106.651 
		434.387,70.74 434.292,70.048 434.292,70.048 434.098,69.62 434.098,69.62 433.666,69.273 433.666,69.273 432.944,68.952 
		432.607,68.872 432.607,68.499 432.607,67.484 432.607,67.003 433.039,67.003 446.031,67.003 446.464,67.003 446.464,67.484 
		446.464,68.499 446.464,68.872 446.126,68.952 445.404,69.354 445.404,69.354 445.262,69.94 445.404,70.476 445.886,71.249 
		466.335,94.718 466.335,70.74 466.237,70.048 466.237,70.048 466.046,69.62 466.046,69.62 465.613,69.273 464.891,68.952 
		464.555,68.872 464.555,68.499 464.555,67.484 464.555,67.003 464.987,67.003 476.196,67.003 476.631,67.003 476.631,67.484 
		476.631,68.499 476.631,68.872 476.294,68.952 475.523,69.273 475.138,69.62 475.138,69.62 474.897,70.048 474.897,70.048 
		474.851,70.74 474.851,106.651 474.897,107.372 475.138,107.8 475.138,107.8 475.523,108.147 476.294,108.466 476.631,108.574 
		476.631,108.921 476.631,109.937 476.631,110.442 476.196,110.442 464.169,110.442 463.736,110.442 463.736,109.937 
		463.736,108.921 463.736,108.548 464.074,108.466 464.698,108.122 464.891,107.587 464.649,107.025 463.641,105.744 
		442.854,82.063 	"/>
</g>
<g id="SPLINE_13_">
	
		<polyline fill="#1AC5FF" stroke="#1AC5FF" stroke-width="0.7087" stroke-linecap="round" stroke-linejoin="round" stroke-miterlimit="10" points="
		441.99,106.651 441.99,80.861 441.99,79.686 442.76,80.54 464.266,105.077 465.324,106.464 465.757,107.587 465.324,108.788 
		464.601,109.296 464.601,109.456 475.764,109.456 475.764,109.296 475.138,109.001 474.465,108.441 474.465,108.441 
		474.079,107.641 473.984,106.651 473.984,70.74 474.079,69.78 474.079,69.78 474.465,68.98 474.465,68.98 475.138,68.419 
		475.764,68.126 475.764,67.966 465.419,67.966 465.419,68.126 466.046,68.419 466.719,68.98 466.719,68.98 467.104,69.78 
		467.104,69.78 467.199,70.74 467.199,95.919 467.199,97.095 466.479,96.239 445.262,71.917 445.262,71.917 444.635,70.929 
		444.395,69.94 444.78,68.687 444.78,68.687 445.598,68.151 445.598,67.966 433.473,67.966 433.473,68.126 434.05,68.419 
		434.05,68.419 434.725,68.98 434.725,68.98 435.108,69.78 435.108,69.78 435.254,70.74 435.254,106.651 435.108,107.641 
		434.725,108.441 434.725,108.441 434.098,109.001 433.473,109.296 433.473,109.456 443.771,109.456 443.771,109.296 
		443.192,109.001 442.52,108.441 442.52,108.441 442.134,107.641 441.99,106.651 	"/>
</g>
<g id="SPLINE_14_">
	
		<path fill="#1AC5FF" stroke="#1AC5FF" stroke-width="0.7087" stroke-linecap="round" stroke-linejoin="round" stroke-miterlimit="10" d="
		M516.42,95.145h-9.046c0,0-0.24,0-0.435,0.026c-0.191,0.08-0.191,0.08-0.335,0.106c-0.24,0.188-0.339,0.293-0.437,0.455
		c-0.095,0.187-0.095,0.187-0.19,0.427c-0.097,0.266-0.191,0.613-0.191,0.613l-0.097,0.347c0,0,0,0-0.336,0
		c-0.915,0-0.915,0-0.915,0h-0.435c0,0,0,0,0-0.479c0-9.877,0-9.877,0-9.877v-0.481c0,0,0,0,0.435,0c0.915,0,0.915,0,0.915,0h0.336
		c0,0,0,0,0.097,0.374c0,0,0,0,0.097,0.348c0.097,0.293,0.192,0.506,0.192,0.506c0.095,0.215,0.19,0.375,0.289,0.453
		c0.24,0.162,0.384,0.215,0.384,0.215c0.146,0.055,0.386,0.08,0.626,0.08c0,0,0,0,18.138,0c0.435,0,0.435,0,0.435,0v0.48
		c0,0,0,0,0,1.016c0,0.375,0,0.375,0,0.375l-0.335,0.105c0,0-0.289,0.08-0.53,0.188c-0.386,0.24-0.529,0.349-0.626,0.455
		c-0.192,0.268-0.24,0.455-0.24,0.455c-0.049,0.187-0.049,0.426-0.049,0.721c0,0,0,0,0,8.703c0,0,0,0,0,0.269
		c0,0.24,0.049,0.427,0.049,0.427s0.048,0.186,0.146,0.32c0.286,0.347,0.479,0.455,0.479,0.455c0.192,0.132,0.481,0.238,0.771,0.318
		c0,0,0,0,0.335,0.107c0,0.348,0,0.348,0,0.348v0.772c0,0,0,0,0,0.293c-3.896,2.457-7.504,4.219-11.064,5.367
		c0,0-3.562,1.174-7.022,1.763c-3.467,0-3.467,0-6.592,0c-2.84-0.4-5.438-1.229-5.438-1.229c-2.55-0.854-4.813-2.082-6.833-3.766
		c0,0,0,0-2.501-2.082c-1.878-2.535-3.128-5.445-3.128-5.445c-1.3-2.938-1.924-6.248-1.924-9.986c0,0,0-3.471,0.578-6.596
		c1.104-2.774,1.104-2.774,2.261-5.525c1.635-2.43,3.896-4.484,3.896-4.484c2.115-1.949,4.57-3.418,7.36-4.379
		c0,0,2.839-0.988,5.967-1.469c3.463,0,3.463,0,4.57,0c1.059,0.055,2.117,0.16,2.117,0.16c1.057,0.134,2.067,0.295,3.029,0.507
		c0,0,1.012,0.241,2.068,0.535c1.104,0.399,1.104,0.399,1.104,0.399c1.106,0.375,2.264,0.803,3.515,1.334c0,0,0,0,0.575,0.269
		c0.527,0.214,1.013,0.349,1.013,0.349c0.384,0.133,0.722,0.188,0.962,0.188c0,0,0.145,0,0.289-0.027
		c0.335-0.188,0.575-0.347,0.814-0.563c0.482-0.051,0.482-0.051,0.482-0.051l0.771,0.453c0,0,0,0,0.384,0.213
		c-0.191,0.428-0.191,0.428-0.191,0.428L518.533,80.6c0,0,0,0-0.191,0.453c-0.433-0.239-0.433-0.239-0.433-0.239l-0.818-0.454
		c-0.19-0.427-0.19-0.427-0.19-0.427c-0.049-0.321-0.049-0.563-0.099-0.803c0,0,0-0.187-0.049-0.349
		c-0.144-0.213-0.24-0.347-0.335-0.479c0,0-0.193-0.188-0.386-0.375c-0.241-0.187-0.241-0.187-0.241-0.187
		c-0.529-0.455-1.201-0.882-2.021-1.281c0,0-0.817-0.375-1.779-0.748c-1.061-0.319-1.061-0.319-2.166-0.668
		c-1.061-0.239-2.069-0.399-2.069-0.399s-1.01-0.16-2.021-0.239c-0.962,0-0.962,0-2.889,0c-1.778,0.293-3.415,0.908-3.415,0.908
		c-1.588,0.587-3.028,1.495-4.328,2.693c0,0-1.396,1.363-2.505,2.966c-0.722,1.788-0.722,1.788-1.44,3.604
		c-0.338,2.027-0.338,4.271-0.338,4.271c0,2.188,0.338,4.138,1.059,5.873c0,0,0.673,1.762,1.731,3.311
		c1.396,1.334,1.396,1.334,2.694,2.563c1.49,0.905,3.178,1.521,3.178,1.521c1.729,0.615,3.604,0.936,5.771,0.936
		c0,0,1.01,0,2.069-0.079c1.01-0.136,1.01-0.136,2.066-0.269c1.013-0.214,2.021-0.479,2.021-0.479s1.011-0.269,1.926-0.562
		c0.864-0.375,0.864-0.375,1.684-0.695c0.723-0.348,1.396-0.773,1.396-0.773L516.42,95.145L516.42,95.145z"/>
</g>
<g id="SPLINE_15_">
	
		<path fill="#1AC5FF" stroke="#1AC5FF" stroke-width="0.7087" stroke-linecap="round" stroke-linejoin="round" stroke-miterlimit="10" d="
		M507.374,94.184h9.479c0,0,0,0,0.432,0c0,0.479,0,0.479,0,0.479v5.82c0,0,0,0,0,0.268c-1.01,0.643-1.828,1.068-2.741,1.441
		c0,0-0.916,0.375-1.926,0.693c-1.01,0.294-1.01,0.294-1.01,0.294c-1.062,0.268-2.118,0.479-3.175,0.614
		c0,0-1.061,0.133-2.117,0.213c-1.061,0-1.061,0-3.271,0c-2.021-0.319-3.803-0.986-3.803-0.986
		c-1.827-0.643-3.415-1.629-4.763-2.938c0,0,0,0-1.539-1.442c-1.107-1.655-1.878-3.523-1.878-3.523
		c-0.723-1.868-1.104-3.979-1.104-6.274c0,0,0-2.377,0.384-4.538c0.771-1.923,0.771-1.923,1.539-3.871
		c1.156-1.685,2.696-3.152,2.696-3.152c1.345-1.28,2.885-2.271,4.569-2.909c0,0,1.73-0.642,3.607-0.962c2.021,0,2.021,0,3.03,0
		c1.01,0.107,2.117,0.269,2.117,0.269c1.06,0.187,2.114,0.428,3.271,0.773c0,0,1.107,0.348,2.069,0.721
		c0.864,0.399,0.864,0.399,1.729,0.828c0.771,0.455,1.351,0.961,1.351,0.961s0.288,0.24,0.479,0.453
		c0.191,0.188,0.191,0.188,0.385,0.401c0.146,0.214,0.241,0.399,0.241,0.399s0.098,0.188,0.192,0.453
		c0.049,0.293,0.049,0.293,0.095,0.481c0,0.214,0,0.454,0,0.454c0.242,0.133,0.242,0.133,4.332-9.186
		c-0.386,0.055-0.578,0.188-0.77,0.293c0,0,0,0-0.289,0.16c-0.289,0.053-0.529,0.053-0.529,0.053c-0.338,0-0.722-0.053-1.205-0.213
		c0,0-0.479-0.133-1.01-0.373c-0.673-0.268-0.673-0.268-1.875-0.801c-1.155-0.428-2.215-0.803-2.215-0.803s-1.104-0.374-2.114-0.667
		c-0.965-0.213-0.965-0.213-1.926-0.427c-1.013-0.188-2.021-0.293-2.021-0.293c-1.011-0.107-2.021-0.16-3.128-0.16
		c0,0-3.368,0-6.447,0.479c-2.691,0.936-2.691,0.936-5.389,1.871c-2.357,1.416-4.425,3.283-4.425,3.283
		c-2.117,1.948-3.705,4.244-4.766,6.887c0,0-1.06,2.646-1.589,5.635c0,3.338,0,3.338,0,6.916c0.578,3.203,1.78,5.98,1.78,5.98
		c1.204,2.803,2.984,5.18,5.389,7.208c0,0,0,0,1.928,1.575c2.163,1.202,4.616,2.002,4.616,2.002
		c2.503,0.802,5.243,1.202,8.322,1.202c0,0,3.368,0,6.785-0.562c3.463-1.147,3.463-1.147,6.88-2.271
		c3.511-1.683,7.024-3.897,7.024-3.897c0-0.134-0.24-0.213-0.437-0.32c-0.189-0.105-0.189-0.105-0.479-0.268
		c-0.24-0.186-0.384-0.398-0.384-0.398c-0.191-0.215-0.289-0.48-0.388-0.801c0,0,0,0-0.049-0.295
		c-0.046-0.32-0.046-0.668-0.046-0.668v-8.703c0,0,0-0.375,0.046-0.693c0.049-0.293,0.049-0.293,0.146-0.615
		c0.144-0.268,0.289-0.479,0.289-0.479s0.19-0.215,0.384-0.4c0.289-0.16,0.289-0.16,0.289-0.16c0.189-0.107,0.386-0.213,0.626-0.293
		c-17.705-0.188-17.705-0.188-17.705-0.188c-0.337,0-0.626-0.025-0.866-0.106c0,0-0.289-0.106-0.53-0.24
		c-0.384-0.347-0.529-0.614-0.672-0.907c0,0-0.098-0.213-0.191-0.453c-0.241-0.269-0.241,8.65-0.241,8.65
		c0.337-0.48,0.435-0.668,0.435-0.668c0.145-0.32,0.288-0.563,0.48-0.747c0.433-0.347,0.722-0.427,0.722-0.427
		C506.748,94.236,507.037,94.184,507.374,94.184z"/>
</g>
<g id="SPLINE_16_">
	
		<polyline fill="#1AC5FF" stroke="#1AC5FF" stroke-width="0.7087" stroke-linecap="round" stroke-linejoin="round" stroke-miterlimit="10" points="
		542.639,91.78 542.639,102.46 566.743,102.46 567.369,102.38 567.369,102.38 567.753,102.141 567.753,102.141 568.042,101.686 
		568.042,101.686 568.331,100.858 568.429,100.483 568.766,100.483 569.679,100.483 570.111,100.483 570.111,100.964 
		570.111,111.913 570.111,112.394 569.679,112.394 568.766,112.394 568.429,112.394 568.331,112.046 568.042,111.218 
		568.042,111.218 567.753,110.736 567.753,110.736 567.369,110.523 567.369,110.523 566.743,110.442 532.008,110.442 
		531.573,110.442 531.573,109.937 531.573,108.921 531.573,108.574 531.91,108.466 532.682,108.147 533.112,107.8 533.112,107.8 
		533.307,107.372 533.355,106.651 533.355,70.769 533.307,70.048 533.112,69.62 533.112,69.62 532.682,69.273 532.682,69.273 
		531.91,68.952 531.573,68.872 531.573,68.499 531.573,67.484 531.573,67.003 532.008,67.003 566.021,67.003 566.648,66.896 
		566.648,66.896 567.032,66.685 567.032,66.685 567.369,66.204 567.369,66.204 567.658,65.376 567.753,65.027 568.042,65.027 
		568.958,65.027 569.438,65.027 569.438,65.509 569.438,76.456 569.438,76.937 568.958,76.937 568.042,76.937 567.753,76.937 
		567.658,76.589 567.369,75.761 567.369,75.761 567.032,75.28 567.032,75.28 566.648,75.04 566.648,75.04 566.07,74.96 
		542.639,74.96 542.639,84.065 557.7,84.065 558.275,83.983 558.275,83.983 558.661,83.744 558.661,83.744 558.999,83.29 
		559.285,82.437 559.334,82.089 559.672,82.089 560.585,82.089 561.02,82.089 561.02,82.569 561.02,93.275 561.02,93.757 
		560.585,93.757 559.672,93.757 559.334,93.757 559.285,93.382 558.999,92.581 558.661,92.101 558.661,92.101 558.275,91.86 
		557.7,91.78 542.639,91.78 	"/>
</g>
<g id="SPLINE_17_">
	
		<polyline fill="#1AC5FF" stroke="#1AC5FF" stroke-width="0.7087" stroke-linecap="round" stroke-linejoin="round" stroke-miterlimit="10" points="
		541.774,102.941 541.774,91.3 541.774,90.818 542.207,90.818 557.7,90.818 558.564,90.952 559.239,91.38 559.239,91.38 
		559.769,92.128 560.009,92.796 560.152,92.796 560.152,83.05 560.009,83.05 559.769,83.718 559.239,84.464 559.239,84.464 
		558.564,84.892 558.564,84.892 557.7,85.025 542.207,85.025 541.774,85.025 541.774,84.544 541.774,74.479 541.774,73.999 
		542.207,73.999 566.07,73.999 566.938,74.132 566.938,74.132 567.61,74.56 567.61,74.56 568.141,75.308 568.141,75.308 
		568.38,75.975 568.523,75.975 568.523,65.989 568.38,65.989 568.141,66.656 568.141,66.656 567.61,67.404 567.61,67.404 
		566.938,67.833 566.938,67.833 566.021,67.966 532.488,67.966 532.488,68.126 533.066,68.419 533.066,68.419 533.739,68.98 
		533.739,68.98 534.123,69.78 534.22,70.769 534.22,106.651 534.123,107.641 533.739,108.441 533.739,108.441 533.066,109.001 
		532.488,109.296 532.488,109.456 566.743,109.456 567.61,109.589 567.61,109.589 568.331,110.016 568.283,110.016 568.813,110.765 
		568.813,110.765 569.053,111.432 569.247,111.432 569.247,101.445 569.053,101.445 568.813,102.112 568.813,102.141 
		568.283,102.861 568.331,102.861 567.61,103.288 567.61,103.288 566.743,103.421 542.207,103.421 541.774,103.421 541.774,102.941 
			"/>
</g>
<g id="SPLINE_18_">
	
		<polyline fill="#1AC5FF" stroke="#1AC5FF" stroke-width="0.7087" stroke-linecap="round" stroke-linejoin="round" stroke-miterlimit="10" points="
		281.584,99.068 264.334,99.068 261.738,105.05 261.209,107.025 263.084,108.921 263.084,109.937 250.432,109.937 250.432,108.921 
		252.138,108.067 253.486,105.639 267.559,73.038 268.209,70.556 266.598,68.499 266.598,67.484 280.14,67.484 280.14,68.499 
		278.505,70.341 279.035,72.369 293.563,105.077 295.2,107.934 297.075,108.921 297.075,109.937 282.955,109.937 282.955,108.921 
		284.807,106.999 284.254,105.05 281.584,99.068 	"/>
</g>
<g id="SPLINE_19_">
	<polyline fill="#FFFFFF" stroke="#00BBFF" stroke-miterlimit="10" points="279.201,93.275 273.068,78.271 266.812,93.275 
		279.201,93.275 	"/>
</g>
<g id="SPLINE_20_">
	
		<polyline fill="#1AC5FF" stroke="#1AC5FF" stroke-width="0.7087" stroke-linecap="round" stroke-linejoin="round" stroke-miterlimit="10" points="
		310.548,102.941 334.025,102.941 335.324,102.515 336.046,100.964 336.961,100.964 336.961,111.913 336.046,111.913 
		335.324,110.39 334.025,109.937 300.395,109.937 300.395,108.921 301.742,108.122 302.175,106.651 302.175,70.769 301.742,69.3 
		300.395,68.499 300.395,67.484 312.327,67.484 312.327,68.499 310.932,69.3 310.548,70.769 310.548,102.941 	"/>
</g>
<g id="SPLINE_21_">
	
		<polyline fill="#1AC5FF" stroke="#1AC5FF" stroke-width="0.7087" stroke-linecap="round" stroke-linejoin="round" stroke-miterlimit="10" points="
		361.354,66.71 366.116,67.083 370.351,68.206 374.055,70.102 377.23,72.718 379.973,76.083 381.897,79.927 383.052,84.226 
		383.438,88.978 382.716,94.878 380.453,100.378 377.085,104.89 372.804,108.122 367.561,110.069 361.448,110.71 356.735,110.337 
		352.5,109.216 348.797,107.318 345.62,104.704 342.879,101.179 340.858,97.015 339.8,92.954 339.462,88.683 340.184,82.598 
		342.398,77.017 345.669,72.583 349.95,69.38 355.195,67.432 361.354,66.71 	"/>
</g>
<g id="SPLINE_22_">
	<polyline fill="#FFFFFF" stroke="#00BBFF" stroke-miterlimit="10" points="361.402,73.919 356.348,74.8 352.26,77.523 
		350.385,79.819 348.988,82.462 348.219,85.427 347.93,88.71 348.219,91.994 348.988,94.984 350.385,97.602 352.26,99.897 
		356.397,102.62 361.448,103.528 366.502,102.62 370.641,99.897 372.516,97.521 373.96,94.639 374.682,91.807 374.97,88.898 
		374.682,85.48 373.862,82.437 372.516,79.794 370.641,77.523 366.453,74.854 361.402,73.919 	"/>
</g>
<g id="SPLINE_23_">
	
		<polyline fill="#1AC5FF" stroke="#1AC5FF" stroke-width="0.7087" stroke-linecap="round" stroke-linejoin="round" stroke-miterlimit="10" points="
		399.604,91.3 399.604,102.941 424.141,102.941 425.438,102.515 426.16,100.964 427.075,100.964 427.075,111.913 426.16,111.913 
		425.438,110.39 424.141,109.937 389.45,109.937 389.45,108.921 390.847,108.122 391.23,106.651 391.23,70.769 390.847,69.3 
		389.45,68.499 389.45,67.484 423.467,67.484 424.766,67.029 425.487,65.509 426.4,65.509 426.4,76.456 425.487,76.456 
		424.766,74.906 423.467,74.479 399.604,74.479 399.604,84.544 415.094,84.544 416.347,84.117 417.114,82.569 418.029,82.569 
		418.029,93.275 417.114,93.275 416.347,91.727 415.094,91.3 399.604,91.3 	"/>
</g>
<g id="SPLINE_24_">
	
		<path fill="#1AC5FF" stroke="#1AC5FF" stroke-width="0.7087" stroke-linecap="round" stroke-linejoin="round" stroke-miterlimit="10" d="
		M442.423,80.861v25.791c0,0,0,0.667,0.146,1.147c0.288,0.32,0.288,0.32,0.527,0.642c0.437,0.267,1.107,0.479,1.107,0.479v1.016
		c0,0,0,0-11.164,0c0-1.016,0-1.016,0-1.016c0.676-0.213,1.107-0.479,1.396-0.801c0,0,0.238-0.32,0.387-0.802
		c0-0.667,0-0.667,0-0.667c0-35.911,0-35.911,0-35.911c0-0.639-0.146-1.12-0.387-1.44c0,0-0.289-0.319-0.723-0.612
		c-0.676-0.188-0.676-0.188-0.676-0.188c0-1.014,0-1.014,0-1.014h12.992c0,0,0,0,0,1.014c0,0,0,0-0.818,0.213
		c-0.386,0.481-0.386,1.229-0.386,1.229c0,0.479,0.242,1.017,0.771,1.629c0,0,0,0,21.17,24.349c0-25.178,0-25.178,0-25.178
		c0-0.639-0.145-1.119-0.388-1.441c0,0-0.239-0.318-0.721-0.611c-0.673-0.188-0.673-0.188-0.673-0.188c0-1.015,0-1.015,0-1.015
		h11.209c0,0,0,0,0,1.015c0,0,0,0-0.673,0.188c-0.48,0.293-0.723,0.611-0.723,0.611c-0.289,0.322-0.387,0.804-0.387,1.441
		c0,0,0,0,0,35.911c0,0,0,0,0,0.667c0.098,0.48,0.387,0.803,0.387,0.803c0.24,0.319,0.723,0.586,1.396,0.801c0,0,0,0,0,1.015
		c-12.027,0-12.027,0-12.027,0v-1.015c0,0,0.771-0.188,1.155-0.642c0-0.694,0-0.694,0-1.095c-0.482-0.723-1.348-1.762-1.348-1.762
		L442.423,80.861z"/>
</g>
<g id="SPLINE_25_">
	
		<polyline fill="#1AC5FF" stroke="#1AC5FF" stroke-width="0.7087" stroke-linecap="round" stroke-linejoin="round" stroke-miterlimit="10" points="
		516.853,94.663 507.374,94.663 506.075,95.091 505.354,96.64 504.438,96.64 504.438,86.761 505.354,86.761 506.075,88.337 
		507.374,88.736 525.512,88.736 525.512,89.753 524.118,90.579 523.731,92.048 523.731,100.751 524.118,102.192 525.512,102.994 
		525.512,103.769 520.074,106.813 514.783,108.976 509.538,110.283 504.391,110.71 499.965,110.417 495.971,109.482 492.411,107.96 
		489.283,105.823 486.061,102.435 483.751,98.456 482.354,93.862 481.874,88.683 482.307,83.852 483.511,79.525 485.58,75.734 
		488.465,72.449 491.833,69.94 495.682,68.151 500.061,67.058 504.968,66.71 511.126,67.378 517.717,69.62 520.461,70.447 
		521.807,69.755 522.625,70.208 518.151,80.38 517.333,79.927 517.044,78.458 516.034,77.337 511.029,74.906 504.776,73.919 
		499.29,74.854 494.865,77.63 491.498,82.569 490.391,88.845 491.498,94.931 494.72,99.71 499.339,102.567 505.257,103.528 
		511.512,102.699 516.853,100.483 516.853,94.663 	"/>
</g>
<g id="SPLINE_26_">
	
		<polyline fill="#1AC5FF" stroke="#1AC5FF" stroke-width="0.7087" stroke-linecap="round" stroke-linejoin="round" stroke-miterlimit="10" points="
		542.207,91.3 542.207,102.941 566.743,102.941 568.042,102.515 568.766,100.964 569.679,100.964 569.679,111.913 568.766,111.913 
		568.042,110.39 566.743,109.937 532.008,109.937 532.008,108.921 533.401,108.122 533.788,106.651 533.788,70.769 533.401,69.3 
		532.008,68.499 532.008,67.484 566.021,67.484 567.321,67.029 568.042,65.509 568.958,65.509 568.958,76.456 568.042,76.456 
		567.321,74.906 566.07,74.479 542.207,74.479 542.207,84.544 557.7,84.544 558.95,84.117 559.672,82.569 560.585,82.569 
		560.585,93.275 559.672,93.275 558.95,91.727 557.7,91.3 542.207,91.3 	"/>
</g>
<g id="SPLINE_27_">
	
		<polyline fill="#1AC5FF" stroke="#1AC5FF" stroke-width="0.7087" stroke-linecap="round" stroke-linejoin="round" stroke-miterlimit="10" points="
		273.091,149.13 260.534,149.13 258.659,153.509 258.25,154.923 259.621,156.312 259.621,157.061 250.432,157.061 250.432,156.312 
		251.682,155.698 252.644,153.937 262.869,130.228 263.373,128.41 262.171,126.917 262.171,126.169 272.032,126.169 
		272.032,126.917 270.83,128.251 271.216,129.747 281.799,153.509 282.978,155.591 284.349,156.312 284.349,157.061 
		274.078,157.061 274.078,156.312 275.426,154.923 275.015,153.509 273.091,149.13 	"/>
</g>
<g id="SPLINE_28_">
	
		<polyline fill="#1AC5FF" stroke="#1AC5FF" stroke-width="0.7087" stroke-linecap="round" stroke-linejoin="round" stroke-miterlimit="10" points="
		271.336,144.939 266.884,134.019 262.339,144.939 271.336,144.939 	"/>
</g>
<g id="SPLINE_29_">
	
		<polyline fill="#1AC5FF" stroke="#1AC5FF" stroke-width="0.7087" stroke-linecap="round" stroke-linejoin="round" stroke-miterlimit="10" points="
		309.057,157.061 298.809,135.727 298.809,154.656 299.096,155.725 300.105,156.312 300.105,157.061 291.976,157.061 
		291.976,156.312 292.985,155.725 293.274,154.656 293.274,128.544 292.985,127.505 291.976,126.917 291.976,126.169 
		302.657,126.169 302.657,126.917 301.693,128.171 301.982,129.212 309.537,145.099 317.187,129.48 317.716,127.958 
		316.706,126.917 316.706,126.169 327.194,126.169 327.194,126.917 326.184,127.505 325.895,128.544 325.895,154.656 
		326.184,155.725 327.194,156.312 327.194,157.061 318.534,157.061 318.534,156.312 319.545,155.751 319.834,154.656 
		319.834,135.727 309.057,157.061 	"/>
</g>
<g id="SPLINE_30_">
	
		<polyline fill="none" stroke="#FFFFFF" stroke-width="0.7087" stroke-linecap="round" stroke-linejoin="round" stroke-miterlimit="10" points="
		362.267,140.88 365.781,143.684 366.935,148.169 366.262,151.934 364.192,154.79 361.017,156.524 356.495,157.061 337.49,157.061 
		337.49,156.312 338.5,155.725 338.789,154.656 338.789,128.572 338.5,127.505 337.49,126.917 337.49,126.169 356.303,126.169 
		360.679,126.622 363.566,128.171 365.395,130.788 366.021,134.365 365.057,138.236 362.267,140.88 	"/>
</g>
<g id="SPLINE_31_">
	
		<path fill="none" stroke="#FFFFFF" stroke-width="0.7087" stroke-linecap="round" stroke-linejoin="round" stroke-miterlimit="10" d="
		M344.851,138.451h10.68c0,0,1.589,0,2.696-0.268c0.672-0.535,0.672-0.535,1.396-1.122c0.336-0.936,0.336-2.189,0.336-2.189
		c0-1.308-0.336-2.216-1.011-2.775c0,0-0.673-0.533-1.828-0.827c-1.589,0-1.589,0-1.589,0c-10.68,0-10.68,0-10.68,0V138.451
		L344.851,138.451z"/>
</g>
<g id="SPLINE_32_">
	
		<path fill="none" stroke="#FFFFFF" stroke-width="0.7087" stroke-linecap="round" stroke-linejoin="round" stroke-miterlimit="10" d="
		M344.851,151.96h10.345c0,0,1.875,0,3.271-0.293c0.866-0.586,0.866-0.586,1.828-1.254c0.481-1.121,0.481-2.67,0.481-2.67
		c0-1.521-0.481-2.617-1.443-3.31c0,0-0.866-0.588-2.214-0.884c-1.924,0-1.924,0-1.924,0c-10.345,0-10.345,0-10.345,0
		L344.851,151.96L344.851,151.96z"/>
</g>
<g id="SPLINE_33_">
	
		<path fill="#1AC5FF" stroke="#1AC5FF" stroke-width="0.7087" stroke-linecap="round" stroke-linejoin="round" stroke-miterlimit="10" d="
		M377.614,154.656v-26.112c0,0,0-0.453-0.095-0.8c-0.191-0.239-0.191-0.239-0.388-0.479c-0.336-0.188-0.814-0.348-0.814-0.348
		v-0.748c0,0,0,0,8.66,0c0,0.748,0,0.748,0,0.748c-0.481,0.133-0.818,0.32-0.962,0.588c0,0-0.194,0.24-0.289,0.586
		c0,0.453,0,0.453,0,0.453c0,26.112,0,26.112,0,26.112c0,0.481,0.095,0.828,0.289,1.095c0,0,0.189,0.24,0.525,0.426
		c0.437,0.136,0.437,0.136,0.437,0.136c0,0.749,0,0.749,0,0.749h-8.66c0,0,0,0,0-0.749c0,0,0,0,0.479-0.16
		c0.336-0.187,0.53-0.427,0.53-0.427C377.52,155.484,377.614,155.139,377.614,154.656z"/>
</g>
<g id="SPLINE_34_">
	
		<polyline fill="#1AC5FF" stroke="#1AC5FF" stroke-width="0.7087" stroke-linecap="round" stroke-linejoin="round" stroke-miterlimit="10" points="
		402.585,143.497 402.585,151.96 420.437,151.96 421.35,151.641 421.879,150.519 422.552,150.519 422.552,158.501 421.879,158.501 
		421.35,157.38 420.437,157.061 395.225,157.061 395.225,156.312 396.235,155.725 396.476,154.656 396.476,128.572 396.235,127.505 
		395.225,126.917 395.225,126.169 419.953,126.169 420.868,125.876 421.397,124.753 422.07,124.753 422.07,132.71 421.397,132.71 
		420.868,131.589 419.953,131.27 402.585,131.27 402.585,138.583 413.843,138.583 414.807,138.265 415.288,137.143 415.961,137.143 
		415.961,144.939 415.288,144.939 414.807,143.816 413.843,143.497 402.585,143.497 	"/>
</g>
<g id="SPLINE_35_">
	
		<path fill="#1AC5FF" stroke="#1AC5FF" stroke-width="0.7087" stroke-linecap="round" stroke-linejoin="round" stroke-miterlimit="10" d="
		M438.957,135.915v18.742c0,0,0,0.481,0.098,0.828c0.191,0.24,0.191,0.24,0.388,0.48c0.335,0.187,0.814,0.347,0.814,0.347v0.749
		c0,0,0,0-8.131,0c0-0.749,0-0.749,0-0.749c0.481-0.16,0.818-0.347,1.011-0.587c0,0,0.191-0.24,0.289-0.587c0-0.481,0-0.481,0-0.481
		c0-26.111,0-26.111,0-26.111c0-0.453-0.098-0.801-0.289-1.041c0,0-0.19-0.239-0.527-0.427c-0.481-0.159-0.481-0.159-0.481-0.159
		c0-0.748,0-0.748,0-0.748h9.431c0,0,0,0,0,0.748c0,0,0,0-0.574,0.159c-0.289,0.347-0.289,0.88-0.289,0.88
		c0,0.375,0.189,0.774,0.527,1.202c0,0,0,0,15.442,17.702c0-18.316,0-18.316,0-18.316c0-0.453-0.095-0.801-0.287-1.041
		c0,0-0.192-0.239-0.528-0.427c-0.482-0.159-0.482-0.159-0.482-0.159c0-0.748,0-0.748,0-0.748h8.133c0,0,0,0,0,0.748
		c0,0,0,0-0.479,0.159c-0.34,0.188-0.53,0.427-0.53,0.427c-0.193,0.24-0.288,0.588-0.288,1.041c0,0,0,0,0,26.111c0,0,0,0,0,0.481
		c0.095,0.347,0.288,0.587,0.288,0.587c0.19,0.24,0.53,0.427,1.011,0.587c0,0,0,0,0,0.749c-8.757,0-8.757,0-8.757,0v-0.749
		c0,0,0.578-0.136,0.864-0.453c0-0.507,0-0.507,0-0.801c-0.335-0.535-1.012-1.282-1.012-1.282L438.957,135.915z"/>
</g>
<g id="SPLINE_36_">
	
		<polyline fill="#1AC5FF" stroke="#1AC5FF" stroke-width="0.7087" stroke-linecap="round" stroke-linejoin="round" stroke-miterlimit="10" points="
		488.272,131.27 488.272,154.656 488.562,155.725 489.572,156.312 489.572,157.061 480.912,157.061 480.912,156.312 
		481.923,155.725 482.212,154.656 482.212,131.27 473.598,131.27 472.685,131.589 472.155,132.71 471.482,132.71 471.482,124.753 
		472.155,124.753 472.685,125.876 473.598,126.169 496.838,126.169 497.799,125.876 498.328,124.753 499.001,124.753 
		499.001,132.71 498.328,132.71 497.799,131.589 496.838,131.27 488.272,131.27 	"/>
</g>
<g id="SPLINE_37_">
	
		<polyline fill="#1AC5FF" stroke="#1AC5FF" stroke-width="0.7087" stroke-linecap="round" stroke-linejoin="round" stroke-miterlimit="10" points="
		524.164,149.13 511.655,149.13 509.732,153.509 509.346,154.923 510.742,156.312 510.742,157.061 501.551,157.061 501.551,156.312 
		502.756,155.698 503.766,153.937 513.965,130.228 514.445,128.41 513.292,126.917 513.292,126.169 523.154,126.169 
		523.154,126.917 521.952,128.251 522.336,129.747 532.921,153.509 534.076,155.591 535.422,156.312 535.422,157.061 
		525.174,157.061 525.174,156.312 526.522,154.923 526.139,153.509 524.164,149.13 	"/>
</g>
<g id="SPLINE_38_">
	
		<polyline fill="none" stroke="#1AC5FF" stroke-width="0.7087" stroke-linecap="round" stroke-linejoin="round" stroke-miterlimit="10" points="
		522.432,144.939 517.959,134.019 513.436,144.939 522.432,144.939 	"/>
</g>
<g id="SPLINE_39_">
	
		<polyline fill="#1AC5FF" stroke="#1AC5FF" stroke-width="0.7087" stroke-linecap="round" stroke-linejoin="round" stroke-miterlimit="10" points="
		550.435,151.96 567.513,151.96 568.477,151.641 569.006,150.519 569.679,150.519 569.679,158.501 569.006,158.501 568.477,157.38 
		567.513,157.061 543.074,157.061 543.074,156.312 544.084,155.725 544.373,154.656 544.373,128.572 544.084,127.505 
		543.074,126.917 543.074,126.169 551.733,126.169 551.733,126.917 550.723,127.505 550.435,128.572 550.435,151.96 	"/>
</g>
<g id="SPLINE_40_">
	
		<polyline fill="#1AC5FF" stroke="#1AC5FF" stroke-width="0.7087" stroke-linecap="round" stroke-linejoin="round" stroke-miterlimit="10" points="
		272.802,149.61 260.8,149.61 259.043,153.723 258.779,154.442 258.682,154.923 258.899,155.432 259.741,155.858 260.053,155.938 
		260.053,156.312 260.053,157.061 260.053,157.54 259.621,157.54 250.432,157.54 249.997,157.54 249.997,157.061 249.997,156.312 
		249.997,155.938 250.335,155.858 250.961,155.618 250.961,155.645 251.368,155.323 251.777,154.765 252.258,153.723 
		252.258,153.723 262.483,130.015 262.82,129.054 262.82,129.054 262.915,128.41 262.748,127.823 262.748,127.823 262.05,127.37 
		261.738,127.265 261.738,126.917 261.738,126.169 261.738,125.688 262.171,125.688 272.032,125.688 272.467,125.688 
		272.467,126.169 272.467,126.917 272.467,127.29 272.152,127.396 271.431,127.771 271.263,128.251 271.36,128.837 271.36,128.837 
		271.6,129.532 271.6,129.532 282.185,153.296 282.808,154.523 283.292,155.243 283.292,155.243 283.773,155.618 284.424,155.858 
		284.784,155.913 284.784,156.312 284.784,157.061 284.784,157.54 284.349,157.54 274.078,157.54 273.646,157.54 273.646,157.061 
		273.646,156.312 273.646,155.913 274.008,155.833 274.799,155.484 274.991,154.923 274.92,154.47 274.92,154.47 274.631,153.723 
		274.631,153.723 272.802,149.61 	"/>
</g>
<g id="SPLINE_41_">
	
		<polyline fill="#1AC5FF" stroke="#1AC5FF" stroke-width="0.7087" stroke-linecap="round" stroke-linejoin="round" stroke-miterlimit="10" points="
		260.534,148.649 273.091,148.649 273.357,148.649 273.477,148.915 275.4,153.296 275.4,153.296 275.738,154.175 275.738,154.175 
		275.858,154.923 275.377,156.177 274.848,156.579 283.603,156.579 283.387,156.473 282.689,155.938 282.689,155.938 
		282.064,155.058 281.415,153.723 270.83,129.96 270.518,129.079 270.518,129.079 270.398,128.251 270.83,127.104 271.408,126.649 
		262.748,126.649 263.398,127.21 263.398,127.21 263.805,128.41 263.661,129.348 263.661,129.348 263.278,130.441 253.053,154.124 
		253.053,154.124 252.501,155.271 251.972,156.046 251.322,156.499 251.322,156.499 251.176,156.579 258.946,156.579 
		258.322,156.126 257.815,154.923 257.935,154.175 258.25,153.296 258.25,153.296 260.15,148.943 260.27,148.649 260.534,148.649 	
		"/>
</g>
<g id="SPLINE_42_">
	
		<polyline fill="#1AC5FF" stroke="#1AC5FF" stroke-width="0.7087" stroke-linecap="round" stroke-linejoin="round" stroke-miterlimit="10" points="
		270.661,144.458 266.884,135.193 263.012,144.458 270.661,144.458 	"/>
</g>
<g id="SPLINE_43_">
	
		<polyline fill="#FFFFFF" stroke="#1AC5FF" stroke-width="0.7087" stroke-linecap="round" stroke-linejoin="round" stroke-miterlimit="10" points="
		267.27,133.833 271.745,144.726 272.009,145.419 271.336,145.419 262.339,145.419 261.664,145.419 261.93,144.726 266.477,133.833 
		266.884,132.87 267.27,133.833 	"/>
</g>
<g id="SPLINE_44_">
	
		<polyline fill="#1AC5FF" stroke="#1AC5FF" stroke-width="0.7087" stroke-linecap="round" stroke-linejoin="round" stroke-miterlimit="10" points="
		308.67,157.273 299.241,137.649 299.241,154.656 299.289,155.139 299.432,155.404 299.673,155.618 300.203,155.858 300.54,155.966 
		300.54,156.312 300.54,157.061 300.54,157.54 300.105,157.54 291.976,157.54 291.543,157.54 291.543,157.061 291.543,156.312 
		291.543,155.966 291.832,155.858 292.361,155.618 292.65,155.404 292.745,155.139 292.794,154.656 292.794,128.544 
		292.745,128.091 292.745,128.091 292.65,127.823 292.361,127.61 291.832,127.396 291.543,127.29 291.543,126.917 291.543,126.169 
		291.543,125.688 291.976,125.688 302.657,125.688 303.09,125.688 303.09,126.169 303.09,126.917 303.09,127.29 302.753,127.396 
		302.271,127.665 302.128,128.171 302.175,128.519 302.369,128.973 309.537,144.085 316.801,129.239 317.187,128.41 
		317.284,127.958 317.138,127.585 317.138,127.585 316.657,127.396 316.273,127.345 316.273,126.917 316.273,126.169 
		316.273,125.688 316.706,125.688 327.194,125.688 327.626,125.688 327.626,126.169 327.626,126.917 327.626,127.29 
		327.337,127.396 326.807,127.61 326.521,127.823 326.376,128.091 326.327,128.544 326.327,154.656 326.376,155.139 
		326.521,155.404 326.807,155.618 327.337,155.858 327.626,155.966 327.626,156.312 327.626,157.061 327.626,157.54 327.194,157.54 
		318.534,157.54 318.1,157.54 318.1,157.061 318.1,156.312 318.1,155.938 318.438,155.858 318.918,155.645 319.207,155.432 
		319.207,155.432 319.353,155.139 319.353,155.139 319.399,154.656 319.399,137.569 309.44,157.3 309.008,158.048 308.67,157.273 	
		"/>
</g>
<g id="SPLINE_45_">
	
		<polyline fill="#1AC5FF" stroke="#1AC5FF" stroke-width="0.7087" stroke-linecap="round" stroke-linejoin="round" stroke-miterlimit="10" points="
		299.192,135.486 309.057,156.046 319.447,135.486 320.266,133.884 320.266,135.727 320.266,154.656 320.169,155.432 
		320.169,155.432 319.88,156.046 319.353,156.499 319.207,156.579 326.567,156.579 326.376,156.473 325.895,156.046 
		325.847,156.046 325.557,155.432 325.463,154.656 325.463,128.544 325.557,127.798 325.847,127.184 325.895,127.184 
		326.376,126.755 326.567,126.649 317.476,126.649 317.766,126.89 317.766,126.89 318.148,127.958 318.005,128.759 317.57,129.692 
		309.921,145.339 309.537,146.112 309.151,145.313 301.598,129.427 301.358,128.785 301.262,128.171 301.598,127.05 
		302.031,126.649 292.603,126.649 292.745,126.755 293.274,127.184 293.612,127.798 293.612,127.798 293.707,128.544 
		293.707,154.656 293.612,155.432 293.274,156.046 292.794,156.473 292.603,156.579 299.432,156.579 299.289,156.473 
		298.76,156.046 298.76,156.046 298.472,155.432 298.374,154.656 298.374,135.727 298.374,133.806 299.192,135.486 	"/>
</g>
<g id="SPLINE_46_">
	
		<path fill="#FFFFFF" stroke="#FFFFFF" stroke-width="0.7087" stroke-linecap="round" stroke-linejoin="round" stroke-miterlimit="10" d="
		M363.229,140.826c1.253,0.642,2.215,1.521,2.888,2.563c0,0,0.818,1.308,1.25,2.883c0,1.896,0,1.896,0,3.365
		c-0.24,1.334-0.721,2.509-0.721,2.509c-0.481,1.174-1.202,2.188-2.164,3.017c0,0,0,0-0.48,0.428
		c-0.529,0.375-1.105,0.668-1.105,0.668c-0.578,0.293-1.156,0.562-1.78,0.722c0,0-0.626,0.187-1.348,0.317
		c-0.771,0.108-0.771,0.108-1.539,0.188c-0.818,0.054-1.731,0.054-1.731,0.054h-19.005c0,0,0,0-0.435,0c0-0.479,0-0.479,0-0.479
		v-0.749c0,0,0,0,0-0.347c0.287-0.106,0.287-0.106,0.287-0.106c0.24-0.08,0.437-0.16,0.529-0.24
		c0.289-0.214,0.289-0.214,0.338-0.268c0.099-0.349,0.145-0.509,0.145-0.694c0,0,0,0,0-26.084c-0.046-0.347-0.046-0.48-0.046-0.48
		c-0.146-0.269-0.194-0.348-0.289-0.428c-0.146-0.054-0.146-0.054-0.289-0.134c-0.146-0.08-0.388-0.134-0.388-0.134l-0.287-0.105
		c0,0,0,0,0-0.375c0-0.748,0-0.748,0-0.748v-0.479c0,0,0,0,0.435,0c18.813,0,18.813,0,18.813,0c0.913,0,1.731,0.054,2.453,0.134
		c0,0,0.771,0.08,1.442,0.188c0.578,0.16,0.578,0.16,0.578,0.16c0.577,0.16,1.104,0.375,1.637,0.643c0,0,0.48,0.268,0.961,0.587
		c0.435,0.399,0.435,0.399,0.435,0.399c0.865,0.748,1.539,1.685,1.975,2.805c0,0,0.432,1.096,0.672,2.35c0,1.415,0,1.415,0,3.02
		c-0.337,1.361-1.01,2.535-1.01,2.535C364.914,139.411,364.192,140.187,363.229,140.826z"/>
</g>
<g id="SPLINE_47_">
	
		<path fill="#00BBFF" stroke="#00BBFF" stroke-width="0.7087" stroke-linecap="round" stroke-linejoin="round" stroke-miterlimit="10" d="
		M365.395,143.95c-0.723-1.121-1.828-2.002-3.319-2.617c0,0,0,0-0.913-0.427c0.913-0.481,0.913-0.481,0.913-0.481
		c1.153-0.611,2.069-1.439,2.646-2.428c0,0,0.576-1.016,0.865-2.217c0-1.416,0-1.416,0-2.697c-0.19-1.121-0.576-2.107-0.576-2.107
		c-0.386-0.96-0.964-1.762-1.731-2.432c0,0,0,0-0.384-0.346c-0.435-0.295-0.867-0.535-0.867-0.535
		c-0.48-0.213-0.962-0.427-1.491-0.561c0,0,0,0-0.529-0.135c-0.624-0.133-1.299-0.187-1.299-0.187s-0.722-0.082-1.491-0.134
		c-0.913,0-0.913,0-0.913,0c-18.188,0-18.188,0-18.188,0c0.194,0.105,0.386,0.213,0.578,0.374c0.24,0.347,0.338,0.562,0.433,0.8
		c0,0,0.048,0.214,0.098,0.48c0,0.269,0,0.269,0,0.269c0,26.084,0,26.084,0,26.084c0,0.293-0.05,0.535-0.098,0.772
		c0,0-0.095,0.24-0.19,0.453c-0.097,0.162-0.097,0.162-0.24,0.321c-0.192,0.16-0.384,0.267-0.384,0.267
		c-0.194,0.106-0.194,0.106,18.187,0.106c0,0,0,0,0.864,0c0.818-0.054,1.539-0.134,1.539-0.134c0.724-0.08,1.396-0.214,1.975-0.374
		c0,0,0.575-0.188,1.153-0.401c0.479-0.266,0.479-0.266,1.011-0.56c0.48-0.321,0.866-0.694,0.866-0.694s0.865-0.749,1.54-1.656
		c0.384-1.015,0.384-1.015,0.818-2.056c0.238-1.2,0.238-2.537,0.238-2.537C366.502,146.486,366.116,145.099,365.395,143.95z"/>
</g>
<g id="SPLINE_48_">
	
		<polyline fill="none" stroke="#FFFFFF" stroke-width="0.7087" stroke-linecap="round" stroke-linejoin="round" stroke-miterlimit="10" points="
		345.283,137.97 355.53,137.97 357.456,137.782 358.61,137.275 358.61,137.275 359.285,136.315 359.525,134.872 358.707,132.497 
		357.505,131.937 355.53,131.749 345.283,131.749 345.283,137.97 	"/>
</g>
<g id="SPLINE_49_">
	<path fill="#FFFFFF" stroke="#00BBFF" stroke-miterlimit="10" d="M355.53,138.931h-10.68c0,0,0,0-0.435,0c0-0.479,0-0.479,0-0.479
		v-7.182c0,0,0,0,0-0.481c0.435,0,0.435,0,0.435,0h10.68c0,0,0.816,0,1.54,0.08c0.578,0.135,0.578,0.135,1.253,0.295
		c0.479,0.239,0.864,0.534,0.864,0.534c0,0.026,0.816,0.667,1.205,1.708c0,1.469,0,1.469,0,2.162
		c-0.1,0.615-0.289,1.122-0.289,1.122c-0.24,0.562-0.529,1.015-0.966,1.36c0,0,0,0-0.384,0.293c-0.479,0.24-1.105,0.375-1.105,0.375
		C357.07,138.851,356.348,138.931,355.53,138.931z"/>
</g>
<g id="SPLINE_50_">
	
		<path fill="none" stroke="#FFFFFF" stroke-width="0.7087" stroke-linecap="round" stroke-linejoin="round" stroke-miterlimit="10" d="
		M345.283,151.479h9.912c0,0,0.913,0,1.684-0.055c0.675-0.158,0.675-0.158,1.299-0.293c0.529-0.187,0.915-0.455,0.915-0.455
		c0.386-0.293,0.724-0.666,0.913-1.146c0,0,0.192-0.48,0.338-1.068c0-0.721,0-0.721,0-1.414c-0.146-0.588-0.338-1.067-0.338-1.067
		s-0.189-0.481-0.527-0.854c-0.386-0.293-0.386-0.293-0.386-0.293c-0.386-0.268-0.864-0.453-1.539-0.586c0,0-0.627-0.16-1.443-0.214
		c-0.913,0-0.913,0-0.913,0c-9.912,0-9.912,0-9.912,0L345.283,151.479L345.283,151.479z"/>
</g>
<g id="SPLINE_51_">
	<polyline fill="#FFFFFF" stroke="#00BBFF" stroke-miterlimit="10" points="355.195,152.441 344.851,152.441 344.418,152.441 
		344.418,151.96 344.418,143.55 344.418,143.068 344.851,143.068 355.195,143.068 357.745,143.282 359.525,144.005 359.525,144.005 
		360.776,145.579 360.776,145.579 361.208,147.741 360.776,149.958 359.525,151.479 359.525,151.479 357.745,152.228 
		355.195,152.441 	"/>
</g>
<g id="SPLINE_52_">
	
		<polyline fill="#1AC5FF" stroke="#1AC5FF" stroke-width="0.7087" stroke-linecap="round" stroke-linejoin="round" stroke-miterlimit="10" points="
		377.182,154.656 377.182,128.544 377.134,128.091 377.134,128.091 376.99,127.823 376.75,127.61 376.221,127.396 375.883,127.29 
		375.883,126.917 375.883,126.169 375.883,125.688 376.317,125.688 384.978,125.688 385.458,125.688 385.458,126.169 
		385.458,126.917 385.458,127.29 385.12,127.396 384.591,127.585 384.591,127.585 384.302,127.798 384.302,127.798 384.207,128.091 
		384.159,128.544 384.159,154.656 384.207,155.139 384.207,155.139 384.302,155.432 384.351,155.432 384.591,155.645 
		385.12,155.858 385.458,155.938 385.458,156.312 385.458,157.061 385.458,157.54 384.978,157.54 376.317,157.54 375.883,157.54 
		375.883,157.061 375.883,156.312 375.883,155.966 376.221,155.858 376.75,155.618 376.99,155.404 377.134,155.139 377.182,154.656 
			"/>
</g>
<g id="SPLINE_53_">
	
		<polyline fill="#1AC5FF" stroke="#1AC5FF" stroke-width="0.7087" stroke-linecap="round" stroke-linejoin="round" stroke-miterlimit="10" points="
		378.049,128.544 378.049,154.656 377.952,155.432 377.663,156.046 377.134,156.473 376.941,156.579 384.351,156.579 
		384.207,156.499 383.678,156.046 383.341,155.432 383.341,155.432 383.292,154.656 383.292,128.544 383.341,127.798 
		383.678,127.184 383.678,127.184 384.207,126.73 384.207,126.73 384.351,126.649 376.99,126.649 377.134,126.755 377.663,127.184 
		377.952,127.798 377.952,127.798 378.049,128.544 	"/>
</g>
<g id="SPLINE_54_">
	
		<polyline fill="#1AC5FF" stroke="#1AC5FF" stroke-width="0.7087" stroke-linecap="round" stroke-linejoin="round" stroke-miterlimit="10" points="
		403.018,143.978 403.018,151.479 420.437,151.479 420.868,151.427 421.108,151.294 421.108,151.294 421.301,150.999 
		421.492,150.413 421.59,150.038 421.879,150.038 422.552,150.038 422.986,150.038 422.986,150.519 422.986,158.501 
		422.986,158.982 422.552,158.982 421.879,158.982 421.59,158.982 421.492,158.608 421.301,158.048 421.108,157.727 
		421.108,157.727 420.868,157.593 420.868,157.593 420.437,157.54 395.225,157.54 394.793,157.54 394.793,157.061 394.793,156.312 
		394.793,155.966 395.079,155.858 395.608,155.618 395.897,155.404 395.994,155.139 396.043,154.656 396.043,128.572 
		395.994,128.091 395.897,127.823 395.608,127.61 395.079,127.396 394.793,127.29 394.793,126.917 394.793,126.169 394.793,125.688 
		395.225,125.688 419.953,125.688 420.339,125.636 420.579,125.503 420.579,125.503 420.771,125.181 420.966,124.62 
		421.061,124.273 421.397,124.273 422.07,124.273 422.505,124.273 422.505,124.753 422.505,132.71 422.505,133.191 422.07,133.191 
		421.397,133.191 421.061,133.191 420.966,132.845 420.771,132.255 420.579,131.937 420.579,131.937 420.339,131.802 
		420.339,131.802 419.953,131.749 403.018,131.749 403.018,138.104 413.843,138.104 414.277,138.05 414.277,138.05 414.519,137.917 
		414.71,137.598 414.902,137.036 414.999,136.661 415.288,136.661 415.961,136.661 416.393,136.661 416.393,137.143 
		416.393,144.939 416.393,145.419 415.961,145.419 415.288,145.419 414.999,145.419 414.902,145.07 414.71,144.483 414.47,144.165 
		414.47,144.165 414.277,144.03 413.843,143.978 403.018,143.978 	"/>
</g>
<g id="SPLINE_55_">
	
		<polyline fill="#1AC5FF" stroke="#1AC5FF" stroke-width="0.7087" stroke-linecap="round" stroke-linejoin="round" stroke-miterlimit="10" points="
		402.153,151.96 402.153,143.497 402.153,143.017 402.585,143.017 413.843,143.017 414.519,143.122 415.094,143.47 415.094,143.47 
		415.479,144.03 415.528,144.216 415.528,137.862 415.479,138.05 415.048,138.639 414.519,138.958 414.519,138.958 413.843,139.064 
		402.585,139.064 402.153,139.064 402.153,138.583 402.153,131.27 402.153,130.788 402.585,130.788 419.953,130.788 
		420.579,130.895 420.579,130.895 421.157,131.216 421.157,131.241 421.541,131.802 421.639,131.989 421.639,125.448 
		421.541,125.636 421.157,126.223 421.157,126.223 420.579,126.569 419.953,126.649 395.848,126.649 395.994,126.755 
		396.524,127.184 396.524,127.184 396.859,127.823 396.908,128.572 396.908,154.656 396.859,155.432 396.524,156.046 
		396.043,156.473 395.848,156.579 420.437,156.579 421.108,156.687 421.108,156.687 421.639,157.005 422.07,157.593 422.119,157.78 
		422.119,151.239 422.07,151.427 421.639,152.015 421.108,152.333 420.437,152.441 402.585,152.441 402.153,152.441 402.153,151.96 
			"/>
</g>
<g id="SPLINE_56_">
	
		<polyline fill="#1AC5FF" stroke="#1AC5FF" stroke-width="0.7087" stroke-linecap="round" stroke-linejoin="round" stroke-miterlimit="10" points="
		439.392,137.115 439.392,154.656 439.44,155.139 439.584,155.404 439.824,155.618 440.354,155.858 440.691,155.966 
		440.691,156.312 440.691,157.061 440.691,157.54 440.257,157.54 432.126,157.54 431.694,157.54 431.694,157.061 431.694,156.312 
		431.694,155.966 431.983,155.858 432.51,155.618 432.799,155.404 432.896,155.139 432.993,154.656 432.993,128.544 
		432.896,128.091 432.896,128.091 432.799,127.823 432.51,127.61 431.983,127.396 431.694,127.29 431.694,126.917 431.694,126.169 
		431.694,125.688 432.126,125.688 441.557,125.688 441.99,125.688 441.99,126.169 441.99,126.917 441.99,127.29 441.652,127.396 
		441.221,127.639 441.221,127.639 441.123,127.958 441.557,128.813 456.182,145.659 456.182,128.544 456.133,128.091 
		456.038,127.823 455.75,127.61 455.75,127.61 455.22,127.396 454.932,127.29 454.932,126.917 454.932,126.169 454.932,125.688 
		455.363,125.688 463.496,125.688 463.929,125.688 463.929,126.169 463.929,126.917 463.929,127.29 463.591,127.396 463.062,127.61 
		463.062,127.61 462.821,127.823 462.678,128.091 462.629,128.544 462.629,154.656 462.678,155.139 462.821,155.404 
		463.062,155.618 463.591,155.858 463.929,155.966 463.929,156.312 463.929,157.061 463.929,157.54 463.496,157.54 454.739,157.54 
		454.307,157.54 454.307,157.061 454.307,156.312 454.307,155.938 454.643,155.858 455.077,155.645 455.077,155.645 
		455.172,155.352 454.979,155.003 454.307,154.095 439.392,137.115 	"/>
</g>
<g id="SPLINE_57_">
	
		<polyline fill="#1AC5FF" stroke="#1AC5FF" stroke-width="0.7087" stroke-linecap="round" stroke-linejoin="round" stroke-miterlimit="10" points="
		438.525,154.656 438.525,135.915 438.525,134.738 439.246,135.593 454.932,153.429 455.701,154.442 456.038,155.352 
		455.701,156.312 455.363,156.579 462.821,156.579 462.678,156.473 462.148,156.046 462.148,156.046 461.859,155.432 
		461.763,154.656 461.763,128.544 461.859,127.798 462.148,127.184 462.148,127.184 462.678,126.755 462.678,126.755 
		462.821,126.649 455.99,126.649 456.182,126.755 456.182,126.755 456.663,127.184 457,127.798 457.098,128.544 457.098,146.861 
		457.098,148.035 456.327,147.181 440.932,129.48 440.932,129.48 440.257,127.958 440.594,126.97 440.594,126.97 440.932,126.649 
		432.753,126.649 432.944,126.755 433.426,127.184 433.763,127.798 433.763,127.798 433.857,128.544 433.857,154.656 
		433.763,155.432 433.426,156.046 432.944,156.473 432.753,156.579 439.633,156.579 439.44,156.473 438.911,156.046 
		438.911,156.046 438.622,155.432 438.525,154.656 	"/>
</g>
<g id="SPLINE_58_">
	
		<polyline fill="#1AC5FF" stroke="#1AC5FF" stroke-width="0.7087" stroke-linecap="round" stroke-linejoin="round" stroke-miterlimit="10" points="
		488.707,131.749 488.707,154.656 488.754,155.139 488.899,155.404 489.141,155.618 489.669,155.858 490.004,155.966 
		490.004,156.312 490.004,157.061 490.004,157.54 489.572,157.54 480.912,157.54 480.48,157.54 480.48,157.061 480.48,156.312 
		480.48,155.966 480.767,155.858 481.296,155.618 481.585,155.404 481.682,155.139 481.777,154.656 481.777,131.749 
		473.598,131.749 473.166,131.802 472.973,131.937 472.926,131.937 472.733,132.229 472.733,132.229 472.539,132.845 
		472.493,133.191 472.155,133.191 471.482,133.191 471.048,133.191 471.048,132.71 471.048,124.753 471.048,124.273 
		471.482,124.273 472.155,124.273 472.444,124.273 472.539,124.62 472.782,125.208 472.973,125.503 473.166,125.636 
		473.166,125.636 473.598,125.688 496.838,125.688 497.27,125.636 497.27,125.636 497.51,125.503 497.702,125.208 497.702,125.208 
		497.896,124.62 497.991,124.273 498.328,124.273 499.001,124.273 499.436,124.273 499.436,124.753 499.436,132.71 499.436,133.191 
		499.001,133.191 498.328,133.191 497.991,133.191 497.896,132.845 497.702,132.229 497.702,132.229 497.51,131.937 497.51,131.937 
		497.27,131.802 496.838,131.749 488.707,131.749 	"/>
</g>
<g id="SPLINE_59_">
	
		<polyline fill="#1AC5FF" stroke="#1AC5FF" stroke-width="0.7087" stroke-linecap="round" stroke-linejoin="round" stroke-miterlimit="10" points="
		487.841,154.656 487.841,131.27 487.841,130.788 488.272,130.788 496.838,130.788 497.51,130.895 498.088,131.216 498.088,131.216 
		498.473,131.802 498.473,131.802 498.569,131.989 498.569,125.475 498.473,125.636 498.473,125.636 498.088,126.223 
		497.51,126.569 497.51,126.569 496.838,126.649 473.598,126.649 472.926,126.569 472.926,126.569 472.396,126.223 472.396,126.223 
		472.013,125.661 471.915,125.448 471.915,131.989 471.964,131.802 471.964,131.802 472.396,131.216 472.396,131.216 
		472.926,130.895 473.598,130.788 482.212,130.788 482.644,130.788 482.644,131.27 482.644,154.656 482.549,155.432 
		482.212,156.046 481.73,156.473 481.536,156.579 488.947,156.579 488.754,156.473 488.225,156.046 488.225,156.046 
		487.936,155.432 487.841,154.656 	"/>
</g>
<g id="SPLINE_60_">
	
		<polyline fill="#1AC5FF" stroke="#1AC5FF" stroke-width="0.7087" stroke-linecap="round" stroke-linejoin="round" stroke-miterlimit="10" points="
		523.924,149.61 511.896,149.61 510.116,153.723 509.875,154.442 509.875,154.442 509.778,154.923 509.973,155.432 510.837,155.858 
		511.175,155.938 511.175,156.312 511.175,157.061 511.175,157.54 510.742,157.54 501.551,157.54 501.119,157.54 501.119,157.061 
		501.119,156.312 501.119,155.938 501.456,155.858 502.08,155.618 502.08,155.645 502.467,155.323 502.85,154.765 503.331,153.723 
		503.38,153.723 513.581,130.015 513.916,129.079 514.014,128.41 513.821,127.823 513.821,127.823 513.146,127.37 512.857,127.265 
		512.857,126.917 512.857,126.169 512.857,125.688 513.292,125.688 523.154,125.688 523.589,125.688 523.589,126.169 
		523.589,126.917 523.589,127.29 523.251,127.396 522.529,127.771 522.384,128.251 522.432,128.837 522.432,128.837 
		522.723,129.532 522.723,129.532 533.307,153.296 533.883,154.523 534.365,155.243 534.365,155.243 534.848,155.618 
		535.52,155.858 535.856,155.913 535.856,156.312 535.856,157.061 535.856,157.54 535.422,157.54 525.174,157.54 524.742,157.54 
		524.742,157.061 524.742,156.312 524.742,155.913 525.128,155.833 525.897,155.484 526.09,154.923 525.992,154.47 525.992,154.47 
		525.704,153.723 525.704,153.723 523.924,149.61 	"/>
</g>
<g id="SPLINE_61_">
	
		<polyline fill="#1AC5FF" stroke="#1AC5FF" stroke-width="0.7087" stroke-linecap="round" stroke-linejoin="round" stroke-miterlimit="10" points="
		511.655,148.649 524.164,148.649 524.453,148.649 524.55,148.915 526.522,153.296 526.522,153.296 526.811,154.175 
		526.811,154.175 526.954,154.923 526.473,156.177 525.944,156.579 534.701,156.579 534.509,156.473 533.788,155.938 
		533.788,155.938 533.161,155.058 532.488,153.723 521.952,129.96 521.614,129.079 521.614,129.079 521.52,128.251 521.952,127.104 
		522.529,126.649 513.868,126.649 514.494,127.21 514.494,127.21 514.88,128.41 514.734,129.348 514.351,130.441 504.149,154.124 
		504.149,154.124 503.62,155.271 503.091,156.046 502.418,156.499 502.418,156.499 502.274,156.579 510.067,156.579 
		509.395,156.126 508.914,154.923 509.057,154.175 509.057,154.175 509.346,153.296 509.346,153.296 511.271,148.943 
		511.366,148.649 511.655,148.649 	"/>
</g>
<g id="SPLINE_62_">
	
		<polyline fill="none" stroke="#1AC5FF" stroke-width="0.7087" stroke-linecap="round" stroke-linejoin="round" stroke-miterlimit="10" points="
		521.76,144.458 517.959,135.193 514.108,144.458 521.76,144.458 	"/>
</g>
<g id="SPLINE_63_">
	
		<polyline fill="#FFFFFF" stroke="#1AC5FF" stroke-width="0.7087" stroke-linecap="round" stroke-linejoin="round" stroke-miterlimit="10" points="
		518.391,133.833 522.818,144.726 523.105,145.419 522.432,145.419 513.436,145.419 512.763,145.419 513.052,144.726 
		517.573,133.833 518.006,132.87 518.391,133.833 	"/>
</g>
<g id="SPLINE_64_">
	
		<polyline fill="#1AC5FF" stroke="#1AC5FF" stroke-width="0.7087" stroke-linecap="round" stroke-linejoin="round" stroke-miterlimit="10" points="
		550.866,151.479 567.513,151.479 567.947,151.427 568.188,151.294 568.188,151.294 568.38,150.999 568.571,150.413 
		568.669,150.038 569.006,150.038 569.679,150.038 570.111,150.038 570.111,150.519 570.111,158.501 570.111,158.982 
		569.679,158.982 569.006,158.982 568.669,158.982 568.571,158.608 568.38,158.048 568.188,157.727 568.188,157.727 
		567.947,157.593 567.513,157.54 543.074,157.54 542.639,157.54 542.639,157.061 542.639,156.312 542.639,155.966 542.928,155.858 
		543.457,155.618 543.746,155.404 543.844,155.139 543.938,154.656 543.938,128.572 543.844,128.091 543.746,127.823 
		543.457,127.61 542.928,127.396 542.639,127.29 542.639,126.917 542.639,126.169 542.639,125.688 543.074,125.688 551.733,125.688 
		552.166,125.688 552.166,126.169 552.166,126.917 552.166,127.29 551.83,127.396 551.301,127.585 551.301,127.585 551.059,127.798 
		551.059,127.798 550.915,128.091 550.915,128.091 550.866,128.572 550.866,151.479 	"/>
</g>
<g id="SPLINE_65_">
	
		<polyline fill="#1AC5FF" stroke="#1AC5FF" stroke-width="0.7087" stroke-linecap="round" stroke-linejoin="round" stroke-miterlimit="10" points="
		567.513,152.441 550.435,152.441 550.002,152.441 550.002,151.96 550.002,128.572 550.098,127.823 550.098,127.823 
		550.386,127.184 550.386,127.184 550.915,126.73 550.915,126.73 551.059,126.649 543.698,126.649 543.844,126.755 544.373,127.184 
		544.373,127.184 544.708,127.823 544.805,128.572 544.805,154.656 544.708,155.432 544.373,156.046 543.891,156.473 
		543.698,156.579 567.513,156.579 568.188,156.687 568.766,157.005 569.149,157.593 569.247,157.78 569.247,151.239 
		569.149,151.427 568.766,152.015 568.188,152.333 567.513,152.441 	"/>
</g>
<g id="SPLINE_66_">
	
		<polyline fill="#1AC5FF" stroke="#1AC5FF" stroke-width="0.5102" stroke-linecap="round" stroke-linejoin="round" stroke-miterlimit="10" points="
		196.352,181.329 186.634,180.634 177.204,178.552 168.184,175.136 159.668,170.437 151.753,164.562 144.584,157.62 138.208,149.61 
		132.797,140.613 128.49,130.921 125.436,120.802 123.582,110.417 122.958,99.897 123.582,89.378 125.436,78.991 128.49,68.872 
		132.797,59.181 138.208,50.185 144.584,42.173 151.753,35.204 159.668,29.357 168.184,24.687 177.204,21.27 186.634,19.159 
		196.352,18.438 196.352,28.851 187.884,29.465 179.657,31.308 171.793,34.298 164.358,38.382 157.453,43.482 151.2,49.544 
		145.643,56.538 140.927,64.389 137.175,72.824 134.48,81.661 132.894,90.712 132.339,99.897 132.894,109.081 134.48,118.132 
		137.175,126.97 140.927,135.407 145.643,143.257 151.2,150.251 157.453,156.312 164.358,161.411 171.793,165.523 179.657,168.46 
		187.884,170.329 196.352,170.917 196.352,181.329 	"/>
</g>
<g id="SPLINE_67_">
	<polyline fill="#1AC5FF" stroke="#1AC5FF" stroke-miterlimit="10" points="122.958,181.382 122.958,34.458 122.958,18.384 
		116.342,18.384 10.857,181.382 22.404,181.382 113.6,40.492 113.6,181.382 122.958,181.382 	"/>
</g>
<g id="SPLINE_68_">
	
		<path fill="#1AC5FF" stroke="#1AC5FF" stroke-width="0.5102" stroke-linecap="round" stroke-linejoin="round" stroke-miterlimit="10" d="
		M99.238,102.941h125.983c0,0,0,0,0,94.674c-9.718,0-9.718,0-9.718,0v-83.86c0,0,0,0-13.327,0c-102.938,0-102.938,0-102.938,0
		V102.941z"/>
</g>
</svg>
