<svg id="Layer_1" data-name="Layer 1" xmlns="http://www.w3.org/2000/svg" viewBox="0 0 502.74 101.26"><defs><style>.cls-1,.cls-2{fill:#f06f23;}.cls-1{fill-rule:evenodd;}.cls-3{fill:#065c70;}.cls-4{fill:#4f534e;}</style></defs><title>logo_alphenz_horizontal</title><g id="logo_horizontal_-_cor" data-name="logo horizontal - cor"><path class="cls-1" d="M223.51,269.78a4.7,4.7,0,1,1-4.68,4.7,4.71,4.71,0,0,1,4.68-4.7Z" transform="translate(-169.58 -247.01)"/><polygon class="cls-2" points="25.01 47.02 32.3 52.14 33.51 50.81 25.95 45.49 25.01 47.02"/><polygon class="cls-2" points="82.87 47.06 81.93 45.53 74.38 50.84 75.59 52.18 82.87 47.06"/><polygon class="cls-3" points="0 87.69 32.3 52.14 25.01 47.02 0 87.69"/><polygon class="cls-3" points="107.86 87.69 82.87 47.06 75.59 52.18 107.86 87.69"/><path class="cls-3" d="M223.5,247l-25.05,40.74,8.41,5.91,11.36-12.5a8.53,8.53,0,0,1,5.15-15.22h.14a8.53,8.53,0,0,1,5.29,15.23l11.38,12.53,8.41-5.91Z" transform="translate(-169.58 -247.01)"/><polygon class="cls-4" points="429.13 65.88 394.97 41.1 394.97 65.92 385.38 65.92 385.38 22.43 419.56 47.19 419.56 22.37 429.13 22.37 429.13 65.88"/><polygon class="cls-4" points="181.47 65.91 174.69 54.98 152.16 54.98 157.3 46.64 169.41 46.64 161.34 33.1 140.82 65.91 130.6 65.91 157.32 22.38 164.99 22.38 191.67 65.91 181.47 65.91"/><path class="cls-4" d="M405.21,312.92V269.38h22.4a29.71,29.71,0,0,1,8.43,1.08,16.45,16.45,0,0,1,6,3.17,12.84,12.84,0,0,1,3.6,5.11,19.3,19.3,0,0,1,0,13.18,13.75,13.75,0,0,1-3.56,5.2,16.73,16.73,0,0,1-6,3.4,26.66,26.66,0,0,1-8.44,1.21H416.4l5.38-8.71h6a12.8,12.8,0,0,0,4-.55,7.74,7.74,0,0,0,2.76-1.52,5.94,5.94,0,0,0,1.63-2.35,8.79,8.79,0,0,0,.55-3.15,6.79,6.79,0,0,0-2.17-5.37c-1.47-1.29-3.74-1.94-6.75-1.94h-13v34.79Z" transform="translate(-169.58 -247.01)"/><polygon class="cls-4" points="319.9 22.38 319.9 39.98 295.47 39.98 295.47 22.38 285.83 22.38 285.83 65.91 295.47 65.91 295.47 48.58 319.9 48.58 319.9 65.91 329.56 65.91 329.56 22.38 319.9 22.38"/><polygon class="cls-4" points="348.61 57.14 348.61 48.31 365.67 48.31 370.84 39.98 348.61 39.98 348.61 31.17 375.41 31.17 375.41 22.38 338.98 22.38 338.98 65.91 375.97 65.91 375.97 57.14 348.61 57.14"/><polygon class="cls-4" points="437.9 65.91 497.54 65.91 502.74 57.33 455.41 57.33 458.66 53.13 482.22 22.38 439.57 22.38 439.57 30.96 464.29 30.96 461.2 34.87 437.9 65.91"/><polygon class="cls-4" points="229.79 57.84 230.06 57.24 230.06 57.12 206.04 57.12 206.04 22.38 196.4 22.38 196.4 65.91 224.84 65.91 229.79 57.84"/><path class="cls-3" d="M352.62,347l-.41-1.24-.45-1.27h-4.52c-.15.42-.3.85-.44,1.27s-.29.84-.42,1.24h-2.71c.44-1.25.85-2.4,1.25-3.46s.77-2.06,1.15-3,.74-1.82,1.1-2.66.74-1.67,1.14-2.47h2.47c.38.8.76,1.62,1.12,2.47s.75,1.73,1.12,2.66.76,1.94,1.15,3,.81,2.21,1.25,3.46Zm-1.13-14.64-2.76,2.33-1.14-1,2.37-2.71Zm-2,5.67c-.06.17-.15.4-.26.69l-.38,1c-.14.38-.3.79-.48,1.25s-.36.94-.54,1.44h3.31c-.17-.51-.35-1-.51-1.44s-.33-.88-.48-1.26-.28-.72-.39-1Z" transform="translate(-169.58 -247.01)"/><path class="cls-3" d="M364.32,337.39a3.17,3.17,0,0,0-2.64,1,4.29,4.29,0,0,0-.81,2.77,5.69,5.69,0,0,0,.2,1.54,3.47,3.47,0,0,0,.6,1.2,2.89,2.89,0,0,0,1,.78,3.4,3.4,0,0,0,1.4.27h.75l.54-.07v-4H368v5.73a8.74,8.74,0,0,1-1.51.4,13.13,13.13,0,0,1-2.56.21,6.79,6.79,0,0,1-2.36-.4,4.9,4.9,0,0,1-1.82-1.18,5.15,5.15,0,0,1-1.16-1.89,7.45,7.45,0,0,1-.41-2.55,6.91,6.91,0,0,1,.45-2.58,5.59,5.59,0,0,1,1.24-1.9,5.19,5.19,0,0,1,1.85-1.18,6.29,6.29,0,0,1,2.26-.4,9.63,9.63,0,0,1,1.49.11,9.78,9.78,0,0,1,1.13.25,5,5,0,0,1,.79.29,4.63,4.63,0,0,1,.44.24l-.75,2.09a7,7,0,0,0-1.23-.5A5.2,5.2,0,0,0,364.32,337.39Z" transform="translate(-169.58 -247.01)"/><path class="cls-3" d="M377.11,347.2a5.87,5.87,0,0,1-2.11-.34,3.94,3.94,0,0,1-1.46-.95,3.8,3.8,0,0,1-.85-1.46,5.76,5.76,0,0,1-.28-1.86v-7.21H375v7a3.83,3.83,0,0,0,.16,1.2,2.43,2.43,0,0,0,.43.8,1.57,1.57,0,0,0,.67.44,2.69,2.69,0,0,0,.87.14,2.1,2.1,0,0,0,1.54-.59,2.71,2.71,0,0,0,.6-2v-7h2.61v7.21a5.87,5.87,0,0,1-.29,1.87,3.76,3.76,0,0,1-2.36,2.41A6.21,6.21,0,0,1,377.11,347.2Z" transform="translate(-169.58 -247.01)"/><path class="cls-3" d="M394,347c-.13-.4-.26-.82-.41-1.24l-.45-1.27h-4.52l-.45,1.27-.41,1.24h-2.71c.44-1.25.85-2.4,1.25-3.46s.77-2.06,1.14-3,.75-1.82,1.11-2.66.74-1.67,1.13-2.47h2.48c.38.8.75,1.62,1.13,2.47s.74,1.73,1.11,2.66.76,1.94,1.15,3,.81,2.21,1.25,3.46Zm-3.13-9c-.06.17-.15.4-.26.69l-.38,1c-.14.38-.3.79-.48,1.25s-.36.94-.54,1.44h3.31c-.17-.51-.35-1-.51-1.44s-.33-.88-.48-1.26l-.39-1Z" transform="translate(-169.58 -247.01)"/><path class="cls-3" d="M419.05,347V335.38h7.82v2.19h-5.21v2.27h4.63V342h-4.63v2.79h5.6V347Z" transform="translate(-169.58 -247.01)"/><path class="cls-3" d="M434.52,345a3.82,3.82,0,0,0,.91-.09,1.84,1.84,0,0,0,.58-.25,1,1,0,0,0,.3-.38,1.48,1.48,0,0,0,.08-.49,1.13,1.13,0,0,0-.53-.94A7.75,7.75,0,0,0,434,342c-.38-.14-.76-.29-1.14-.46a4.12,4.12,0,0,1-1-.65,3.2,3.2,0,0,1-.74-1,2.94,2.94,0,0,1-.28-1.36,3.39,3.39,0,0,1,.3-1.45,3.13,3.13,0,0,1,.85-1.09,4,4,0,0,1,1.34-.7,6.11,6.11,0,0,1,1.77-.24,7.07,7.07,0,0,1,3.43.8l-.75,2.06a6.75,6.75,0,0,0-1.08-.44,4.56,4.56,0,0,0-1.43-.2,2.63,2.63,0,0,0-1.34.26.88.88,0,0,0-.42.8.9.9,0,0,0,.16.53,1.47,1.47,0,0,0,.42.4,4.24,4.24,0,0,0,.64.31c.24.1.5.2.79.3a15.79,15.79,0,0,1,1.58.66,4.43,4.43,0,0,1,1.11.76,2.89,2.89,0,0,1,.66,1,4.19,4.19,0,0,1,.22,1.42,3,3,0,0,1-1.14,2.52,5.47,5.47,0,0,1-3.43.89,9.74,9.74,0,0,1-1.39-.09,8.89,8.89,0,0,1-1.1-.22,6.18,6.18,0,0,1-.81-.29,5.33,5.33,0,0,1-.58-.28l.73-2.08a6.81,6.81,0,0,0,1.28.51A6.67,6.67,0,0,0,434.52,345Z" transform="translate(-169.58 -247.01)"/><path class="cls-3" d="M448.92,337.39a3.16,3.16,0,0,0-2.63,1,4.29,4.29,0,0,0-.81,2.77,5.32,5.32,0,0,0,.2,1.54,3.3,3.3,0,0,0,.6,1.2,2.85,2.85,0,0,0,1,.78,3.41,3.41,0,0,0,1.41.27h.74l.55-.07v-4h2.6v5.73a8.83,8.83,0,0,1-1.5.4,13.2,13.2,0,0,1-2.56.21,6.85,6.85,0,0,1-2.37-.4,4.86,4.86,0,0,1-1.81-1.18,5.15,5.15,0,0,1-1.16-1.89,7.22,7.22,0,0,1-.41-2.55,6.91,6.91,0,0,1,.45-2.58,5.57,5.57,0,0,1,1.23-1.9,5.37,5.37,0,0,1,1.85-1.18,6.34,6.34,0,0,1,2.27-.4,9.41,9.41,0,0,1,1.48.11,10,10,0,0,1,1.14.25,4.48,4.48,0,0,1,.78.29,4,4,0,0,1,.45.24l-.76,2.09a6.59,6.59,0,0,0-1.22-.5A5.27,5.27,0,0,0,448.92,337.39Z" transform="translate(-169.58 -247.01)"/><path class="cls-3" d="M468.22,341.17a7,7,0,0,1-.44,2.61,5.35,5.35,0,0,1-1.21,1.89,5.12,5.12,0,0,1-1.83,1.15,6.59,6.59,0,0,1-2.29.38,6.39,6.39,0,0,1-2.24-.38,5.16,5.16,0,0,1-1.84-1.15,5.27,5.27,0,0,1-1.24-1.89,7,7,0,0,1-.45-2.61,6.81,6.81,0,0,1,.47-2.62,5.54,5.54,0,0,1,1.26-1.9,5.2,5.2,0,0,1,1.84-1.15,6.25,6.25,0,0,1,2.2-.39,6.39,6.39,0,0,1,2.24.39,5,5,0,0,1,1.84,1.15,5.36,5.36,0,0,1,1.24,1.9A7,7,0,0,1,468.22,341.17Zm-8.85,0a5.19,5.19,0,0,0,.21,1.53,3.39,3.39,0,0,0,.61,1.18,2.54,2.54,0,0,0,1,.76,3,3,0,0,0,1.3.27,3.05,3.05,0,0,0,1.3-.27,2.57,2.57,0,0,0,1-.76,3.55,3.55,0,0,0,.6-1.18,5.19,5.19,0,0,0,.21-1.53,5.33,5.33,0,0,0-.21-1.55,3.6,3.6,0,0,0-.6-1.19,2.67,2.67,0,0,0-1-.76,3.05,3.05,0,0,0-1.3-.27,2.86,2.86,0,0,0-1.3.28,2.66,2.66,0,0,0-1,.77,3.39,3.39,0,0,0-.61,1.18A5.36,5.36,0,0,0,459.37,341.17Z" transform="translate(-169.58 -247.01)"/><path class="cls-3" d="M480.79,335.38v2.22h-3.5V347h-2.61V337.6h-3.5v-2.22Z" transform="translate(-169.58 -247.01)"/><path class="cls-3" d="M495.29,341.17a7,7,0,0,1-.45,2.61,5.21,5.21,0,0,1-1.21,1.89,5,5,0,0,1-1.83,1.15,6.57,6.57,0,0,1-2.28.38,6.39,6.39,0,0,1-2.24-.38,5.08,5.08,0,0,1-1.84-1.15,5.14,5.14,0,0,1-1.24-1.89,7,7,0,0,1-.45-2.61,6.81,6.81,0,0,1,.46-2.62,5.71,5.71,0,0,1,1.27-1.9,5.11,5.11,0,0,1,1.84-1.15,6.21,6.21,0,0,1,2.2-.39,6.39,6.39,0,0,1,2.24.39,5.11,5.11,0,0,1,1.84,1.15,5.5,5.5,0,0,1,1.24,1.9A7,7,0,0,1,495.29,341.17Zm-8.85,0a5.19,5.19,0,0,0,.21,1.53,3.55,3.55,0,0,0,.6,1.18,2.54,2.54,0,0,0,1,.76,3,3,0,0,0,1.31.27,3,3,0,0,0,1.29-.27,2.49,2.49,0,0,0,1-.76,3.39,3.39,0,0,0,.61-1.18,5.19,5.19,0,0,0,.21-1.53,5.33,5.33,0,0,0-.21-1.55,3.44,3.44,0,0,0-.61-1.19,2.59,2.59,0,0,0-1-.76,3,3,0,0,0-1.29-.27,2.9,2.9,0,0,0-1.31.28,2.66,2.66,0,0,0-1,.77,3.55,3.55,0,0,0-.6,1.18A5.36,5.36,0,0,0,486.44,341.17Z" transform="translate(-169.58 -247.01)"/><path class="cls-3" d="M518.2,347V335.38H526v2.19h-5.22v2.27h4.64V342h-4.64v2.79h5.61V347Z" transform="translate(-169.58 -247.01)"/><path class="cls-3" d="M530.51,347V335.38h7.77v2.19h-5.16V340h4.59v2.2h-4.59V347Z" transform="translate(-169.58 -247.01)"/><path class="cls-3" d="M550,344.73V347h-7.75V335.38h2.61v9.35Z" transform="translate(-169.58 -247.01)"/><path class="cls-3" d="M558.25,347.2a5.8,5.8,0,0,1-2.11-.34,3.76,3.76,0,0,1-2.32-2.41,6.06,6.06,0,0,1-.27-1.86v-7.21h2.61v7a3.83,3.83,0,0,0,.16,1.2,2.26,2.26,0,0,0,.43.8,1.57,1.57,0,0,0,.67.44,2.63,2.63,0,0,0,.86.14,2.12,2.12,0,0,0,1.55-.59,2.71,2.71,0,0,0,.59-2v-7H563v7.21a5.87,5.87,0,0,1-.28,1.87,3.77,3.77,0,0,1-.87,1.46,3.86,3.86,0,0,1-1.49.95A6.25,6.25,0,0,1,558.25,347.2Z" transform="translate(-169.58 -247.01)"/><path class="cls-3" d="M567.72,347V335.38h7.82v2.19h-5.21v2.27H575V342h-4.63v2.79h5.6V347Z" transform="translate(-169.58 -247.01)"/><path class="cls-3" d="M587.8,347q-1.11-2-2.42-3.93a39.52,39.52,0,0,0-2.78-3.66V347H580V335.38h2.12c.37.37.78.82,1.22,1.35s.9,1.11,1.37,1.72.92,1.24,1.38,1.89.88,1.28,1.28,1.88v-6.84H590V347Z" transform="translate(-169.58 -247.01)"/><path class="cls-3" d="M603.45,335.38v2.22H600V347h-2.61V337.6h-3.5v-2.22Z" transform="translate(-169.58 -247.01)"/><path class="cls-3" d="M607.29,347V335.38h7.83v2.19H609.9v2.27h4.63V342H609.9v2.79h5.61V347Z" transform="translate(-169.58 -247.01)"/><path class="cls-3" d="M622.76,345a3.91,3.91,0,0,0,.92-.09,1.68,1.68,0,0,0,.57-.25.82.82,0,0,0,.3-.38,1.26,1.26,0,0,0,.09-.49,1.12,1.12,0,0,0-.54-.94,7.56,7.56,0,0,0-1.84-.81c-.38-.14-.76-.29-1.14-.46a4.53,4.53,0,0,1-1-.65,3.17,3.17,0,0,1-.73-1,2.94,2.94,0,0,1-.29-1.36,3.25,3.25,0,0,1,.31-1.45,3,3,0,0,1,.85-1.09,3.88,3.88,0,0,1,1.34-.7,6,6,0,0,1,1.77-.24,7.1,7.1,0,0,1,2,.25,7.55,7.55,0,0,1,1.41.55L626,338a7.6,7.6,0,0,0-1.08-.44,4.65,4.65,0,0,0-1.43-.2,2.65,2.65,0,0,0-1.35.26,1,1,0,0,0-.26,1.33,1.39,1.39,0,0,0,.43.4,3.7,3.7,0,0,0,.63.31l.8.3a16.58,16.58,0,0,1,1.57.66,4.09,4.09,0,0,1,1.11.76,2.64,2.64,0,0,1,.66,1,4,4,0,0,1,.22,1.42,3,3,0,0,1-1.14,2.52,5.47,5.47,0,0,1-3.43.89,9.59,9.59,0,0,1-1.38-.09,8.53,8.53,0,0,1-1.1-.22,6.9,6.9,0,0,1-1.4-.57l.74-2.08a6.3,6.3,0,0,0,1.28.51A6.65,6.65,0,0,0,622.76,345Z" transform="translate(-169.58 -247.01)"/><rect class="cls-3" x="237.24" y="87.02" width="1.21" height="14.24"/><rect class="cls-3" x="336.76" y="87.02" width="1.21" height="14.24"/></g></svg>