<svg id="Layer_1" data-name="Layer 1" xmlns="http://www.w3.org/2000/svg" viewBox="0 0 240.6 240.6"><defs><style>.cls-1{fill:#095f71;}.cls-2{fill:#fff;}</style></defs><title>selo-crcc</title><path class="cls-1" d="M377.22,430.62a120.3,120.3,0,1,1,120.3-120.3,120.43,120.43,0,0,1-120.3,120.3" transform="translate(-256.92 -190.02)"/><path class="cls-2" d="M377.22,198.56A111.76,111.76,0,1,0,489,310.32,111.89,111.89,0,0,0,377.22,198.56" transform="translate(-256.92 -190.02)"/><path class="cls-1" d="M457.67,310.32a80.45,80.45,0,1,1-80.45-80.44,80.45,80.45,0,0,1,80.45,80.44" transform="translate(-256.92 -190.02)"/><path class="cls-1" d="M294.46,282.37l-13.73-5.5,3.71-9.27,2.59,1-2.47,6.19,2.69,1.08,2.2-5.49,2.54,1-2.2,5.49,3.31,1.32,2.66-6.63,2.59,1Z" transform="translate(-256.92 -190.02)"/><path class="cls-1" d="M288.2,260.35c.54,0,1.18.08,1.95.16s1.58.17,2.46.28,1.76.23,2.66.37l2.55.38c-.47-.66-1-1.35-1.49-2.1s-1-1.48-1.54-2.21-1-1.42-1.36-2.07-.75-1.2-1-1.66l1.59-2.59c.91.4,1.92.86,3,1.39s2.23,1.11,3.4,1.72l3.51,1.85,3.29,1.79-1.7,2.76c-1.25-.71-2.61-1.49-4.09-2.31s-3-1.63-4.53-2.41l1.24,1.77c.45.65.91,1.29,1.37,1.93l1.31,1.85,1.06,1.51-1.22,2-1.83-.27-2.23-.33-2.35-.35-2.14-.31c1.4,1,2.8,2,4.2,3s2.71,1.81,3.91,2.6l-1.7,2.77-3.07-2.13c-1.09-.76-2.17-1.52-3.24-2.29s-2.1-1.52-3.07-2.26-1.84-1.43-2.6-2.07Z" transform="translate(-256.92 -190.02)"/><path class="cls-1" d="M300.22,243.17a9.32,9.32,0,0,1,4.24-3,4.22,4.22,0,0,1,4,1.2,4.27,4.27,0,0,1,1.7,3.89,9.35,9.35,0,0,1-2.51,4.62l-.7.79,3.71,3.28-2.21,2.49-10.91-9.66a19.22,19.22,0,0,1,1.3-1.93Q299.62,243.86,300.22,243.17Zm2.27,1.72c-.16.18-.31.36-.46.55l-.37.48,3.2,2.83.69-.78a5.72,5.72,0,0,0,1.38-2.26,1.84,1.84,0,0,0-.73-1.82,2.19,2.19,0,0,0-.92-.51,1.76,1.76,0,0,0-.91.05,3,3,0,0,0-.93.53A9.13,9.13,0,0,0,302.49,244.89Z" transform="translate(-256.92 -190.02)"/><path class="cls-1" d="M310.64,232.83a9.12,9.12,0,0,1,4.66-2.38,4.11,4.11,0,0,1,3.73,1.67,4.17,4.17,0,0,1,1.08,2.4,4.69,4.69,0,0,1-.59,2.49c.47.09,1,.22,1.54.37s1.12.33,1.7.52,1.16.4,1.76.64,1.15.48,1.7.73l-2.85,2.4-1.58-.6c-.53-.2-1.06-.39-1.59-.56l-1.52-.46c-.49-.14-1-.24-1.39-.32L316,240.79l3.48,4.13L317,247.06l-9.39-11.15a17.08,17.08,0,0,1,1.53-1.68C309.66,233.69,310.17,233.22,310.64,232.83Zm2,2-.48.44-.39.38,2.58,3.07.72-.6a5.66,5.66,0,0,0,1.76-2.09,1.72,1.72,0,0,0-.41-1.75,1.64,1.64,0,0,0-1.63-.65A5.09,5.09,0,0,0,312.61,234.87Z" transform="translate(-256.92 -190.02)"/><path class="cls-1" d="M327.12,238.78l-7.82-12.55,8.48-5.29,1.48,2.38-5.65,3.52,1.53,2.46,5-3.12,1.44,2.32-5,3.12,1.88,3,6.07-3.78,1.48,2.37Z" transform="translate(-256.92 -190.02)"/><path class="cls-1" d="M339.86,228.71a4.72,4.72,0,0,0,1-.59,2.09,2.09,0,0,0,.54-.6,1.08,1.08,0,0,0,.15-.59,1.76,1.76,0,0,0-.15-.61,1.46,1.46,0,0,0-1.12-.82,10.06,10.06,0,0,0-2.57,0q-.77.06-1.56.06a5.44,5.44,0,0,1-1.53-.22,4.15,4.15,0,0,1-1.36-.72,3.85,3.85,0,0,1-1-1.44,4.3,4.3,0,0,1-.41-1.84,3.93,3.93,0,0,1,.42-1.72,4.78,4.78,0,0,1,1.19-1.51,7.59,7.59,0,0,1,1.93-1.22,9.1,9.1,0,0,1,2.49-.77,9.55,9.55,0,0,1,1.92-.1l.21,2.79a9.51,9.51,0,0,0-1.49,0,6.07,6.07,0,0,0-1.76.53,3.33,3.33,0,0,0-1.43,1,1.27,1.27,0,0,0,.39,1.68,1.86,1.86,0,0,0,.71.24,4.36,4.36,0,0,0,.9,0c.33,0,.69,0,1.08-.08.82-.05,1.54-.07,2.18-.05a4.94,4.94,0,0,1,1.69.3,3.51,3.51,0,0,1,1.31.84,5.4,5.4,0,0,1,1,1.53,3.91,3.91,0,0,1,0,3.53,7,7,0,0,1-3.52,2.84,11.57,11.57,0,0,1-1.66.62,12.31,12.31,0,0,1-1.4.32,9.73,9.73,0,0,1-1.1.1c-.32,0-.59,0-.82,0l-.23-2.8a8.35,8.35,0,0,0,1.75-.08A8.66,8.66,0,0,0,339.86,228.71Z" transform="translate(-256.92 -190.02)"/><path class="cls-1" d="M357.1,225.36c-.3-.45-.61-.91-.94-1.37l-1-1.41-5.56,1.58-.09,1.72c0,.57-.06,1.13-.07,1.66l-3.33,1c.1-1.69.2-3.25.32-4.69s.23-2.79.36-4.07.28-2.5.43-3.66.33-2.31.53-3.43l3-.86c.75.85,1.5,1.73,2.25,2.63s1.51,1.87,2.3,2.89,1.61,2.11,2.46,3.27,1.76,2.44,2.73,3.82Zm-7-9.91c0,.23,0,.54-.07.94s-.08.85-.12,1.36-.09,1.09-.15,1.71-.11,1.27-.16,1.95l4.07-1.16c-.4-.55-.77-1.08-1.14-1.58s-.7-1-1-1.38l-.83-1.1C350.46,215.88,350.27,215.63,350.12,215.45Z" transform="translate(-256.92 -190.02)"/><path class="cls-1" d="M372.31,223.54a7.18,7.18,0,0,1-5.63-1.59,8,8,0,0,1-2.3-5.55,8.62,8.62,0,0,1,.34-3.31,7,7,0,0,1,1.39-2.54,6.63,6.63,0,0,1,2.28-1.68,8.53,8.53,0,0,1,3-.73,10.73,10.73,0,0,1,1.71,0,10.52,10.52,0,0,1,1.37.23,6.09,6.09,0,0,1,1,.3,5.25,5.25,0,0,1,.58.26l-.76,2.75a7.63,7.63,0,0,0-1.63-.5,7.72,7.72,0,0,0-2.08-.11,4.54,4.54,0,0,0-1.48.37,3.44,3.44,0,0,0-1.24.91,4,4,0,0,0-.79,1.53,6,6,0,0,0-.19,2.19,7.45,7.45,0,0,0,.37,1.89,4.06,4.06,0,0,0,.83,1.47,3.56,3.56,0,0,0,1.39.92,4.89,4.89,0,0,0,2,.23,8.64,8.64,0,0,0,1.29-.19,8.54,8.54,0,0,0,1-.27,5.09,5.09,0,0,0,.77-.33l.6-.32,1.11,2.6a8.14,8.14,0,0,1-1.93.91A11.4,11.4,0,0,1,372.31,223.54Z" transform="translate(-256.92 -190.02)"/><path class="cls-1" d="M378.24,223l1-14.76,10,.65-.18,2.79-6.65-.43-.19,2.89,5.9.39-.18,2.73-5.9-.39-.23,3.56,7.14.46-.19,2.79Z" transform="translate(-256.92 -190.02)"/><path class="cls-1" d="M397.32,210.13a9.13,9.13,0,0,1,4.75,2.22,4.12,4.12,0,0,1,1,4,4.18,4.18,0,0,1-1.23,2.33,4.67,4.67,0,0,1-2.33,1.07q.33.63.66,1.44c.22.53.44,1.08.64,1.66s.4,1.17.58,1.78.33,1.21.47,1.79l-3.64-.77c-.17-.53-.33-1.07-.5-1.61s-.35-1.08-.54-1.6-.38-1-.58-1.48-.39-.9-.6-1.3l-1.61-.34-1.11,5.29-3.26-.69,3-14.26a17.72,17.72,0,0,1,2.26.17C396,209.89,396.73,210,397.32,210.13Zm-.39,2.82c-.24,0-.45-.09-.64-.11l-.55-.07-.82,3.92.92.2a5.53,5.53,0,0,0,2.72.09,1.69,1.69,0,0,0,1.13-1.4,1.61,1.61,0,0,0-.49-1.68A5.09,5.09,0,0,0,396.93,213Z" transform="translate(-256.92 -190.02)"/><path class="cls-1" d="M418,216.6l-1,2.67-4.19-1.53L408.7,229l-3.12-1.14,4.1-11.23-4.19-1.53,1-2.66Z" transform="translate(-256.92 -190.02)"/><path class="cls-1" d="M420.33,217.85l3,1.46-6.48,13.3-3-1.46Z" transform="translate(-256.92 -190.02)"/><path class="cls-1" d="M419,233.66l7.74-12.61,8.44,5.19-1.47,2.38-5.6-3.44-1.62,2.64,5,3.06-1.47,2.38-5-3.06-3.2,5.2Z" transform="translate(-256.92 -190.02)"/><path class="cls-1" d="M437.44,228l2.66,2-8.94,11.79-2.65-2Z" transform="translate(-256.92 -190.02)"/><path class="cls-1" d="M437.82,248a7.18,7.18,0,0,1-2.63-5.22,8,8,0,0,1,2.53-5.45,8.54,8.54,0,0,1,2.66-2,7.14,7.14,0,0,1,2.82-.7,6.74,6.74,0,0,1,2.77.54,8.73,8.73,0,0,1,2.54,1.69,9.36,9.36,0,0,1,1.15,1.27,9.47,9.47,0,0,1,.76,1.16,6.9,6.9,0,0,1,.45.92c.1.27.16.47.2.6l-2.54,1.31a7.68,7.68,0,0,0-.74-1.54,7.27,7.27,0,0,0-1.32-1.6,4.58,4.58,0,0,0-1.28-.84,3.37,3.37,0,0,0-1.51-.3,4.14,4.14,0,0,0-1.66.45,6,6,0,0,0-1.74,1.35,7.34,7.34,0,0,0-1.14,1.55,4,4,0,0,0-.52,1.61,3.47,3.47,0,0,0,.26,1.63,4.84,4.84,0,0,0,1.18,1.62,8.63,8.63,0,0,0,1,.83,7.68,7.68,0,0,0,.88.55,5,5,0,0,0,.76.35l.64.22-1.16,2.57a7.72,7.72,0,0,1-2-.8A11.22,11.22,0,0,1,437.82,248Z" transform="translate(-256.92 -190.02)"/><path class="cls-1" d="M448.73,260.25l.93-1.39.93-1.43-3.52-4.58-1.63.55-1.57.54-2.11-2.73c1.6-.54,3.09-1,4.46-1.45s2.69-.82,3.92-1.17,2.43-.67,3.56-1,2.26-.54,3.38-.77l1.93,2.5q-.78,1.51-1.62,3.06c-.56,1-1.17,2.09-1.83,3.2s-1.36,2.28-2.13,3.5-1.6,2.54-2.53,3.95Zm6.62-10.15-.9.27-1.31.4-1.64.49-1.88.57,2.59,3.35c.37-.57.72-1.11,1.05-1.64s.63-1,.9-1.46l.71-1.18C455.07,250.56,455.23,250.29,455.35,250.1Z" transform="translate(-256.92 -190.02)"/><path class="cls-1" d="M463.84,271.62a8.6,8.6,0,0,1-3.24,1.06,6.22,6.22,0,0,1-2.89-.38,7.1,7.1,0,0,1-2.5-1.69,12.35,12.35,0,0,1-2.09-2.9c-.29-.53-.59-1.15-.93-1.88a17.91,17.91,0,0,1-.84-2.21l12.7-6.82a19.84,19.84,0,0,1,1.39,2q.66,1.07,1.08,1.86a12.46,12.46,0,0,1,1.25,3.24,7.13,7.13,0,0,1,.08,3,5.93,5.93,0,0,1-1.27,2.62A8.82,8.82,0,0,1,463.84,271.62Zm-8.69-6.26.23.5c.09.18.2.4.34.65a4.91,4.91,0,0,0,2.86,2.67,4.7,4.7,0,0,0,5.52-7.05l-.34-.62c-.13-.21-.25-.4-.37-.57Z" transform="translate(-256.92 -190.02)"/><path class="cls-1" d="M460.93,285.51l1.32-1,1.35-1.07L461.71,278H460l-1.66,0-1.13-3.26c1.68,0,3.25,0,4.69,0s2.8.07,4.09.13,2.51.14,3.68.22,2.31.2,3.45.34l1,3c-.81.8-1.65,1.59-2.51,2.39s-1.77,1.62-2.75,2.46-2,1.73-3.13,2.64-2.33,1.9-3.65,2.95Zm9.5-7.53c-.22,0-.54,0-.93,0l-1.37,0-1.72-.06-2-.05,1.38,4,1.52-1.22,1.32-1.1c.4-.34.74-.64,1.05-.89Z" transform="translate(-256.92 -190.02)"/><path class="cls-2" d="M330.86,324.51q-9.12,0-13.91-5.08T312.17,305a22.24,22.24,0,0,1,1.46-8.29,17.8,17.8,0,0,1,4-6.16,16.84,16.84,0,0,1,6.05-3.81,21.92,21.92,0,0,1,7.62-1.29,23.92,23.92,0,0,1,4.32.35,26.72,26.72,0,0,1,3.4.81,16.78,16.78,0,0,1,2.43.94c.65.33,1.12.58,1.41.76l-2.43,6.81a20.65,20.65,0,0,0-4-1.57,19.29,19.29,0,0,0-5.21-.65,11.56,11.56,0,0,0-3.81.65,8.72,8.72,0,0,0-3.3,2.08,10.4,10.4,0,0,0-2.29,3.7,15.43,15.43,0,0,0-.87,5.51,19.64,19.64,0,0,0,.57,4.84,10.25,10.25,0,0,0,1.84,3.86,8.76,8.76,0,0,0,3.32,2.57,11.85,11.85,0,0,0,5,.94,23.49,23.49,0,0,0,3.3-.21,25.68,25.68,0,0,0,2.59-.52,13,13,0,0,0,2-.67l1.56-.7,2.33,6.75a19.63,19.63,0,0,1-5,1.94A29.08,29.08,0,0,1,330.86,324.51Z" transform="translate(-256.92 -190.02)"/><path class="cls-2" d="M358.15,285.88q8.43,0,12.91,3t4.48,9.32a10.51,10.51,0,0,1-1.81,6.4,11.8,11.8,0,0,1-5.21,3.86c.76.94,1.55,2,2.38,3.22s1.65,2.46,2.46,3.78,1.59,2.68,2.35,4.1,1.45,2.82,2.1,4.19h-9.42c-.69-1.22-1.38-2.46-2.09-3.73s-1.42-2.48-2.17-3.67-1.47-2.31-2.19-3.38-1.45-2-2.17-2.89h-4.16v13.67h-8.43v-36.9a49.24,49.24,0,0,1,5.7-.76C354.84,286,356.6,285.88,358.15,285.88Zm.48,7.18c-.61,0-1.16,0-1.64.06l-1.38.11v10.15H358c3.17,0,5.44-.39,6.81-1.19a4.29,4.29,0,0,0,2.06-4.05,4.12,4.12,0,0,0-2.08-3.91A12.83,12.83,0,0,0,358.63,293.06Z" transform="translate(-256.92 -190.02)"/><path class="cls-2" d="M397.7,324.51q-9.13,0-13.92-5.08T379,305a22.24,22.24,0,0,1,1.46-8.29,17.94,17.94,0,0,1,4-6.16,16.84,16.84,0,0,1,6.05-3.81,21.92,21.92,0,0,1,7.62-1.29,23.92,23.92,0,0,1,4.32.35,26.31,26.31,0,0,1,3.4.81,15.91,15.91,0,0,1,2.43.94c.65.33,1.12.58,1.41.76l-2.43,6.81a20.65,20.65,0,0,0-4-1.57,19.29,19.29,0,0,0-5.21-.65,11.56,11.56,0,0,0-3.81.65,8.72,8.72,0,0,0-3.3,2.08,10.4,10.4,0,0,0-2.29,3.7,15.43,15.43,0,0,0-.87,5.51,19.64,19.64,0,0,0,.57,4.84,10.25,10.25,0,0,0,1.84,3.86,8.76,8.76,0,0,0,3.32,2.57,11.85,11.85,0,0,0,5,.94,23.38,23.38,0,0,0,3.3-.21,25.68,25.68,0,0,0,2.59-.52,13,13,0,0,0,2-.67l1.57-.7,2.32,6.75a19.48,19.48,0,0,1-5,1.94A29.05,29.05,0,0,1,397.7,324.51Z" transform="translate(-256.92 -190.02)"/><path class="cls-2" d="M429.73,324.51q-9.12,0-13.91-5.08T411,305a22.24,22.24,0,0,1,1.46-8.29,17.8,17.8,0,0,1,4-6.16,16.84,16.84,0,0,1,6.05-3.81,21.92,21.92,0,0,1,7.62-1.29,23.92,23.92,0,0,1,4.32.35,26.72,26.72,0,0,1,3.4.81,16.78,16.78,0,0,1,2.43.94c.65.33,1.12.58,1.41.76l-2.43,6.81a20.65,20.65,0,0,0-4-1.57,19.29,19.29,0,0,0-5.21-.65,11.56,11.56,0,0,0-3.81.65,8.72,8.72,0,0,0-3.3,2.08,10.4,10.4,0,0,0-2.29,3.7,15.43,15.43,0,0,0-.87,5.51,19.64,19.64,0,0,0,.57,4.84,10.25,10.25,0,0,0,1.84,3.86,8.76,8.76,0,0,0,3.32,2.57,11.85,11.85,0,0,0,5,.94,23.49,23.49,0,0,0,3.3-.21,25.68,25.68,0,0,0,2.59-.52,13,13,0,0,0,2-.67l1.56-.7,2.33,6.75a19.63,19.63,0,0,1-5,1.94A29.08,29.08,0,0,1,429.73,324.51Z" transform="translate(-256.92 -190.02)"/><polygon class="cls-2" points="139.34 59.53 134.46 54.66 113.52 75.6 106.14 68.22 101.26 73.09 113.56 85.39 118.39 80.47 139.34 59.53"/><path class="cls-2" d="M441.71,335h-3.88c-.11-.73-.39-1-1.13-1.06a3.7,3.7,0,0,0-1.05.08.9.9,0,0,0-.8.79c0,.46.33.65.67.77.61.22,1.23.38,1.84.57s1.09.32,1.61.54a2.51,2.51,0,0,1,1.62,3.49,5.39,5.39,0,0,1-3.31,3.47,9,9,0,0,1-5.48.49,3.19,3.19,0,0,1-2.67-2.33,5.58,5.58,0,0,1-.06-1.42c0-.07.13-.2.2-.2,1.25,0,2.49,0,3.73,0,.17.94.59,1.32,1.53,1.27a5.14,5.14,0,0,0,1.5-.31.82.82,0,0,0,.55-.83c0-.39-.32-.57-.63-.67-.87-.29-1.76-.52-2.63-.79a7.78,7.78,0,0,1-1.16-.46,2.47,2.47,0,0,1-1.38-3.15,5.12,5.12,0,0,1,3.4-3.62,8.69,8.69,0,0,1,5.17-.33,2.88,2.88,0,0,1,2.29,2.11s.05.06.07.08Z" transform="translate(-256.92 -190.02)"/><path class="cls-2" d="M384.55,344c1.21-4.25,2.39-8.44,3.58-12.63h3.67c1.26,0,2.53,0,3.78.09a5.41,5.41,0,0,1,1.68.39,1.87,1.87,0,0,1,1.17,2.34,4.43,4.43,0,0,1-2.05,2.83l-.38.24c0,.05,0,.08.05.09,1.2.41,1.52,1.57,1.16,2.85a4.86,4.86,0,0,1-4.06,3.56,13.94,13.94,0,0,1-2.33.23c-1.94,0-3.89,0-5.83,0Zm4.94-2.94c.88,0,1.7,0,2.51,0a1.51,1.51,0,0,0,1.42-1c.26-.71,0-1.18-.77-1.24s-1.51-.07-2.26-.08a.34.34,0,0,0-.28.17C389.89,339.6,389.7,340.31,389.49,341.08Zm1.29-4.57c.87-.05,1.68-.05,2.46-.16a1.28,1.28,0,0,0,1-.92c.25-.67,0-1.07-.71-1.11s-1.28,0-1.92,0c-.09,0-.24.08-.26.15C391.17,335.1,391,335.75,390.78,336.51Z" transform="translate(-256.92 -190.02)"/><path class="cls-2" d="M410.23,338.09l.6.3a1.43,1.43,0,0,1,.8,1.67c-.2,1-.45,1.91-.67,2.87-.06.26-.16.54.12.76a.19.19,0,0,1,0,.19.52.52,0,0,1-.27.13h-4l.34-1.7a15.68,15.68,0,0,0,.32-1.66.77.77,0,0,0-.78-1c-.76-.09-1.53-.09-2.3-.13-.41,1.43-.79,2.8-1.19,4.16,0,.11-.18.26-.28.26-1.27,0-2.55,0-3.89,0,.07-.29.13-.55.21-.81,1.08-3.8,2.17-7.6,3.24-11.4.09-.32.21-.44.56-.43,2.06,0,4.12,0,6.18,0a10.17,10.17,0,0,1,2.06.24c1.75.37,2.35,1.36,1.91,3.11a4.22,4.22,0,0,1-2.82,3.24Zm-5-1.2a16.51,16.51,0,0,0,1.87,0,5,5,0,0,0,1.47-.37,1.38,1.38,0,0,0,.68-1.44c-.13-.49-.56-.75-1.25-.75s-1.19,0-1.78,0a.31.31,0,0,0-.35.25C405.65,335.3,405.44,336.05,405.21,336.89Z" transform="translate(-256.92 -190.02)"/><path class="cls-2" d="M354,344c.35-1.26.68-2.45,1-3.63.82-2.89,1.66-5.78,2.47-8.68.08-.25.17-.33.44-.33,2.11,0,4.22,0,6.33,0a9.82,9.82,0,0,1,2.52.4,2,2,0,0,1,1.44,2.61,4.39,4.39,0,0,1-2.93,3.6.32.32,0,0,0-.13.08l.52.26a1.46,1.46,0,0,1,.86,1.71c-.2.95-.45,1.89-.67,2.83-.06.28-.18.57.12.8a.47.47,0,0,1-.16.3,1.6,1.6,0,0,1-.49,0h-3.58c.12-.6.22-1.14.33-1.68a16.31,16.31,0,0,0,.34-1.69.76.76,0,0,0-.73-.93,20.5,20.5,0,0,0-2.22-.09c-.08,0-.21.2-.24.32-.35,1.22-.69,2.45-1,3.67-.08.29-.18.41-.51.41C356.48,344,355.25,344,354,344Zm6.13-7.2a.74.74,0,0,0,.18.06c.54,0,1.08,0,1.62,0a2.9,2.9,0,0,0,1.62-.43,1.49,1.49,0,0,0,.58-1.42,1.12,1.12,0,0,0-1.19-.73c-.62,0-1.24,0-1.86,0a.4.4,0,0,0-.31.22C360.53,335.29,360.33,336,360.11,336.82Z" transform="translate(-256.92 -190.02)"/><path class="cls-2" d="M374.79,344.38a6,6,0,0,1-3.46-.95,3.64,3.64,0,0,1-1.55-2.79,9,9,0,0,1,6.25-9.19,7.48,7.48,0,0,1,5.11.09,3.84,3.84,0,0,1,2.46,3.6,9,9,0,0,1-7.24,9.08C375.85,344.32,375.31,344.33,374.79,344.38Zm1-3.06a2.83,2.83,0,0,0,1.91-.89,6.33,6.33,0,0,0,1.57-3.1,3.54,3.54,0,0,0,0-2.23,1.41,1.41,0,0,0-1.18-.94,2.71,2.71,0,0,0-2.59,1,6.59,6.59,0,0,0-1.57,4.24A1.7,1.7,0,0,0,375.82,341.32Z" transform="translate(-256.92 -190.02)"/><path class="cls-2" d="M338.34,336.14c-.28,1-.54,1.89-.82,2.8,0,.08-.21.14-.32.14h-4.51c-.29,0-.43.07-.5.36-.12.54-.3,1.06-.46,1.64h6.4c-.27,1-.52,1.88-.8,2.79,0,.08-.24.14-.38.14H326.78c.19-.69.36-1.33.55-2,1-3.42,2-6.84,2.93-10.27.08-.28.18-.39.5-.39h9.87c-.26.95-.51,1.86-.79,2.77,0,.08-.24.14-.37.14-1.79,0-3.58,0-5.38,0a.49.49,0,0,0-.59.45c-.1.45-.24.89-.38,1.39Z" transform="translate(-256.92 -190.02)"/><path class="cls-2" d="M312.73,344c.27-1,.52-1.89.78-2.81q1.35-4.74,2.69-9.47c.07-.28.19-.35.46-.35,2,0,3.94,0,5.91,0a8.44,8.44,0,0,1,2.29.38,2.51,2.51,0,0,1,1.87,2.87,5.8,5.8,0,0,1-5.41,5.34c-1,.08-2,.07-3,.08a.38.38,0,0,0-.44.33c-.31,1.12-.64,2.23-1,3.33,0,.12-.17.27-.27.27C315.34,344,314.06,344,312.73,344Zm6-6.89a22.49,22.49,0,0,0,2.33,0,1.67,1.67,0,0,0,1.45-1.22c.29-.84,0-1.35-.86-1.48a13.64,13.64,0,0,0-1.92-.08.29.29,0,0,0-.22.14C319.29,335.34,319,336.22,318.77,337.12Z" transform="translate(-256.92 -190.02)"/><path class="cls-2" d="M426.14,344h-4.08c0-.43,0-.85,0-1.28,0-.25-.05-.38-.35-.38-1.19,0-2.38,0-3.56,0a.61.61,0,0,0-.41.24,8.53,8.53,0,0,0-.57,1,.63.63,0,0,1-.66.41c-1.17,0-2.34,0-3.58,0,.33-.53.63-1,.94-1.48l7-10.89a.49.49,0,0,1,.48-.27c1.16,0,2.32,0,3.48,0,.35,0,.41.12.43.44.1,1.58.24,3.16.36,4.74.08,1.07.15,2.14.24,3.21.09,1.29.19,2.59.29,3.88C426.15,343.75,426.14,343.85,426.14,344Zm-6.71-4.28c.15,0,.23,0,.31,0,.66,0,1.31,0,2,0,.3,0,.38-.12.38-.41,0-1.31,0-2.62-.07-3.93,0-.05,0-.1-.06-.21Z" transform="translate(-256.92 -190.02)"/><path class="cls-2" d="M354.87,331.39c-.31,1.07-.61,2.08-.89,3.1-.06.24-.22.2-.38.2-1,0-2,0-3,0a.42.42,0,0,0-.48.38c-.8,2.86-1.62,5.71-2.42,8.58a.43.43,0,0,1-.51.38c-1.22,0-2.45,0-3.72,0l2.66-9.32h-3.72l.16-.61c.23-.81.46-1.62.7-2.43,0-.11.18-.26.28-.26C347.28,331.38,351.05,331.39,354.87,331.39Z" transform="translate(-256.92 -190.02)"/><polygon class="cls-1" points="120.3 202.75 124.4 211.07 133.58 212.4 126.94 218.87 128.51 228.01 120.3 223.7 112.09 228.01 113.66 218.87 107.02 212.4 116.2 211.07 120.3 202.75"/><polygon class="cls-1" points="84.97 196.47 89.07 204.79 98.25 206.12 91.61 212.59 93.17 221.73 84.97 217.42 76.76 221.73 78.33 212.59 71.69 206.12 80.86 204.79 84.97 196.47"/><polygon class="cls-1" points="155.38 196.47 159.48 204.79 168.66 206.12 162.02 212.59 163.58 221.73 155.38 217.42 147.17 221.73 148.74 212.59 142.1 206.12 151.27 204.79 155.38 196.47"/></svg>