<svg id="Layer_1" data-name="Layer 1" xmlns="http://www.w3.org/2000/svg" viewBox="0 0 109.35 109.35"><defs><style>.cls-1{fill:#065c70;}.cls-2{fill:#fff;}</style></defs><title>icone_normas_vigentes</title><circle class="cls-1" cx="54.68" cy="54.68" r="54.68"/><g id="Thumbs_Up" data-name="Thumbs Up"><g id="Layer_2" data-name="Layer 2"><path class="cls-2" d="M80.54,55.44H64c-4,0-5.77,1.87-7.3,3.52s-2.93,3.18-7,3.18h0a4.43,4.43,0,0,0,.51-2.08,4.65,4.65,0,0,0-1.4-3.31A4.62,4.62,0,0,0,48.89,50a4.61,4.61,0,0,0,0-6.66,4.61,4.61,0,0,0-.34-6.92A5,5,0,0,0,49.65,33V24.51c0-1.91.81-4.12,4.41-4.54V32a10.69,10.69,0,0,0,3.05,7.13,11.7,11.7,0,0,0,8.74,3.61h3.65a.83.83,0,0,0,.34,0H80.58a1.27,1.27,0,0,0,0-2.55h-9a.83.83,0,0,0-.34,0H65.86c-6.07,0-9.29-4.75-9.29-8.19V18.65a1.25,1.25,0,0,0-1.27-1.27c-5.09,0-8.23,2.76-8.23,7.17v8.36c0,1.82-.17,2.38-3.86,2.38a1.51,1.51,0,0,0-.42.08H36A4.64,4.64,0,0,0,31.37,40a4.57,4.57,0,0,0,1.4,3.31,4.55,4.55,0,0,0-1.4,3.31A4.61,4.61,0,0,0,32.81,50a4.61,4.61,0,0,0,.3,7,6.57,6.57,0,0,0-.59,3.14,4.64,4.64,0,0,0,4.62,4.62h12.6a10.48,10.48,0,0,0,8.82-4C60,59.17,61.06,58,64,58H80.54a1.27,1.27,0,0,0,0-2.55ZM47.78,53.36a2.08,2.08,0,0,1-2.08,2.08H36.16a2.08,2.08,0,0,1,0-4.16H45.7A2.08,2.08,0,0,1,47.78,53.36Zm0-6.7a2.08,2.08,0,0,1-2.08,2.08H36.16a2.08,2.08,0,0,1-.47-4.12h10a1.74,1.74,0,0,0,.47,0A2.15,2.15,0,0,1,47.78,46.65ZM36,37.87H45.7A2.08,2.08,0,0,1,46.13,42c-.13,0-.3,0-.47,0H35.52A2.07,2.07,0,0,1,36,37.87Zm1.4,24.31a2.08,2.08,0,0,1-2.08-2.08c0-2.08.34-2.08.81-2.08h9.42a2.08,2.08,0,1,1,0,4.16Z"/></g></g><path class="cls-2" d="M32.65,79.21q0-.39,0-.76t-.05-.75H30l-.42.75q-.22.38-.42.76H27.48l1.21-2.07q.57-1,1.09-1.79t1-1.6q.5-.75,1-1.47h1.39q.16.72.3,1.59t.27,1.79q.13.92.23,1.83l.2,1.71Zm-.46-5.41-.83,1.33q-.4.66-.79,1.35h1.87q0-.61-.1-1.3T32.19,73.8Z"/><path class="cls-2" d="M41.16,72.28l-.32,1.31h-2l-1.35,5.62H35.9l1.35-5.62h-2l.32-1.31Z"/><path class="cls-2" d="M40.46,79.21l1.66-6.93h4.53l-.32,1.28h-3L43,75h2.62l-.31,1.26H42.73l-.4,1.7h3.2l-.32,1.29Z"/><path class="cls-2" d="M51.08,79.21q-.42-1.18-.93-2.36A23.39,23.39,0,0,0,49,74.62l-1.1,4.59H46.4l1.66-6.93h1.19q.23.35.5.83t.54,1q.28.55.56,1.15t.53,1.17l1-4.17h1.55l-1.67,6.93Z"/><path class="cls-2" d="M60.61,75a4.71,4.71,0,0,1-.33,1.81,3.7,3.7,0,0,1-.95,1.36,4.24,4.24,0,0,1-1.5.85,6.14,6.14,0,0,1-2,.3q-.42,0-1,0a8.61,8.61,0,0,1-1.06-.16l1.61-6.69a10.66,10.66,0,0,1,1.1-.16c.35,0,.67,0,.94,0a4.07,4.07,0,0,1,1.33.2,2.78,2.78,0,0,1,1,.57,2.44,2.44,0,0,1,.62.88A3,3,0,0,1,60.61,75Zm-5,3,.23,0h.31a3.27,3.27,0,0,0,1.18-.2,2.44,2.44,0,0,0,.89-.58,2.58,2.58,0,0,0,.57-.92,3.55,3.55,0,0,0,.2-1.22,2.09,2.09,0,0,0-.09-.64,1.18,1.18,0,0,0-.29-.49,1.34,1.34,0,0,0-.53-.32,2.46,2.46,0,0,0-.78-.11l-.61,0Z"/><path class="cls-2" d="M61,79.21l1.66-6.93h4.53l-.32,1.28h-3L63.58,75H66.2l-.31,1.26H63.27l-.4,1.7h3.2l-.32,1.29Z"/><path class="cls-2" d="M73.91,79.21c0-.26,0-.51,0-.76s0-.5-.05-.75h-2.6l-.42.75q-.22.38-.42.76H68.74L70,77.14q.56-1,1.09-1.79t1-1.6q.5-.75,1-1.47h1.39q.16.72.3,1.59t.27,1.79q.12.92.23,1.83t.2,1.71Zm-.46-5.41-.82,1.33q-.41.66-.79,1.35h1.87c0-.41-.07-.84-.11-1.3S73.52,74.26,73.45,73.8Z"/><path class="cls-2" d="M78.42,78.05a3,3,0,0,0,.46,0,1.39,1.39,0,0,0,.41-.12.78.78,0,0,0,.29-.26.73.73,0,0,0,.12-.42.56.56,0,0,0-.11-.34,1.26,1.26,0,0,0-.28-.26,2.66,2.66,0,0,0-.38-.22l-.42-.22a5.64,5.64,0,0,1-.51-.34,2,2,0,0,1-.41-.41,1.91,1.91,0,0,1-.27-.5,1.86,1.86,0,0,1-.1-.63,2.1,2.1,0,0,1,.17-.86,1.89,1.89,0,0,1,.52-.68,2.5,2.5,0,0,1,.86-.46A4,4,0,0,1,80,72.12a3.49,3.49,0,0,1,.62.05,5,5,0,0,1,.56.14,3.16,3.16,0,0,1,.47.18,3.22,3.22,0,0,1,.37.21l-.65,1.15A2.33,2.33,0,0,0,80,73.4a2.36,2.36,0,0,0-.44,0,1.12,1.12,0,0,0-.37.13.74.74,0,0,0-.25.25.68.68,0,0,0-.1.37.69.69,0,0,0,.08.33.82.82,0,0,0,.2.23,1.41,1.41,0,0,0,.28.18l.34.17q.31.16.6.34a2.51,2.51,0,0,1,.51.42,1.86,1.86,0,0,1,.35.54,1.79,1.79,0,0,1,.13.71,2.2,2.2,0,0,1-.21,1,1.93,1.93,0,0,1-.59.7,2.59,2.59,0,0,1-.91.42,4.64,4.64,0,0,1-1.17.14,4.15,4.15,0,0,1-.79-.07,5.66,5.66,0,0,1-.66-.17,3.49,3.49,0,0,1-.51-.21,2.92,2.92,0,0,1-.34-.2l.66-1.19.29.17.38.17a3.48,3.48,0,0,0,.46.13A2.2,2.2,0,0,0,78.42,78.05Z"/><path class="cls-2" d="M38.23,89.21q-.42-1.18-.94-2.36a23.16,23.16,0,0,0-1.12-2.23l-1.1,4.59H33.55l1.66-6.93H36.4q.23.35.5.83t.54,1q.28.55.56,1.15t.53,1.17l1-4.17h1.55L39.4,89.21Z"/><path class="cls-2" d="M44.23,89.35a3,3,0,0,1-1.12-.2,2.51,2.51,0,0,1-.88-.58,2.6,2.6,0,0,1-.57-.92,3.42,3.42,0,0,1-.21-1.22,4.66,4.66,0,0,1,.27-1.55,4.53,4.53,0,0,1,.78-1.39,4,4,0,0,1,1.23-1,3.5,3.5,0,0,1,1.65-.38,3,3,0,0,1,1.12.2,2.52,2.52,0,0,1,.88.58,2.59,2.59,0,0,1,.58.92A3.41,3.41,0,0,1,48.16,85a4.78,4.78,0,0,1-.27,1.55A4.43,4.43,0,0,1,47.12,88a3.92,3.92,0,0,1-1.24,1A3.53,3.53,0,0,1,44.23,89.35Zm1-5.89a1.61,1.61,0,0,0-.85.24,2.41,2.41,0,0,0-.69.64,3.16,3.16,0,0,0-.46.92A3.51,3.51,0,0,0,43,86.33a2.13,2.13,0,0,0,.32,1.21,1.15,1.15,0,0,0,1,.46,1.62,1.62,0,0,0,.86-.24,2.42,2.42,0,0,0,.69-.64,3.11,3.11,0,0,0,.46-.92,3.48,3.48,0,0,0,.17-1.07,2.13,2.13,0,0,0-.31-1.22A1.15,1.15,0,0,0,45.22,83.46Z"/><path class="cls-2" d="M52.15,82.2a3.85,3.85,0,0,1,1.17.16,2.49,2.49,0,0,1,.83.43,1.68,1.68,0,0,1,.49.63,1.9,1.9,0,0,1,.16.77,2.84,2.84,0,0,1-.08.65,1.73,1.73,0,0,1-.28.61,2.27,2.27,0,0,1-.55.54,3.16,3.16,0,0,1-.88.42,12.46,12.46,0,0,1,.58,1.26q.29.74.55,1.55H52.47L52,87.85a6.5,6.5,0,0,0-.53-1.16H50.7l-.61,2.53H48.54l1.63-6.83a10.11,10.11,0,0,1,1-.14C51.56,82.22,51.87,82.2,52.15,82.2Zm0,1.32h-.35l-.3,0L51,85.45h.53a3.14,3.14,0,0,0,.81-.09,1.59,1.59,0,0,0,.53-.24.88.88,0,0,0,.29-.34,1,1,0,0,0,.08-.4,1,1,0,0,0-.05-.32.63.63,0,0,0-.18-.28.92.92,0,0,0-.35-.19A1.92,1.92,0,0,0,52.1,83.52Z"/><path class="cls-2" d="M58.51,82.28q.06.27.16.76t.2,1.09l.21,1.22.2,1.14L60,85.38l.79-1.18.74-1.08q.35-.51.6-.83h1.38q-.07.69-.19,1.55t-.26,1.78q-.15.92-.3,1.85t-.32,1.75H60.94q.21-1,.45-2.21t.44-2.39l-.58.92-.64,1-.62,1-.52.8H58.32q-.05-.3-.12-.76t-.16-1l-.17-1c-.06-.35-.12-.67-.17-.95Q57.31,85.82,57,87l-.58,2.21H54.9q.23-.82.51-1.75T56,85.61q.3-.93.58-1.79t.55-1.54Z"/><path class="cls-2" d="M68.45,89.21c0-.26,0-.51,0-.76s0-.5-.05-.75h-2.6l-.42.75q-.22.38-.42.76H63.28l1.22-2.07q.56-1,1.09-1.79t1-1.6q.5-.75,1-1.47H69q.16.72.3,1.59t.27,1.79q.12.92.23,1.83t.2,1.71ZM68,83.8l-.82,1.33q-.41.66-.79,1.35h1.87c0-.41-.07-.84-.11-1.3S68.05,84.26,68,83.8Z"/><path class="cls-2" d="M73,88.05a3,3,0,0,0,.46,0,1.39,1.39,0,0,0,.41-.12.78.78,0,0,0,.29-.26.72.72,0,0,0,.12-.42.56.56,0,0,0-.11-.34,1.25,1.25,0,0,0-.28-.26,2.66,2.66,0,0,0-.38-.22L73,86.16a5.64,5.64,0,0,1-.51-.34,2,2,0,0,1-.41-.41,1.88,1.88,0,0,1-.27-.5,1.86,1.86,0,0,1-.1-.63,2.08,2.08,0,0,1,.17-.86,1.89,1.89,0,0,1,.52-.68,2.52,2.52,0,0,1,.87-.46,4,4,0,0,1,1.22-.17,3.48,3.48,0,0,1,.62.05,5,5,0,0,1,.56.14,3.2,3.2,0,0,1,.47.18,3.3,3.3,0,0,1,.37.21l-.65,1.15a2.33,2.33,0,0,0-1.39-.45,2.38,2.38,0,0,0-.44,0,1.13,1.13,0,0,0-.37.13.75.75,0,0,0-.25.25.68.68,0,0,0-.09.37.69.69,0,0,0,.08.33.81.81,0,0,0,.19.23,1.44,1.44,0,0,0,.28.18l.34.17q.31.16.6.34a2.51,2.51,0,0,1,.51.42,1.84,1.84,0,0,1,.35.54,1.77,1.77,0,0,1,.13.71,2.18,2.18,0,0,1-.21,1,1.92,1.92,0,0,1-.59.7,2.58,2.58,0,0,1-.9.42,4.65,4.65,0,0,1-1.17.14,4.15,4.15,0,0,1-.79-.07,5.56,5.56,0,0,1-.66-.17,3.41,3.41,0,0,1-.51-.21,3,3,0,0,1-.35-.2l.66-1.19.29.17.38.17a3.48,3.48,0,0,0,.46.13A2.21,2.21,0,0,0,73,88.05Z"/><path class="cls-2" d="M33.15,99.21q-.16-.85-.3-1.76t-.28-1.81q-.13-.9-.23-1.76t-.17-1.6h1.67q0,.57.07,1.22T34,94.83q.06.67.13,1.32t.13,1.22l.67-1.14q.35-.62.72-1.29t.72-1.35q.35-.68.65-1.31H38.7l-.83,1.55q-.45.83-1,1.72t-1.09,1.82q-.58.92-1.21,1.84Z"/><path class="cls-2" d="M39.76,92.28h1.56l-1.67,6.93H38.1Z"/><path class="cls-2" d="M44.76,98h.36l.29,0L46,95.55h1.56L46.71,99a5.07,5.07,0,0,1-.81.21,7.13,7.13,0,0,1-1.35.1,3.44,3.44,0,0,1-1.24-.21,2.36,2.36,0,0,1-.89-.58,2.42,2.42,0,0,1-.54-.92,3.84,3.84,0,0,1-.18-1.22A4.58,4.58,0,0,1,42,94.86a4.08,4.08,0,0,1,2.16-2.36A4.25,4.25,0,0,1,46,92.12a4,4,0,0,1,1,.14,3.26,3.26,0,0,1,1,.42l-.56,1.21a2.78,2.78,0,0,0-.75-.33,2.89,2.89,0,0,0-.78-.11,2.46,2.46,0,0,0-1.08.23,2.39,2.39,0,0,0-.8.63,2.74,2.74,0,0,0-.5.91,3.53,3.53,0,0,0-.17,1.1,1.88,1.88,0,0,0,.37,1.29A1.39,1.39,0,0,0,44.76,98Z"/><path class="cls-2" d="M48.1,99.21l1.66-6.93h4.53L54,93.56H51L50.68,95H53.3L53,96.22H50.37l-.4,1.7h3.2l-.32,1.29Z"/><path class="cls-2" d="M58.72,99.21q-.42-1.18-.94-2.36a23.16,23.16,0,0,0-1.12-2.23l-1.1,4.59H54l1.66-6.93h1.19q.23.35.5.83t.54,1q.28.55.56,1.15T59,96.45l1-4.17h1.55l-1.67,6.93Z"/><path class="cls-2" d="M68.1,92.28l-.32,1.31h-2L64.4,99.21H62.84l1.35-5.62h-2l.32-1.31Z"/><path class="cls-2" d="M67.4,99.21l1.66-6.93h4.53l-.32,1.28h-3L70,95H72.6l-.31,1.26H69.67l-.4,1.7h3.2l-.32,1.29Z"/><path class="cls-2" d="M75.28,98.05a3,3,0,0,0,.46,0,1.39,1.39,0,0,0,.41-.12.78.78,0,0,0,.29-.26.73.73,0,0,0,.12-.42.56.56,0,0,0-.11-.34,1.26,1.26,0,0,0-.28-.26,2.66,2.66,0,0,0-.38-.22l-.42-.22a5.64,5.64,0,0,1-.51-.34,2,2,0,0,1-.41-.41,1.91,1.91,0,0,1-.27-.5,1.86,1.86,0,0,1-.1-.63,2.1,2.1,0,0,1,.17-.86,1.89,1.89,0,0,1,.52-.68,2.5,2.5,0,0,1,.86-.46,4,4,0,0,1,1.22-.17,3.49,3.49,0,0,1,.62.05,5,5,0,0,1,.56.14,3.16,3.16,0,0,1,.47.18,3.22,3.22,0,0,1,.37.21l-.65,1.15a2.33,2.33,0,0,0-1.39-.45,2.36,2.36,0,0,0-.44,0,1.12,1.12,0,0,0-.37.13.74.74,0,0,0-.25.25.68.68,0,0,0-.1.37.69.69,0,0,0,.08.33.82.82,0,0,0,.2.23,1.41,1.41,0,0,0,.28.18l.34.17q.31.16.6.34a2.51,2.51,0,0,1,.51.42,1.86,1.86,0,0,1,.35.54,1.79,1.79,0,0,1,.13.71,2.2,2.2,0,0,1-.21,1,1.93,1.93,0,0,1-.59.7,2.59,2.59,0,0,1-.91.42,4.64,4.64,0,0,1-1.17.14,4.15,4.15,0,0,1-.79-.07,5.66,5.66,0,0,1-.66-.17,3.49,3.49,0,0,1-.51-.21,2.92,2.92,0,0,1-.34-.2l.66-1.19.29.17.38.17a3.48,3.48,0,0,0,.46.13A2.2,2.2,0,0,0,75.28,98.05Z"/></svg>