<svg id="Layer_1" data-name="Layer 1" xmlns="http://www.w3.org/2000/svg" viewBox="0 0 109.35 109.35"><defs><style>.cls-1{fill:#55b948;}.cls-2{fill:#fff;}</style></defs><title>icone_ecolog_correto</title><circle class="cls-1" cx="54.68" cy="54.68" r="54.68"/><path class="cls-2" d="M10.05,77.21l1.66-6.93h4.53l-.32,1.28H13L12.63,73h2.62l-.31,1.26H12.32l-.4,1.7h3.2l-.32,1.29Z"/><path class="cls-2" d="M21.38,76.91a4.42,4.42,0,0,1-.91.32,5.3,5.3,0,0,1-1.22.12,3,3,0,0,1-1.13-.21,2.46,2.46,0,0,1-.88-.58,2.61,2.61,0,0,1-.57-.93,3.52,3.52,0,0,1-.2-1.22,4.58,4.58,0,0,1,.28-1.55,4.13,4.13,0,0,1,2.12-2.36,4,4,0,0,1,1.79-.38,4.09,4.09,0,0,1,.94.11,3.91,3.91,0,0,1,1,.39L22,71.83a3.37,3.37,0,0,0-.75-.3,3,3,0,0,0-.71-.08,2.24,2.24,0,0,0-1,.23,2.4,2.4,0,0,0-.78.63,2.79,2.79,0,0,0-.5.91,3.52,3.52,0,0,0-.17,1.1,1.8,1.8,0,0,0,.38,1.28,1.46,1.46,0,0,0,1.11.4,3.68,3.68,0,0,0,.88-.1,4.29,4.29,0,0,0,.75-.26Z"/><path class="cls-2" d="M25.43,77.35a3,3,0,0,1-1.12-.2,2.5,2.5,0,0,1-.88-.57,2.6,2.6,0,0,1-.57-.92,3.42,3.42,0,0,1-.21-1.22,4.66,4.66,0,0,1,.27-1.55,4.53,4.53,0,0,1,.78-1.39,4,4,0,0,1,1.23-1,3.49,3.49,0,0,1,1.65-.38,3,3,0,0,1,1.12.2,2.52,2.52,0,0,1,.88.58,2.59,2.59,0,0,1,.58.92A3.42,3.42,0,0,1,29.36,73a4.78,4.78,0,0,1-.27,1.56A4.43,4.43,0,0,1,28.33,76a3.91,3.91,0,0,1-1.24,1A3.54,3.54,0,0,1,25.43,77.35Zm1-5.89a1.61,1.61,0,0,0-.85.24,2.4,2.4,0,0,0-.69.64,3.15,3.15,0,0,0-.46.92,3.51,3.51,0,0,0-.17,1.07,2.13,2.13,0,0,0,.32,1.21,1.15,1.15,0,0,0,1,.46,1.62,1.62,0,0,0,.86-.24,2.42,2.42,0,0,0,.69-.64,3.11,3.11,0,0,0,.46-.92,3.49,3.49,0,0,0,.17-1.07,2.13,2.13,0,0,0-.31-1.22A1.15,1.15,0,0,0,26.42,71.46Z"/><path class="cls-2" d="M34.68,75.89l-.32,1.32H29.74l1.66-6.93H33l-1.35,5.61Z"/><path class="cls-2" d="M38,77.35a3,3,0,0,1-1.12-.2,2.5,2.5,0,0,1-.88-.57,2.59,2.59,0,0,1-.58-.92,3.42,3.42,0,0,1-.21-1.22,4.64,4.64,0,0,1,.27-1.55,4.53,4.53,0,0,1,.77-1.39,4,4,0,0,1,1.24-1,3.48,3.48,0,0,1,1.65-.38,3,3,0,0,1,1.12.2,2.51,2.51,0,0,1,.88.58,2.6,2.6,0,0,1,.57.92A3.42,3.42,0,0,1,42,73a4.78,4.78,0,0,1-.26,1.56A4.43,4.43,0,0,1,40.94,76a3.91,3.91,0,0,1-1.23,1A3.54,3.54,0,0,1,38,77.35Zm1-5.89a1.62,1.62,0,0,0-.86.24,2.4,2.4,0,0,0-.69.64,3.11,3.11,0,0,0-.46.92,3.51,3.51,0,0,0-.17,1.07,2.13,2.13,0,0,0,.31,1.21,1.15,1.15,0,0,0,1,.46,1.61,1.61,0,0,0,.85-.24,2.42,2.42,0,0,0,.69-.64,3.16,3.16,0,0,0,.46-.92,3.49,3.49,0,0,0,.17-1.07,2.13,2.13,0,0,0-.32-1.22A1.15,1.15,0,0,0,39,71.46Z"/><path class="cls-2" d="M45.89,76h.36l.29,0,.58-2.41h1.56L47.84,77a5,5,0,0,1-.81.21,7.13,7.13,0,0,1-1.35.1,3.43,3.43,0,0,1-1.23-.21,2.38,2.38,0,0,1-.9-.58,2.43,2.43,0,0,1-.54-.92,3.84,3.84,0,0,1-.18-1.22,4.6,4.6,0,0,1,.27-1.55,4.09,4.09,0,0,1,2.16-2.36,4.24,4.24,0,0,1,1.84-.38,4,4,0,0,1,1,.14,3.28,3.28,0,0,1,1,.42l-.56,1.21a2.79,2.79,0,0,0-.75-.33,2.88,2.88,0,0,0-.77-.11,2.46,2.46,0,0,0-1.08.23,2.39,2.39,0,0,0-.81.63,2.74,2.74,0,0,0-.5.91,3.52,3.52,0,0,0-.17,1.1,1.89,1.89,0,0,0,.37,1.29A1.39,1.39,0,0,0,45.89,76Z"/><path class="cls-2" d="M50.89,70.28h1.56l-1.67,6.93H49.23Z"/><path class="cls-2" d="M57.74,76.91a4.42,4.42,0,0,1-.91.32,5.3,5.3,0,0,1-1.22.12,3,3,0,0,1-1.13-.21,2.46,2.46,0,0,1-.88-.58,2.61,2.61,0,0,1-.57-.93,3.52,3.52,0,0,1-.2-1.22,4.58,4.58,0,0,1,.28-1.55,4.13,4.13,0,0,1,2.12-2.36A4,4,0,0,1,57,70.12a4.09,4.09,0,0,1,.94.11,3.91,3.91,0,0,1,1,.39l-.56,1.21a3.37,3.37,0,0,0-.75-.3,3,3,0,0,0-.71-.08,2.24,2.24,0,0,0-1,.23,2.4,2.4,0,0,0-.78.63,2.79,2.79,0,0,0-.5.91,3.52,3.52,0,0,0-.17,1.1,1.8,1.8,0,0,0,.38,1.28,1.46,1.46,0,0,0,1.11.4,3.68,3.68,0,0,0,.88-.1,4.29,4.29,0,0,0,.75-.26Z"/><path class="cls-2" d="M63.4,77.21q0-.39,0-.77t-.05-.74H60.7l-.42.74q-.22.38-.42.77H58.23l1.21-2.07q.57-.95,1.09-1.79t1-1.6q.5-.76,1-1.48H64q.16.72.3,1.6t.27,1.79q.13.91.23,1.83l.2,1.71Zm-.46-5.41-.83,1.33q-.4.66-.79,1.35H63.2q0-.61-.1-1.3T62.94,71.8Z"/><path class="cls-2" d="M69.38,70.28c0,.18.09.44.15.77s.13.69.2,1.09L70,73.36l.2,1.15.74-1.12.79-1.18.74-1.09q.35-.5.6-.83H74.4q-.07.69-.18,1.55T74,73.61q-.15.92-.3,1.85t-.32,1.75H71.81q.21-1,.45-2.21t.43-2.4l-.58.92-.64,1-.62,1-.52.8H69.19l-.12-.76q-.07-.46-.16-1t-.17-1q-.09-.53-.17-.95-.39,1.21-.71,2.4l-.58,2.21H65.77q.23-.82.5-1.75t.57-1.85q.29-.93.58-1.79T68,70.28Z"/><path class="cls-2" d="M74.75,77.21l1.66-6.93h4.53l-.32,1.28h-3L77.33,73H80l-.31,1.26H77l-.4,1.7h3.2l-.32,1.29Z"/><path class="cls-2" d="M85.37,77.21Q85,76,84.44,74.85a23.38,23.38,0,0,0-1.12-2.23l-1.1,4.59H80.69l1.66-6.93h1.19q.23.35.5.83t.54,1q.28.55.56,1.15t.53,1.18l1-4.17h1.55l-1.67,6.93Z"/><path class="cls-2" d="M94.75,70.28l-.32,1.31h-2l-1.35,5.62H89.49l1.35-5.62h-2l.32-1.31Z"/><path class="cls-2" d="M94.05,77.21l1.66-6.93h4.53l-.32,1.28H97L96.63,73h2.62l-.31,1.26H96.32l-.4,1.7h3.2l-.32,1.29Z"/><path class="cls-2" d="M37.3,88.91a4.41,4.41,0,0,1-.91.32,5.31,5.31,0,0,1-1.22.12A3,3,0,0,1,34,89.15a2.45,2.45,0,0,1-.88-.58,2.61,2.61,0,0,1-.56-.92,3.52,3.52,0,0,1-.2-1.22,4.59,4.59,0,0,1,.27-1.55,4.14,4.14,0,0,1,2.12-2.36,4,4,0,0,1,1.79-.38,4.1,4.1,0,0,1,.95.11,4,4,0,0,1,1,.39l-.56,1.21a3.36,3.36,0,0,0-.75-.3,3,3,0,0,0-.71-.08,2.24,2.24,0,0,0-1,.23,2.41,2.41,0,0,0-.78.63,2.79,2.79,0,0,0-.5.92,3.52,3.52,0,0,0-.17,1.1,1.8,1.8,0,0,0,.39,1.28,1.46,1.46,0,0,0,1.1.4,3.7,3.7,0,0,0,.88-.1,4.3,4.3,0,0,0,.76-.26Z"/><path class="cls-2" d="M41.35,89.35a3.05,3.05,0,0,1-1.12-.2,2.51,2.51,0,0,1-.88-.58,2.59,2.59,0,0,1-.58-.92,3.42,3.42,0,0,1-.21-1.22,4.64,4.64,0,0,1,.27-1.55,4.54,4.54,0,0,1,.77-1.38,4,4,0,0,1,1.24-1,3.48,3.48,0,0,1,1.65-.38,3,3,0,0,1,1.12.2,2.5,2.5,0,0,1,.88.57,2.61,2.61,0,0,1,.57.92A3.42,3.42,0,0,1,45.28,85,4.78,4.78,0,0,1,45,86.59,4.42,4.42,0,0,1,44.25,88,3.91,3.91,0,0,1,43,89,3.54,3.54,0,0,1,41.35,89.35Zm1-5.89a1.62,1.62,0,0,0-.86.24,2.4,2.4,0,0,0-.69.64,3.1,3.1,0,0,0-.46.92,3.51,3.51,0,0,0-.17,1.07,2.13,2.13,0,0,0,.31,1.21,1.15,1.15,0,0,0,1,.46,1.61,1.61,0,0,0,.85-.24,2.4,2.4,0,0,0,.69-.64,3.16,3.16,0,0,0,.46-.92,3.49,3.49,0,0,0,.17-1.08,2.13,2.13,0,0,0-.32-1.21A1.15,1.15,0,0,0,42.34,83.46Z"/><path class="cls-2" d="M49.27,82.2a3.82,3.82,0,0,1,1.17.16,2.5,2.5,0,0,1,.83.43,1.7,1.7,0,0,1,.49.63,1.89,1.89,0,0,1,.16.77,2.84,2.84,0,0,1-.07.65,1.75,1.75,0,0,1-.28.61A2.3,2.3,0,0,1,51,86a3.19,3.19,0,0,1-.88.42,12.26,12.26,0,0,1,.57,1.26q.3.74.56,1.55H49.59q-.23-.69-.47-1.37a6.45,6.45,0,0,0-.52-1.17h-.78l-.61,2.53H45.66l1.63-6.83a10.09,10.09,0,0,1,1.05-.14Q48.85,82.2,49.27,82.2Zm0,1.32h-.35l-.3,0-.45,1.9h.53a3.14,3.14,0,0,0,.81-.09,1.58,1.58,0,0,0,.53-.24.87.87,0,0,0,.29-.34,1,1,0,0,0,.08-.4,1.06,1.06,0,0,0,0-.33.65.65,0,0,0-.18-.27.93.93,0,0,0-.35-.19A1.87,1.87,0,0,0,49.22,83.52Z"/><path class="cls-2" d="M55.83,82.2a3.82,3.82,0,0,1,1.17.16,2.5,2.5,0,0,1,.83.43,1.7,1.7,0,0,1,.49.63,1.89,1.89,0,0,1,.16.77,2.84,2.84,0,0,1-.07.65,1.75,1.75,0,0,1-.28.61,2.3,2.3,0,0,1-.55.54,3.19,3.19,0,0,1-.88.42,12.26,12.26,0,0,1,.57,1.26q.3.74.56,1.55H56.15q-.23-.69-.47-1.37a6.45,6.45,0,0,0-.52-1.17h-.78l-.61,2.53H52.22l1.63-6.83a10.09,10.09,0,0,1,1.05-.14Q55.41,82.2,55.83,82.2Zm0,1.32h-.35l-.3,0-.45,1.9h.53a3.14,3.14,0,0,0,.81-.09,1.58,1.58,0,0,0,.53-.24.87.87,0,0,0,.29-.34,1,1,0,0,0,.08-.4,1.06,1.06,0,0,0,0-.33.65.65,0,0,0-.18-.27.93.93,0,0,0-.35-.19A1.87,1.87,0,0,0,55.78,83.52Z"/><path class="cls-2" d="M58.78,89.21l1.66-6.93H65l-.32,1.28h-3L61.36,85H64l-.31,1.26H61.05l-.4,1.7h3.2l-.32,1.29Z"/><path class="cls-2" d="M71.36,82.28,71,83.59H69l-1.35,5.62H66.1l1.35-5.62h-2l.32-1.31Z"/><path class="cls-2" d="M73.82,89.35a3,3,0,0,1-1.12-.2,2.51,2.51,0,0,1-.88-.58,2.61,2.61,0,0,1-.57-.92A3.42,3.42,0,0,1,71,86.44a4.67,4.67,0,0,1,.27-1.55,4.54,4.54,0,0,1,.78-1.38,4,4,0,0,1,1.23-1A3.48,3.48,0,0,1,75,82.12a3,3,0,0,1,1.12.2,2.5,2.5,0,0,1,.88.57,2.59,2.59,0,0,1,.58.92A3.42,3.42,0,0,1,77.75,85a4.78,4.78,0,0,1-.27,1.55A4.41,4.41,0,0,1,76.72,88a3.91,3.91,0,0,1-1.24,1A3.53,3.53,0,0,1,73.82,89.35Zm1-5.89a1.61,1.61,0,0,0-.85.24,2.41,2.41,0,0,0-.69.64,3.15,3.15,0,0,0-.46.92,3.51,3.51,0,0,0-.17,1.07A2.13,2.13,0,0,0,73,87.55,1.15,1.15,0,0,0,74,88a1.62,1.62,0,0,0,.86-.24,2.4,2.4,0,0,0,.69-.64,3.11,3.11,0,0,0,.46-.92,3.49,3.49,0,0,0,.17-1.08,2.13,2.13,0,0,0-.31-1.21A1.15,1.15,0,0,0,74.81,83.46Z"/><g id="Leaf"><path class="cls-2" d="M34.05,53a5.68,5.68,0,0,0,4,9.69,5.61,5.61,0,0,0,4-1.67l.19-.2,6.23-7.49.12.2a3,3,0,0,0,2.53,1.39h0c7.66-.09,13.33-2.37,18.37-7.41,6.53-6.53,8.57-14.39,6.82-26.26a3,3,0,0,0-2.53-2.53,51.87,51.87,0,0,0-7.45-.6c-7.89,0-13.69,2.28-18.81,7.41-5.7,5.7-8,12.55-7.28,22.06l-6.07,5.27A.61.61,0,0,0,34.05,53Zm2.12,2.12,7.23-6.27c-1.09-10.46,1.47-16.39,6.28-21.19,4.07-4.07,8.94-6.53,16.69-6.53a47.86,47.86,0,0,1,7,.56c1.78,12.06-.78,18.52-6,23.71-4,4-8.77,6.44-16.28,6.52l7.41-15.39L40,58.91a2.67,2.67,0,1,1-3.78-3.77Z"/></g></svg>