<svg id="Layer_1" data-name="Layer 1" xmlns="http://www.w3.org/2000/svg" viewBox="0 0 109.35 109.35"><defs><style>.cls-1{fill:#57c1a9;}.cls-2{fill:#fff;}</style></defs><title>icone_mat_prfv</title><circle class="cls-1" cx="54.68" cy="54.68" r="54.68"/><path class="cls-2" d="M33.94,73.11q.06.27.16.77T34.3,75l.21,1.22.2,1.15.74-1.12L36.24,75,37,73.94q.35-.5.6-.83H39q-.07.69-.19,1.55t-.26,1.78q-.15.92-.3,1.85T37.89,80H36.37q.21-1,.45-2.21t.44-2.4l-.58.92-.64,1-.62,1-.52.8H33.75q-.05-.3-.12-.76t-.16-1l-.17-1q-.09-.53-.17-.95-.39,1.21-.71,2.4L31.84,80H30.33q.23-.82.51-1.75t.57-1.85q.3-.93.58-1.79t.55-1.54Z"/><path class="cls-2" d="M43.88,80c0-.26,0-.52,0-.77s0-.5-.05-.74h-2.6l-.42.74q-.22.38-.42.77H38.71L39.93,78Q40.49,77,41,76.18t1-1.6q.5-.76,1-1.48h1.39q.16.72.3,1.6T45,76.49q.12.91.23,1.83t.2,1.71Zm-.46-5.41L42.6,76q-.41.66-.79,1.35h1.87c0-.41-.07-.84-.11-1.3S43.49,75.09,43.42,74.63Z"/><path class="cls-2" d="M52.39,73.11l-.32,1.31H50L48.69,80H47.13l1.35-5.62h-2l.32-1.31Z"/><path class="cls-2" d="M51.69,80l1.66-6.93h4.53l-.32,1.28h-3l-.32,1.4h2.62L56.58,77H54l-.4,1.7h3.2L56.44,80Z"/><path class="cls-2" d="M61.24,73a3.86,3.86,0,0,1,1.17.16,2.5,2.5,0,0,1,.83.43,1.69,1.69,0,0,1,.49.63,1.87,1.87,0,0,1,.16.77,2.8,2.8,0,0,1-.08.65,1.72,1.72,0,0,1-.28.61,2.29,2.29,0,0,1-.55.53,3.16,3.16,0,0,1-.89.42,12.2,12.2,0,0,1,.58,1.26q.29.74.55,1.55H61.56l-.46-1.37a6.44,6.44,0,0,0-.53-1.16h-.78L59.18,80H57.63l1.63-6.83a10.23,10.23,0,0,1,1.05-.14C60.65,73,61,73,61.24,73Zm-.05,1.32h-.35l-.3,0-.45,1.9h.53a3.11,3.11,0,0,0,.81-.09,1.59,1.59,0,0,0,.53-.24.87.87,0,0,0,.29-.35,1,1,0,0,0,.08-.4,1.05,1.05,0,0,0,0-.32.65.65,0,0,0-.18-.28.92.92,0,0,0-.35-.19A1.89,1.89,0,0,0,61.19,74.35Z"/><path class="cls-2" d="M65.85,73.11h1.56L65.74,80H64.19Z"/><path class="cls-2" d="M71.88,80q0-.39,0-.77c0-.25,0-.5-.06-.74h-2.6l-.42.74q-.22.38-.42.77H66.71L67.93,78Q68.49,77,69,76.18t1-1.6q.5-.76,1-1.48h1.39q.16.72.31,1.6T73,76.49q.12.91.23,1.83L73.45,80Zm-.46-5.41L70.6,76q-.41.66-.79,1.35h1.87L71.58,76Q71.52,75.32,71.42,74.63Z"/><path class="cls-2" d="M79.31,78.72,79,80H74.37L76,73.11h1.56l-1.35,5.61Z"/><path class="cls-2" d="M46.05,85a4.41,4.41,0,0,1,1.14.13,2.56,2.56,0,0,1,.85.39,1.76,1.76,0,0,1,.54.63,1.79,1.79,0,0,1,.19.83,2.57,2.57,0,0,1-.29,1.27,2.3,2.3,0,0,1-.8.84,3.6,3.6,0,0,1-1.2.46,7.52,7.52,0,0,1-1.5.14h-.39L44,92H42.48l1.63-6.83c.36-.07.7-.11,1-.14S45.76,85,46.05,85Zm-.13,1.31h-.29l-.24,0-.48,2h.39a4.1,4.1,0,0,0,.77-.07,1.72,1.72,0,0,0,.59-.21,1.08,1.08,0,0,0,.38-.38,1.14,1.14,0,0,0,.13-.58.68.68,0,0,0-.32-.64A1.85,1.85,0,0,0,45.92,86.34Z"/><path class="cls-2" d="M52.48,85a3.86,3.86,0,0,1,1.17.16,2.5,2.5,0,0,1,.83.43,1.7,1.7,0,0,1,.49.63,1.89,1.89,0,0,1,.16.77,2.85,2.85,0,0,1-.07.65,1.75,1.75,0,0,1-.28.61,2.3,2.3,0,0,1-.55.54,3.19,3.19,0,0,1-.88.42,12.26,12.26,0,0,1,.57,1.26q.3.74.56,1.55H52.8q-.23-.69-.47-1.37a6.45,6.45,0,0,0-.52-1.17H51L50.42,92H48.87l1.63-6.83a10.23,10.23,0,0,1,1.05-.14Q52.06,85,52.48,85Zm0,1.32h-.35l-.3,0-.45,1.9h.53a3.14,3.14,0,0,0,.81-.09,1.58,1.58,0,0,0,.53-.24.86.86,0,0,0,.29-.35,1,1,0,0,0,.08-.4,1.05,1.05,0,0,0,0-.32.64.64,0,0,0-.18-.28.93.93,0,0,0-.35-.19A1.89,1.89,0,0,0,52.43,86.35Z"/><path class="cls-2" d="M55.43,92l1.66-6.93h4.49l-.32,1.29H58.33L58,87.88h2.59l-.31,1.29H57.67L57,92Z"/><path class="cls-2" d="M63.11,92q-.16-.85-.3-1.76t-.28-1.81q-.13-.9-.23-1.75t-.17-1.6H63.8q0,.57.08,1.23t.1,1.32q.06.67.12,1.32t.13,1.23l.67-1.14q.36-.62.72-1.29t.72-1.35q.35-.68.66-1.31h1.66l-.83,1.55q-.45.83-1,1.72t-1.09,1.82q-.57.92-1.21,1.84Z"/><path class="cls-2" d="M54.68,65.47A26.61,26.61,0,1,1,81.28,38.86,26.64,26.64,0,0,1,54.68,65.47Zm0-50.22A23.61,23.61,0,1,0,78.28,38.86,23.63,23.63,0,0,0,54.68,15.25Z"/><path class="cls-2" d="M48.41,31.9a.84.84,0,0,1-.59-1.44L58.46,19.81A.84.84,0,0,1,59.65,21L49,31.65A.84.84,0,0,1,48.41,31.9Z"/><path class="cls-2" d="M41.21,46.53a.84.84,0,0,1-.59-1.44L51.27,34.44a.84.84,0,0,1,1.19,1.19L41.81,46.29A.84.84,0,0,1,41.21,46.53Z"/><path class="cls-2" d="M55.82,42.82a.84.84,0,0,1-.59-1.44L65.88,30.73a.84.84,0,1,1,1.19,1.19L56.41,42.57A.84.84,0,0,1,55.82,42.82Z"/><path class="cls-2" d="M49.35,57a.84.84,0,0,1-.59-1.44L59.41,45a.84.84,0,0,1,1.19,1.19L49.94,56.8A.84.84,0,0,1,49.35,57Z"/><path class="cls-2" d="M37.29,34.94a.84.84,0,0,1-.59-1.44L47.35,22.85A.84.84,0,0,1,48.54,24L37.88,34.69A.84.84,0,0,1,37.29,34.94Z"/><path class="cls-2" d="M63.52,53.74a.84.84,0,0,1-.59-1.44L73.58,41.65a.84.84,0,0,1,1.19,1.19L64.12,53.49A.84.84,0,0,1,63.52,53.74Z"/><path class="cls-2" d="M63.11,33.68a.84.84,0,0,1-.59-.25L51.86,22.78A.84.84,0,1,1,53,21.58L63.7,32.24a.84.84,0,0,1-.59,1.44Z"/><path class="cls-2" d="M71,51a.84.84,0,0,1-.59-.25L54.67,35.07a.84.84,0,1,1,1.19-1.19L71.56,49.58A.84.84,0,0,1,71,51Z"/><path class="cls-2" d="M51.31,42.26a.84.84,0,0,1-.59-.25L36.81,28.1A.84.84,0,1,1,38,26.91L51.91,40.82a.84.84,0,0,1-.59,1.44Z"/><path class="cls-2" d="M61.56,56.23A.84.84,0,0,1,61,56L50.31,45.33a.84.84,0,0,1,1.19-1.19L62.16,54.8a.84.84,0,0,1-.59,1.44Z"/><path class="cls-2" d="M47.94,48.84a.84.84,0,0,1-.59-.25L36.69,37.94a.84.84,0,0,1,1.19-1.19L48.54,47.4a.84.84,0,0,1-.59,1.44Z"/></svg>