<svg id="Layer_1" data-name="Layer 1" xmlns="http://www.w3.org/2000/svg" viewBox="0 0 109.35 109.35"><defs><style>.cls-1{fill:#61afe1;}.cls-2{fill:#fff;}</style></defs><title>icone_mat_pp</title><circle class="cls-1" cx="54.68" cy="54.68" r="54.68"/><path class="cls-2" d="M33.94,73.11q.06.27.16.77T34.3,75l.21,1.22.2,1.15.74-1.12L36.24,75,37,73.94q.35-.5.6-.83H39q-.07.69-.19,1.55t-.26,1.78q-.15.92-.3,1.85T37.89,80H36.37q.21-1,.45-2.21t.44-2.4l-.58.92-.64,1-.62,1-.52.8H33.75q-.05-.3-.12-.76t-.16-1l-.17-1q-.09-.53-.17-.95-.39,1.21-.71,2.4L31.84,80H30.33q.23-.82.51-1.75t.57-1.85q.3-.93.58-1.79t.55-1.54Z"/><path class="cls-2" d="M43.88,80c0-.26,0-.52,0-.77s0-.5-.05-.74h-2.6l-.42.74q-.22.38-.42.77H38.71L39.93,78Q40.49,77,41,76.18t1-1.6q.5-.76,1-1.48h1.39q.16.72.3,1.6T45,76.49q.12.91.23,1.83t.2,1.71Zm-.46-5.41L42.6,76q-.41.66-.79,1.35h1.87c0-.41-.07-.84-.11-1.3S43.49,75.09,43.42,74.63Z"/><path class="cls-2" d="M52.39,73.11l-.32,1.31H50L48.69,80H47.13l1.35-5.62h-2l.32-1.31Z"/><path class="cls-2" d="M51.69,80l1.66-6.93h4.53l-.32,1.28h-3l-.32,1.4h2.62L56.58,77H54l-.4,1.7h3.2L56.44,80Z"/><path class="cls-2" d="M61.24,73a3.86,3.86,0,0,1,1.17.16,2.5,2.5,0,0,1,.83.43,1.69,1.69,0,0,1,.49.63,1.87,1.87,0,0,1,.16.77,2.8,2.8,0,0,1-.08.65,1.72,1.72,0,0,1-.28.61,2.29,2.29,0,0,1-.55.53,3.16,3.16,0,0,1-.89.42,12.2,12.2,0,0,1,.58,1.26q.29.74.55,1.55H61.56l-.46-1.37a6.44,6.44,0,0,0-.53-1.16h-.78L59.18,80H57.63l1.63-6.83a10.23,10.23,0,0,1,1.05-.14C60.65,73,61,73,61.24,73Zm-.05,1.32h-.35l-.3,0-.45,1.9h.53a3.11,3.11,0,0,0,.81-.09,1.59,1.59,0,0,0,.53-.24.87.87,0,0,0,.29-.35,1,1,0,0,0,.08-.4,1.05,1.05,0,0,0,0-.32.65.65,0,0,0-.18-.28.92.92,0,0,0-.35-.19A1.89,1.89,0,0,0,61.19,74.35Z"/><path class="cls-2" d="M65.85,73.11h1.56L65.74,80H64.19Z"/><path class="cls-2" d="M71.88,80q0-.39,0-.77c0-.25,0-.5-.06-.74h-2.6l-.42.74q-.22.38-.42.77H66.71L67.93,78Q68.49,77,69,76.18t1-1.6q.5-.76,1-1.48h1.39q.16.72.31,1.6T73,76.49q.12.91.23,1.83L73.45,80Zm-.46-5.41L70.6,76q-.41.66-.79,1.35h1.87L71.58,76Q71.52,75.32,71.42,74.63Z"/><path class="cls-2" d="M79.31,78.72,79,80H74.37L76,73.11h1.56l-1.35,5.61Z"/><path class="cls-2" d="M54.82,88.83a3.59,3.59,0,0,1-.24,1.33,3.13,3.13,0,0,1-.67,1,3,3,0,0,1-1,.69,3.37,3.37,0,0,1-1.29.24,3.9,3.9,0,0,1-.68-.06l-.45,1.81H49L50.65,87a8.68,8.68,0,0,1,.92-.22,6.19,6.19,0,0,1,1.12-.09,2.49,2.49,0,0,1,1,.17,1.81,1.81,0,0,1,.67.46,1.9,1.9,0,0,1,.38.69A2.79,2.79,0,0,1,54.82,88.83Zm-3.63,2a1.83,1.83,0,0,0,.42,0,1.7,1.7,0,0,0,.71-.14,1.55,1.55,0,0,0,.54-.41,1.88,1.88,0,0,0,.35-.62,2.48,2.48,0,0,0,.13-.8,1.34,1.34,0,0,0-.19-.73.72.72,0,0,0-.66-.3,2.92,2.92,0,0,0-.6.06Z"/><path class="cls-2" d="M60.6,88.83a3.59,3.59,0,0,1-.24,1.33,3.17,3.17,0,0,1-.67,1,3,3,0,0,1-1,.69,3.37,3.37,0,0,1-1.29.24,3.9,3.9,0,0,1-.68-.06l-.45,1.81H54.77L56.43,87a8.68,8.68,0,0,1,.92-.22,6.18,6.18,0,0,1,1.11-.09,2.48,2.48,0,0,1,1,.17,1.79,1.79,0,0,1,.67.46,1.88,1.88,0,0,1,.39.69A2.79,2.79,0,0,1,60.6,88.83Zm-3.63,2a1.83,1.83,0,0,0,.42,0,1.7,1.7,0,0,0,.71-.14,1.57,1.57,0,0,0,.54-.41,1.88,1.88,0,0,0,.35-.62,2.48,2.48,0,0,0,.13-.8,1.34,1.34,0,0,0-.19-.73.72.72,0,0,0-.66-.3,2.93,2.93,0,0,0-.6.06Z"/><path class="cls-2" d="M55.72,44.15a1.39,1.39,0,0,0-.18-.71,1.33,1.33,0,0,0-.62-.52,4.33,4.33,0,0,0-1.18-.32,13.15,13.15,0,0,0-1.87-.11q.15-1.28.25-2.6t.15-2.48h5.16v1.72H54c0,.33,0,.65-.06,1s0,.58-.08.8a5.11,5.11,0,0,1,3,.94,2.76,2.76,0,0,1,1,2.24,3.16,3.16,0,0,1-.23,1.22,2.64,2.64,0,0,1-.7,1,3.33,3.33,0,0,1-1.18.65,5.32,5.32,0,0,1-1.66.23,6.57,6.57,0,0,1-.78,0q-.41,0-.78-.12l-.68-.16a2.57,2.57,0,0,1-.47-.17L51.66,45a6.13,6.13,0,0,0,.91.3,5.52,5.52,0,0,0,1.35.14A2,2,0,0,0,55.29,45,1.15,1.15,0,0,0,55.72,44.15Z"/><g id="recycle"><path class="cls-2" d="M75.11,44.07l-2.2-4a2.52,2.52,0,0,0-2.18-1.21,2.58,2.58,0,0,0-1.17.31L67,40.59a2.48,2.48,0,0,0-1,3.38l0,.06,2.09,3.79a2.32,2.32,0,0,1,.23,1,2.24,2.24,0,0,1-2.2,2.27l-4.94.08,0-1.37a1.67,1.67,0,0,0-1.66-1.63,1.76,1.76,0,0,0-1.11.44l-6,5.11a2,2,0,0,0-.69,1.52,2,2,0,0,0,.74,1.51l6.1,4.92.19.15a1.6,1.6,0,0,0,.88.26h0a1.63,1.63,0,0,0,1.17-.5,1.66,1.66,0,0,0,.47-1.18l0-1.36,4.94-.08a10.09,10.09,0,0,0,8.74-14.85ZM73.7,51.59a7.67,7.67,0,0,1-1.35,2.32,8,8,0,0,1-6,2.88l-5.1.08a2,2,0,0,0-1.91,2.05v.5L56.55,57.2l-2.65-1.94,5.28-4.53v.67a1.93,1.93,0,0,0,1.88,1.83l5.19-.08a4.34,4.34,0,0,0,3.81-6.27l-.11-.2L67.91,43c0-.09,0-.13-.05-.2a.38.38,0,0,1,.19-.34l2-1.1.74-.35a.42.42,0,0,1,.37.26l2.13,3.85a8,8,0,0,1,.43,6.52Z"/><path class="cls-2" d="M48.6,51a2.42,2.42,0,0,0-1.19-.32L43,50.55a2.24,2.24,0,0,1-2-1.62,2.18,2.18,0,0,1,.2-1.7l2.4-4.32,1.18.66.14.06A1.65,1.65,0,0,0,47.25,42a1.74,1.74,0,0,0,0-.21l-1.44-7.71a2,2,0,0,0-2.65-1.46l-7.29,2.83-.23.1a1.66,1.66,0,0,0-.05,2.92l1.19.66-2.4,4.33a10.05,10.05,0,0,0-.65,8.39,9.72,9.72,0,0,0,1.7,2.94,10.13,10.13,0,0,0,2.87,2.38,10,10,0,0,0,4.53,1.27l4.58.09h0a2.48,2.48,0,0,0,2.13-1.28,2.43,2.43,0,0,0,.3-1.17l.05-2.9A2.45,2.45,0,0,0,48.6,51Zm-.88,4.43-.06.82a.38.38,0,0,1-.33.2l0,1-.1-1-4.4-.09a7.9,7.9,0,0,1-3.59-1A7.82,7.82,0,0,1,37,53.43a8,8,0,0,1-.82-9L38.66,40a2,2,0,0,0-.82-2.67l-.44-.24,3.32-1.29,3-1.32L45,41.32,44.43,41a2,2,0,0,0-2.52.72l-2.52,4.53a4.33,4.33,0,0,0,3.52,6.44h.23l4.24.08.21.05a.38.38,0,0,1,.2.33Z"/><path class="cls-2" d="M53.93,26.69a2.29,2.29,0,0,1,3.07.77l2.54,4.25-1.17.7a1.67,1.67,0,0,0-.57,2.26,1.79,1.79,0,0,0,.92.73l7.4,2.6a2,2,0,0,0,.64.11,2,2,0,0,0,1.95-1.67l1.2-7.74s0-.22,0-.26a1.74,1.74,0,0,0-.23-.92A1.7,1.7,0,0,0,67.45,27l-1.17.7-2.54-4.24a10.1,10.1,0,0,0-10.34-4.77,10,10,0,0,0-3.49,1.3,10.22,10.22,0,0,0-3.38,3.31l-2.36,3.91a2.48,2.48,0,0,0,0,2.48,2.55,2.55,0,0,0,.86.86L47.54,32a2.49,2.49,0,0,0,2.54,0,2.4,2.4,0,0,0,.86-.86l0,0,2.25-3.72A2.37,2.37,0,0,1,53.93,26.69Zm-2.46-.46-.11.19L49.21,30a2.41,2.41,0,0,0-.18.22l-.21.06a.33.33,0,0,1-.19-.05L46.68,29,46,28.57a.43.43,0,0,1,0-.45l2.27-3.77a8,8,0,0,1,5.44-3.63,8,8,0,0,1,8.19,3.79l2.62,4.38a1.94,1.94,0,0,0,1.67.93,2.19,2.19,0,0,0,1.06-.3l.43-.25-1,6.74-6.47-2.29.57-.35a1.9,1.9,0,0,0,.64-2.54L58.8,26.38a4.45,4.45,0,0,0-6-1.49A4.3,4.3,0,0,0,51.47,26.22Z"/></g></svg>