<svg id="Layer_1" data-name="Layer 1" xmlns="http://www.w3.org/2000/svg" viewBox="0 0 109.35 109.35"><defs><style>.cls-1{fill:#9c5524;}.cls-2{fill:#fff;}</style></defs><title>icone_ausencia_odor</title><circle class="cls-1" cx="54.68" cy="54.68" r="54.68"/><path class="cls-2" d="M27.38,80q0-.39,0-.77t-.05-.74h-2.6l-.42.74q-.22.38-.42.77H22.21L23.42,78Q24,77,24.51,76.18t1-1.6q.5-.76,1-1.48h1.39q.16.72.3,1.6t.27,1.79q.13.91.23,1.83l.2,1.71Zm-.46-5.41L26.09,76q-.4.66-.79,1.35h1.87q0-.61-.1-1.3T26.92,74.63Z"/><path class="cls-2" d="M35.73,77.52a3.64,3.64,0,0,1-1.1,2,3.11,3.11,0,0,1-2,.63A3.35,3.35,0,0,1,31.5,80a1.91,1.91,0,0,1-.73-.43,1.6,1.6,0,0,1-.4-.66,2.67,2.67,0,0,1-.12-.83A4.53,4.53,0,0,1,30.4,77l.93-3.88h1.56l-1,4.1a2.73,2.73,0,0,0-.1.73,1.32,1.32,0,0,0,0,.36.65.65,0,0,0,.16.28.74.74,0,0,0,.31.19,1.55,1.55,0,0,0,.49.06,1.11,1.11,0,0,0,.91-.37,2.67,2.67,0,0,0,.48-1.06l1-4.28h1.56Z"/><path class="cls-2" d="M38.57,78.88a3,3,0,0,0,.46,0,1.38,1.38,0,0,0,.41-.12.77.77,0,0,0,.29-.26.72.72,0,0,0,.12-.42.56.56,0,0,0-.11-.35,1.26,1.26,0,0,0-.28-.26,2.61,2.61,0,0,0-.38-.22L38.66,77a5.75,5.75,0,0,1-.51-.34,2,2,0,0,1-.41-.4,1.89,1.89,0,0,1-.27-.5,1.86,1.86,0,0,1-.1-.64,2.08,2.08,0,0,1,.17-.85,1.89,1.89,0,0,1,.52-.69,2.51,2.51,0,0,1,.87-.45,4,4,0,0,1,1.22-.17,3.43,3.43,0,0,1,.62.05,5.07,5.07,0,0,1,.56.14,3.26,3.26,0,0,1,.47.19,3.15,3.15,0,0,1,.37.21l-.65,1.15a2.33,2.33,0,0,0-1.39-.45,2.38,2.38,0,0,0-.44,0,1.14,1.14,0,0,0-.37.14.75.75,0,0,0-.25.24.78.78,0,0,0,0,.71.82.82,0,0,0,.19.23,1.44,1.44,0,0,0,.28.18l.34.17q.31.16.6.34a2.49,2.49,0,0,1,.51.41,1.85,1.85,0,0,1,.35.54,1.77,1.77,0,0,1,.13.71,2.18,2.18,0,0,1-.21,1,1.92,1.92,0,0,1-.59.7,2.59,2.59,0,0,1-.9.42,4.67,4.67,0,0,1-1.17.14,4.15,4.15,0,0,1-.79-.07,5.47,5.47,0,0,1-.66-.17,3.36,3.36,0,0,1-.51-.2l-.35-.2.66-1.19.29.17a3.26,3.26,0,0,0,.38.17,3.56,3.56,0,0,0,.46.14A2.24,2.24,0,0,0,38.57,78.88Z"/><path class="cls-2" d="M42.22,80l1.66-6.93h4.53l-.32,1.28h-3l-.32,1.4h2.62L47.11,77H44.49l-.4,1.7h3.2L47,80Zm5.79-8-.6.53-.83-.78-1.13.76L45,72l1.79-1.45Z"/><path class="cls-2" d="M52.84,80q-.42-1.18-.94-2.36a23.16,23.16,0,0,0-1.12-2.23L49.69,80H48.16l1.66-6.93H51q.23.35.5.83T52,75q.28.55.56,1.15t.53,1.18l1-4.17h1.55L54,80Z"/><path class="cls-2" d="M61,79.74a4.41,4.41,0,0,1-.91.32,5.31,5.31,0,0,1-1.22.12A3,3,0,0,1,57.7,80a2.47,2.47,0,0,1-.88-.58,2.61,2.61,0,0,1-.56-.93,3.52,3.52,0,0,1-.2-1.22,4.6,4.6,0,0,1,.27-1.55,4.14,4.14,0,0,1,2.12-2.36,4,4,0,0,1,1.79-.38,4.11,4.11,0,0,1,.95.11,3.93,3.93,0,0,1,1,.39l-.56,1.21a3.37,3.37,0,0,0-.75-.3,3,3,0,0,0-.71-.08,2.24,2.24,0,0,0-1,.23,2.4,2.4,0,0,0-.78.63,2.79,2.79,0,0,0-.5.91,3.52,3.52,0,0,0-.17,1.1,1.8,1.8,0,0,0,.39,1.28,1.46,1.46,0,0,0,1.1.4,3.67,3.67,0,0,0,.88-.1,4.27,4.27,0,0,0,.76-.26Z"/><path class="cls-2" d="M63.62,73.11h1.56L63.51,80H62Z"/><path class="cls-2" d="M69.65,80q0-.39,0-.77c0-.25,0-.5-.06-.74h-2.6l-.42.74q-.22.38-.42.77H64.48L65.69,78q.56-.95,1.09-1.79t1-1.6q.5-.76,1-1.48h1.39q.16.72.31,1.6t.27,1.79q.12.91.23,1.83L71.22,80Zm-.46-5.41L68.36,76q-.41.66-.79,1.35h1.87L69.34,76Q69.29,75.32,69.19,74.63Z"/><path class="cls-2" d="M81.41,75.81a4.71,4.71,0,0,1-.33,1.81A3.69,3.69,0,0,1,80.13,79a4.23,4.23,0,0,1-1.5.85,6.14,6.14,0,0,1-2,.3q-.42,0-1,0a8.8,8.8,0,0,1-1.06-.16l1.61-6.69a10.51,10.51,0,0,1,1.09-.15q.52,0,.95,0a4.08,4.08,0,0,1,1.32.2,2.78,2.78,0,0,1,1,.57,2.42,2.42,0,0,1,.62.88A3,3,0,0,1,81.41,75.81Zm-5,3,.22,0H77a3.27,3.27,0,0,0,1.17-.2A2.43,2.43,0,0,0,79,78a2.58,2.58,0,0,0,.57-.92,3.55,3.55,0,0,0,.2-1.23,2.09,2.09,0,0,0-.09-.64,1.18,1.18,0,0,0-.29-.49,1.35,1.35,0,0,0-.53-.31,2.47,2.47,0,0,0-.79-.11l-.61,0Z"/><path class="cls-2" d="M81.8,80l1.66-6.93H88l-.32,1.28h-3l-.32,1.4H87L86.69,77H84.07l-.4,1.7h3.2L86.55,80Z"/><path class="cls-2" d="M44.09,92.18A3,3,0,0,1,43,92a2.51,2.51,0,0,1-.88-.58,2.61,2.61,0,0,1-.57-.92,3.42,3.42,0,0,1-.21-1.22,4.67,4.67,0,0,1,.27-1.55,4.53,4.53,0,0,1,.78-1.38,4,4,0,0,1,1.23-1,3.49,3.49,0,0,1,1.65-.38,3,3,0,0,1,1.12.2,2.52,2.52,0,0,1,.88.58,2.59,2.59,0,0,1,.58.92A3.42,3.42,0,0,1,48,87.86a4.78,4.78,0,0,1-.27,1.55A4.41,4.41,0,0,1,47,90.8a3.91,3.91,0,0,1-1.24,1A3.53,3.53,0,0,1,44.09,92.18Zm1-5.89a1.61,1.61,0,0,0-.85.24,2.4,2.4,0,0,0-.69.64,3.15,3.15,0,0,0-.46.92,3.51,3.51,0,0,0-.17,1.07,2.13,2.13,0,0,0,.32,1.21,1.15,1.15,0,0,0,1,.46,1.62,1.62,0,0,0,.86-.24A2.4,2.4,0,0,0,45.8,90a3.11,3.11,0,0,0,.46-.92A3.49,3.49,0,0,0,46.42,88a2.13,2.13,0,0,0-.31-1.21A1.15,1.15,0,0,0,45.08,86.29Z"/><path class="cls-2" d="M55.19,87.81a4.72,4.72,0,0,1-.33,1.81A3.68,3.68,0,0,1,53.92,91a4.24,4.24,0,0,1-1.5.86,6.14,6.14,0,0,1-2,.3q-.42,0-1,0a8.8,8.8,0,0,1-1.06-.16L50,85.23a10.52,10.52,0,0,1,1.1-.15c.35,0,.67,0,.94,0a4.09,4.09,0,0,1,1.33.2,2.79,2.79,0,0,1,1,.57,2.45,2.45,0,0,1,.62.88A3,3,0,0,1,55.19,87.81Zm-5,3h.54a3.3,3.3,0,0,0,1.18-.2,2.44,2.44,0,0,0,.89-.58,2.58,2.58,0,0,0,.57-.92,3.55,3.55,0,0,0,.2-1.23,2.09,2.09,0,0,0-.09-.63,1.18,1.18,0,0,0-.29-.49,1.34,1.34,0,0,0-.53-.31,2.46,2.46,0,0,0-.78-.11l-.61,0Z"/><path class="cls-2" d="M58.84,92.18a3.05,3.05,0,0,1-1.12-.2,2.51,2.51,0,0,1-.88-.58,2.59,2.59,0,0,1-.58-.92,3.42,3.42,0,0,1-.21-1.22,4.64,4.64,0,0,1,.27-1.55,4.53,4.53,0,0,1,.77-1.38,4,4,0,0,1,1.24-1A3.48,3.48,0,0,1,60,84.95a3,3,0,0,1,1.12.2,2.52,2.52,0,0,1,.88.58,2.6,2.6,0,0,1,.58.92,3.44,3.44,0,0,1,.21,1.22,4.78,4.78,0,0,1-.27,1.55,4.43,4.43,0,0,1-.77,1.39,3.92,3.92,0,0,1-1.24,1A3.54,3.54,0,0,1,58.84,92.18Zm1-5.89a1.62,1.62,0,0,0-.86.24,2.4,2.4,0,0,0-.69.64,3.1,3.1,0,0,0-.46.92,3.51,3.51,0,0,0-.17,1.07A2.13,2.13,0,0,0,58,90.37a1.15,1.15,0,0,0,1,.46,1.61,1.61,0,0,0,.85-.24,2.4,2.4,0,0,0,.69-.64A3.11,3.11,0,0,0,61,89,3.49,3.49,0,0,0,61.17,88a2.13,2.13,0,0,0-.31-1.21A1.15,1.15,0,0,0,59.83,86.29Z"/><path class="cls-2" d="M66.76,85a3.86,3.86,0,0,1,1.17.16,2.51,2.51,0,0,1,.83.43,1.69,1.69,0,0,1,.49.63,1.87,1.87,0,0,1,.16.77,2.79,2.79,0,0,1-.08.65,1.73,1.73,0,0,1-.28.61,2.3,2.3,0,0,1-.55.54,3.18,3.18,0,0,1-.89.42,12.25,12.25,0,0,1,.58,1.26q.29.74.55,1.55H67.08l-.46-1.37a6.51,6.51,0,0,0-.52-1.17h-.78L64.7,92H63.15l1.63-6.83a10.25,10.25,0,0,1,1-.14Q66.34,85,66.76,85Zm-.05,1.32h-.35l-.3,0-.45,1.9h.53a3.14,3.14,0,0,0,.81-.09,1.59,1.59,0,0,0,.53-.24.87.87,0,0,0,.29-.35,1,1,0,0,0,.08-.4,1.05,1.05,0,0,0,0-.32.65.65,0,0,0-.18-.28.93.93,0,0,0-.35-.19A1.89,1.89,0,0,0,66.71,86.35Z"/><path class="cls-2" d="M58.42,13a19.55,19.55,0,0,0-11.21,3.48A20.47,20.47,0,0,0,40,25.45a1,1,0,0,0,0,.1L35.68,38.37a.09.09,0,0,0,0,0,2.51,2.51,0,0,0,.39,2.45,3.48,3.48,0,0,0,2.74.93h1.5v7.53a3,3,0,0,0,3.48,3.17h6.54v7.12a1.23,1.23,0,0,0,1.24,1.26H68.86a1.29,1.29,0,0,0,1.32-1.26V49.86A20.27,20.27,0,0,0,58.42,13ZM68.15,48.1a1.29,1.29,0,0,0-.58,1.08v9.18H52.83V51.22a1.3,1.3,0,0,0-1.26-1.33H43.7a1.36,1.36,0,0,0-.19,0,.85.85,0,0,1-.5-.1.75.75,0,0,1-.12-.51V40.46a1.28,1.28,0,0,0-1.3-1.27h-3a2.31,2.31,0,0,1-.43,0h0L42.43,26.4a17.91,17.91,0,0,1,6.25-7.76,17,17,0,0,1,9.74-3A17.68,17.68,0,0,1,68.15,48.1Z"/><path class="cls-2" d="M33.49,60.84a.84.84,0,0,1-.6-1.43c2.65-2.68,3.85-4.84,3.37-6.09A3,3,0,0,0,35,52a3.81,3.81,0,0,1-1.9-2.25c-.39-1.68.69-3.55,3.31-5.72a.84.84,0,0,1,1.07,1.3c-2,1.65-3,3.08-2.75,4,.12.49.53.79,1.2,1.24a4.53,4.53,0,0,1,1.93,2.07c.76,2-.47,4.56-3.74,7.87A.84.84,0,0,1,33.49,60.84Z"/><path class="cls-2" d="M28.09,60.84a.84.84,0,0,1-.6-1.43c2.65-2.68,3.85-4.84,3.37-6.09A3,3,0,0,0,29.57,52a3.81,3.81,0,0,1-1.9-2.25c-.39-1.68.69-3.55,3.31-5.72a.84.84,0,0,1,1.07,1.3c-2,1.65-3,3.08-2.75,4,.12.49.53.79,1.2,1.24a4.53,4.53,0,0,1,1.93,2.07c.76,2-.47,4.56-3.74,7.87A.84.84,0,0,1,28.09,60.84Z"/></svg>