<svg id="Layer_1" data-name="Layer 1" xmlns="http://www.w3.org/2000/svg" viewBox="0 0 109.35 109.35"><defs><style>.cls-1{fill:#4fb6e8;}.cls-2{fill:#fff;}</style></defs><title>icone_econ_agua</title><circle class="cls-1" cx="54.68" cy="54.68" r="54.68"/><path class="cls-2" d="M54.68,64.31a17,17,0,0,1-17-17c0-8.61,13.75-31,15.32-33.56a2,2,0,0,1,3.35,0c1.57,2.53,15.32,25,15.32,33.56A17,17,0,0,1,54.68,64.31Zm0-45.72c-4.76,8-13.05,23.12-13.05,28.72a13.05,13.05,0,1,0,26.11,0C67.73,41.71,59.44,26.6,54.68,18.6Z"/><path class="cls-2" d="M54.17,48c-2.68-.49-4.31-1.67-4.31-3.68,0-2.47,2-3.73,4.31-3.81V40.1a.55.55,0,1,1,1.09,0v.42c1.41,0,4.31.92,4.31,2.7a1.09,1.09,0,0,1-1.14,1.12c-1.18,0-1.16-1.94-3.17-2v3.44c2.39.51,4.51,1.21,4.51,4,0,2.43-1.81,3.66-4.51,3.83v1.12a.55.55,0,1,1-1.09,0V53.64c-3.06-.07-4.59-1.9-4.59-3.34a1,1,0,0,1,1.12-1.14c2,0,.45,2.5,3.46,2.63Zm0-5.64c-1.23,0-2,.76-2,1.54s.67,1.43,2,1.7Zm1.09,9.43c1.09-.07,2.23-.58,2.23-1.78s-1.25-1.6-2.23-1.81Z"/><path class="cls-2" d="M20.35,78.12,22,71.19h4.53l-.32,1.28h-3l-.32,1.4h2.62l-.31,1.26H22.62l-.4,1.7h3.2l-.32,1.29Z"/><path class="cls-2" d="M31.68,77.82a4.45,4.45,0,0,1-.91.32,5.3,5.3,0,0,1-1.22.12,3,3,0,0,1-1.13-.21,2.46,2.46,0,0,1-.88-.58,2.61,2.61,0,0,1-.57-.92,3.52,3.52,0,0,1-.2-1.22A4.58,4.58,0,0,1,27,73.77a4.13,4.13,0,0,1,2.12-2.36A4,4,0,0,1,31,71a4.09,4.09,0,0,1,.94.11,3.91,3.91,0,0,1,1,.39l-.56,1.21a3.37,3.37,0,0,0-.75-.3,3,3,0,0,0-.71-.08,2.24,2.24,0,0,0-1,.23,2.4,2.4,0,0,0-.78.63,2.79,2.79,0,0,0-.5.92,3.52,3.52,0,0,0-.17,1.1,1.8,1.8,0,0,0,.38,1.28,1.46,1.46,0,0,0,1.11.4,3.66,3.66,0,0,0,.88-.1,4.29,4.29,0,0,0,.75-.26Z"/><path class="cls-2" d="M35.73,78.26a3,3,0,0,1-1.12-.2,2.5,2.5,0,0,1-.88-.57,2.61,2.61,0,0,1-.57-.92A3.42,3.42,0,0,1,33,75.35a4.67,4.67,0,0,1,.27-1.55A4.53,4.53,0,0,1,34,72.42a4,4,0,0,1,1.23-1A3.48,3.48,0,0,1,36.88,71a3.05,3.05,0,0,1,1.12.2,2.52,2.52,0,0,1,.88.58,2.59,2.59,0,0,1,.58.92,3.42,3.42,0,0,1,.21,1.22,4.78,4.78,0,0,1-.27,1.56,4.42,4.42,0,0,1-.77,1.39,3.91,3.91,0,0,1-1.24,1A3.55,3.55,0,0,1,35.73,78.26Zm1-5.89a1.61,1.61,0,0,0-.85.24,2.39,2.39,0,0,0-.69.64,3.15,3.15,0,0,0-.46.92,3.51,3.51,0,0,0-.17,1.07,2.13,2.13,0,0,0,.32,1.21,1.15,1.15,0,0,0,1,.46,1.62,1.62,0,0,0,.86-.24,2.42,2.42,0,0,0,.69-.64,3.11,3.11,0,0,0,.46-.92,3.5,3.5,0,0,0,.17-1.08,2.13,2.13,0,0,0-.31-1.21A1.15,1.15,0,0,0,36.72,72.37Z"/><path class="cls-2" d="M44.72,78.12q-.42-1.18-.93-2.36a23.37,23.37,0,0,0-1.12-2.23l-1.1,4.59H40l1.66-6.93h1.19q.23.35.5.83c.18.32.36.66.54,1s.37.75.56,1.14.36.79.53,1.18l1-4.17h1.55l-1.67,6.93Z"/><path class="cls-2" d="M50.72,78.26a3,3,0,0,1-1.12-.2,2.49,2.49,0,0,1-.88-.57,2.59,2.59,0,0,1-.58-.92,3.42,3.42,0,0,1-.21-1.22,4.64,4.64,0,0,1,.27-1.55A4.52,4.52,0,0,1,49,72.42a4,4,0,0,1,1.24-1A3.48,3.48,0,0,1,51.87,71a3,3,0,0,1,1.12.2,2.51,2.51,0,0,1,.88.58,2.61,2.61,0,0,1,.57.92,3.42,3.42,0,0,1,.21,1.22,4.78,4.78,0,0,1-.26,1.56,4.43,4.43,0,0,1-.77,1.39,3.91,3.91,0,0,1-1.23,1A3.55,3.55,0,0,1,50.72,78.26Zm1-5.89a1.62,1.62,0,0,0-.86.24,2.39,2.39,0,0,0-.69.64,3.1,3.1,0,0,0-.46.92,3.51,3.51,0,0,0-.17,1.07,2.13,2.13,0,0,0,.31,1.21,1.15,1.15,0,0,0,1,.46,1.61,1.61,0,0,0,.85-.24,2.42,2.42,0,0,0,.69-.64,3.16,3.16,0,0,0,.46-.92,3.5,3.5,0,0,0,.17-1.08,2.13,2.13,0,0,0-.32-1.21A1.15,1.15,0,0,0,51.71,72.37Z"/><path class="cls-2" d="M58.54,71.19q.06.27.16.77T58.9,73l.21,1.22.2,1.15.74-1.12.79-1.18L61.58,72q.35-.5.6-.83h1.38q-.07.69-.19,1.55t-.26,1.78q-.15.92-.3,1.85t-.32,1.75H61q.21-1,.45-2.21t.44-2.4l-.58.92-.64,1-.62,1-.52.8H58.35q-.05-.3-.12-.76c0-.31-.1-.63-.16-1l-.17-1q-.09-.52-.17-.95-.39,1.21-.71,2.4l-.58,2.21H54.93q.23-.82.51-1.75T56,74.52q.3-.92.58-1.79t.55-1.54Z"/><path class="cls-2" d="M65.57,71.19h1.56l-1.67,6.93H63.91Z"/><path class="cls-2" d="M71.6,78.12c0-.26,0-.52,0-.77s0-.5-.05-.74H68.9l-.42.74q-.22.38-.42.77H66.43l1.22-2.07q.56-.95,1.09-1.79t1-1.59q.5-.76,1-1.48h1.39q.16.72.3,1.6t.27,1.79q.12.91.23,1.83t.2,1.71Zm-.46-5.41L70.32,74q-.41.66-.79,1.35H71.4c0-.41-.07-.84-.11-1.3S71.21,73.17,71.14,72.71Z"/><path class="cls-2" d="M83.36,73.89A4.72,4.72,0,0,1,83,75.7a3.69,3.69,0,0,1-.95,1.35,4.24,4.24,0,0,1-1.5.86,6.14,6.14,0,0,1-2,.3q-.42,0-1,0A9,9,0,0,1,76.57,78l1.61-6.69a10.39,10.39,0,0,1,1.1-.15c.35,0,.67,0,.94,0a4.1,4.1,0,0,1,1.33.2,2.79,2.79,0,0,1,1,.57,2.45,2.45,0,0,1,.62.88A3,3,0,0,1,83.36,73.89Zm-5,3h.54a3.27,3.27,0,0,0,1.18-.2,2.42,2.42,0,0,0,.89-.57,2.58,2.58,0,0,0,.57-.92,3.55,3.55,0,0,0,.2-1.23,2.08,2.08,0,0,0-.09-.63,1.18,1.18,0,0,0-.29-.49,1.34,1.34,0,0,0-.53-.31,2.46,2.46,0,0,0-.78-.11c-.2,0-.4,0-.61,0Z"/><path class="cls-2" d="M83.75,78.12l1.66-6.93h4.53l-.32,1.28h-3l-.32,1.4H89l-.31,1.26H86l-.4,1.7h3.2l-.32,1.29Z"/><path class="cls-2" d="M45.87,90.12c0-.26,0-.52,0-.77s0-.5-.05-.74h-2.6l-.42.74q-.22.38-.42.77H40.7l1.22-2.07q.56-.95,1.09-1.79t1-1.59q.5-.76,1-1.48h1.39q.16.72.3,1.6T47,86.58q.12.91.23,1.83t.2,1.71Zm-.46-5.41L44.59,86q-.41.66-.79,1.35h1.87c0-.41-.07-.84-.11-1.3S45.48,85.17,45.41,84.71Zm1.67-3.31-1.77,1.36-.6-.62,1.6-1.61Z"/><path class="cls-2" d="M51.53,88.92h.36l.29,0,.58-2.41h1.56l-.84,3.47a5,5,0,0,1-.81.21,7.12,7.12,0,0,1-1.35.11A3.43,3.43,0,0,1,50.09,90a2.39,2.39,0,0,1-.9-.58,2.44,2.44,0,0,1-.54-.92,3.85,3.85,0,0,1-.18-1.22,4.6,4.6,0,0,1,.27-1.55,4.08,4.08,0,0,1,2.16-2.36A4.23,4.23,0,0,1,52.74,83a4,4,0,0,1,1,.14,3.29,3.29,0,0,1,1,.42l-.56,1.21a2.81,2.81,0,0,0-.75-.33,2.88,2.88,0,0,0-.77-.11,2.46,2.46,0,0,0-1.08.23,2.39,2.39,0,0,0-.81.63,2.75,2.75,0,0,0-.5.92,3.52,3.52,0,0,0-.17,1.1,1.88,1.88,0,0,0,.37,1.29A1.39,1.39,0,0,0,51.53,88.92Z"/><path class="cls-2" d="M60.8,87.6a3.64,3.64,0,0,1-1.11,2,3.1,3.1,0,0,1-2,.63,3.35,3.35,0,0,1-1.09-.16,1.9,1.9,0,0,1-.72-.43,1.6,1.6,0,0,1-.41-.66,2.7,2.7,0,0,1-.12-.83,4.48,4.48,0,0,1,.15-1.11l.93-3.88H58l-1,4.1a2.73,2.73,0,0,0-.1.73,1.32,1.32,0,0,0,0,.36.65.65,0,0,0,.16.28.75.75,0,0,0,.31.18,1.53,1.53,0,0,0,.48.07,1.11,1.11,0,0,0,.91-.37,2.66,2.66,0,0,0,.48-1.07l1-4.28h1.56Z"/><path class="cls-2" d="M66.17,90.12c0-.26,0-.52,0-.77s0-.5-.05-.74h-2.6l-.42.74q-.22.38-.42.77H61l1.22-2.07q.56-.95,1.09-1.79t1-1.59q.5-.76,1-1.48h1.39q.16.72.3,1.6t.27,1.79q.12.91.23,1.83t.2,1.71Zm-.46-5.41L64.89,86q-.41.66-.79,1.35H66c0-.41-.07-.84-.11-1.3S65.78,85.17,65.71,84.71Z"/></svg>