<svg id="Layer_1" data-name="Layer 1" xmlns="http://www.w3.org/2000/svg" viewBox="0 0 109.35 109.35"><defs><style>.cls-1{fill:#029346;}.cls-2{fill:#fff;}</style></defs><title>icone_retorno_invest</title><circle class="cls-1" cx="54.68" cy="54.68" r="54.68"/><g id="piggy_bank" data-name="piggy bank"><path class="cls-2" d="M80.61,39.35c0-9.7-10.52-17.57-23.43-17.57A28.82,28.82,0,0,0,43.59,25a12.31,12.31,0,0,0-8.38-3.24,1.49,1.49,0,0,0-1.17.58,1.44,1.44,0,0,0-.24,1.28l2.28,8a14.83,14.83,0,0,0-1.88,4.24l-2,.46a4.46,4.46,0,0,0-2.75,1.93,4.38,4.38,0,0,0-.58,3.31l1.28,5.73a4.49,4.49,0,0,0,5.25,3.33L38.23,50l.26-.07a22.91,22.91,0,0,0,6.25,4.29l-.66,3.27a4.37,4.37,0,0,0,3.44,5.17,4.12,4.12,0,0,0,.86.09,4.39,4.39,0,0,0,4.3-3.53l.51-2.58a31.42,31.42,0,0,0,4,.25A30.17,30.17,0,0,0,64,56.16l.61,3.09a4.38,4.38,0,0,0,4.3,3.53,4.93,4.93,0,0,0,.86-.08,4.38,4.38,0,0,0,3.44-5.17l-1-4.73C77.35,49.56,80.61,44.73,80.61,39.35ZM69,51.31l.19.93v0l.41,2,.77,3.84a1.48,1.48,0,0,1-1.14,1.73l-.29,0a1.45,1.45,0,0,1-1.43-1.17l-.65-3.31-.45-2.17-.15-.72a27.23,27.23,0,0,1-9,1.5,27.55,27.55,0,0,1-6.26-.71l-.1.52-.49,2.35-.5,2.52a1.46,1.46,0,0,1-1.43,1.17l-.29,0A1.47,1.47,0,0,1,47,58.09l.54-2.72L48,52.72l.06-.26a19.91,19.91,0,0,1-8.15-5.23,1.44,1.44,0,0,0-1.08-.49,1.38,1.38,0,0,0-.79.24,1.18,1.18,0,0,1-.46.19l-2.85.64A1.49,1.49,0,0,1,33,46.7L31.75,41a1.42,1.42,0,0,1,.21-1.1,1.49,1.49,0,0,1,.91-.66l2.78-.61a.45.45,0,0,0,.18,0,1.47,1.47,0,0,0,1.1-1.16,11.7,11.7,0,0,1,2-4.66,1.48,1.48,0,0,0,.22-1.24L37.21,24.9a9.6,9.6,0,0,1,5.05,2.91,1.47,1.47,0,0,0,1.84.28A25.87,25.87,0,0,1,57.18,24.7c11.31,0,20.51,6.58,20.51,14.64C77.68,44.28,74.24,48.67,69,51.31Z"/><circle class="cls-2" cx="44.73" cy="37.15" r="2.2"/><path class="cls-2" d="M65,27.52a23.23,23.23,0,0,0-15.67,0,1.47,1.47,0,0,0,1,2.75,20.32,20.32,0,0,1,13.62,0,1.47,1.47,0,0,0,1-2.75Z"/></g><path class="cls-2" d="M26.58,73a3.85,3.85,0,0,1,1.17.16,2.49,2.49,0,0,1,.83.43,1.68,1.68,0,0,1,.49.63,1.9,1.9,0,0,1,.16.77,2.84,2.84,0,0,1-.08.65,1.73,1.73,0,0,1-.28.61,2.27,2.27,0,0,1-.55.54,3.16,3.16,0,0,1-.88.42A12.46,12.46,0,0,1,28,78.49q.29.74.55,1.55H26.9l-.46-1.37a6.5,6.5,0,0,0-.53-1.16h-.78L24.52,80H23l1.63-6.83a10.11,10.11,0,0,1,1-.14C26,73,26.3,73,26.58,73Zm0,1.32h-.35l-.3,0-.45,1.9H26a3.14,3.14,0,0,0,.81-.09,1.59,1.59,0,0,0,.53-.24.88.88,0,0,0,.29-.34,1,1,0,0,0,.08-.4,1,1,0,0,0-.05-.32.63.63,0,0,0-.18-.28.92.92,0,0,0-.35-.19A1.92,1.92,0,0,0,26.53,74.35Z"/><path class="cls-2" d="M29.53,80l1.66-6.93h4.53l-.32,1.28h-3l-.32,1.4h2.62L34.42,77H31.8l-.4,1.7h3.2L34.28,80Z"/><path class="cls-2" d="M42.11,73.11l-.32,1.31h-2L38.41,80H36.85l1.35-5.62h-2l.32-1.31Z"/><path class="cls-2" d="M44.57,80.18a3.05,3.05,0,0,1-1.12-.2,2.51,2.51,0,0,1-.88-.58,2.59,2.59,0,0,1-.58-.92,3.42,3.42,0,0,1-.21-1.22,4.63,4.63,0,0,1,.27-1.55,4.53,4.53,0,0,1,.77-1.39,4,4,0,0,1,1.24-1,3.49,3.49,0,0,1,1.65-.38,3,3,0,0,1,1.12.2,2.51,2.51,0,0,1,.88.58,2.6,2.6,0,0,1,.57.92,3.41,3.41,0,0,1,.21,1.22,4.78,4.78,0,0,1-.26,1.55,4.43,4.43,0,0,1-.77,1.39,3.92,3.92,0,0,1-1.23,1A3.54,3.54,0,0,1,44.57,80.18Zm1-5.89a1.62,1.62,0,0,0-.86.24,2.4,2.4,0,0,0-.69.64,3.11,3.11,0,0,0-.46.92,3.51,3.51,0,0,0-.17,1.07,2.13,2.13,0,0,0,.31,1.21,1.15,1.15,0,0,0,1,.46,1.61,1.61,0,0,0,.85-.24,2.42,2.42,0,0,0,.69-.64,3.16,3.16,0,0,0,.46-.92A3.48,3.48,0,0,0,46.9,76a2.13,2.13,0,0,0-.32-1.22A1.15,1.15,0,0,0,45.56,74.29Z"/><path class="cls-2" d="M52.49,73a3.85,3.85,0,0,1,1.17.16,2.5,2.5,0,0,1,.83.43,1.7,1.7,0,0,1,.49.63,1.89,1.89,0,0,1,.16.77,2.84,2.84,0,0,1-.07.65,1.75,1.75,0,0,1-.28.61,2.28,2.28,0,0,1-.55.54,3.19,3.19,0,0,1-.88.42,12.26,12.26,0,0,1,.57,1.26q.3.74.56,1.55H52.81q-.23-.69-.47-1.37a6.43,6.43,0,0,0-.52-1.16H51L50.43,80H48.88l1.63-6.83a10.09,10.09,0,0,1,1.05-.14Q52.07,73,52.49,73Zm0,1.32h-.35l-.3,0-.45,1.9h.53a3.14,3.14,0,0,0,.81-.09,1.58,1.58,0,0,0,.53-.24.86.86,0,0,0,.29-.34,1,1,0,0,0,.08-.4,1,1,0,0,0,0-.32.64.64,0,0,0-.18-.28.93.93,0,0,0-.35-.19A1.91,1.91,0,0,0,52.44,74.35Z"/><path class="cls-2" d="M60.12,80q-.42-1.18-.93-2.36a23.39,23.39,0,0,0-1.12-2.23L57,80H55.44l1.66-6.93h1.19q.23.35.5.83t.54,1q.28.55.56,1.15t.53,1.17l1-4.17H63L61.29,80Z"/><path class="cls-2" d="M66.12,80.18A3.05,3.05,0,0,1,65,80a2.51,2.51,0,0,1-.88-.58,2.59,2.59,0,0,1-.58-.92,3.42,3.42,0,0,1-.21-1.22,4.63,4.63,0,0,1,.27-1.55,4.53,4.53,0,0,1,.77-1.39,4,4,0,0,1,1.24-1,3.49,3.49,0,0,1,1.65-.38,3,3,0,0,1,1.12.2,2.51,2.51,0,0,1,.88.58,2.6,2.6,0,0,1,.57.92A3.41,3.41,0,0,1,70,75.86a4.78,4.78,0,0,1-.26,1.55A4.43,4.43,0,0,1,69,78.8a3.92,3.92,0,0,1-1.23,1A3.54,3.54,0,0,1,66.12,80.18Zm1-5.89a1.62,1.62,0,0,0-.86.24,2.4,2.4,0,0,0-.69.64,3.11,3.11,0,0,0-.46.92,3.51,3.51,0,0,0-.17,1.07,2.13,2.13,0,0,0,.31,1.21,1.15,1.15,0,0,0,1,.46,1.61,1.61,0,0,0,.85-.24,2.42,2.42,0,0,0,.69-.64,3.16,3.16,0,0,0,.46-.92A3.48,3.48,0,0,0,68.45,76a2.13,2.13,0,0,0-.32-1.22A1.15,1.15,0,0,0,67.11,74.29Z"/><path class="cls-2" d="M79.62,75.81a4.71,4.71,0,0,1-.33,1.81A3.7,3.7,0,0,1,78.34,79a4.24,4.24,0,0,1-1.5.85,6.14,6.14,0,0,1-2,.3q-.42,0-1,0a8.61,8.61,0,0,1-1.06-.16l1.61-6.69a10.66,10.66,0,0,1,1.1-.16c.35,0,.67,0,.94,0a4.07,4.07,0,0,1,1.33.2,2.78,2.78,0,0,1,1,.57,2.44,2.44,0,0,1,.62.88A3,3,0,0,1,79.62,75.81Zm-5,3,.23,0h.31a3.27,3.27,0,0,0,1.18-.2,2.44,2.44,0,0,0,.89-.58,2.58,2.58,0,0,0,.57-.92,3.55,3.55,0,0,0,.2-1.22,2.09,2.09,0,0,0-.09-.64,1.18,1.18,0,0,0-.29-.49,1.34,1.34,0,0,0-.53-.32,2.46,2.46,0,0,0-.78-.11l-.61,0Z"/><path class="cls-2" d="M83.27,80.18a3.05,3.05,0,0,1-1.12-.2,2.51,2.51,0,0,1-.88-.58,2.59,2.59,0,0,1-.58-.92,3.42,3.42,0,0,1-.21-1.22,4.63,4.63,0,0,1,.27-1.55,4.53,4.53,0,0,1,.77-1.39,4,4,0,0,1,1.24-1,3.49,3.49,0,0,1,1.65-.38,3,3,0,0,1,1.12.2,2.51,2.51,0,0,1,.88.58,2.6,2.6,0,0,1,.57.92,3.41,3.41,0,0,1,.21,1.22,4.78,4.78,0,0,1-.26,1.55,4.43,4.43,0,0,1-.77,1.39,3.92,3.92,0,0,1-1.23,1A3.54,3.54,0,0,1,83.27,80.18Zm1-5.89a1.62,1.62,0,0,0-.86.24,2.4,2.4,0,0,0-.69.64,3.11,3.11,0,0,0-.46.92,3.51,3.51,0,0,0-.17,1.07,2.13,2.13,0,0,0,.31,1.21,1.15,1.15,0,0,0,1,.46,1.61,1.61,0,0,0,.85-.24A2.42,2.42,0,0,0,85,78a3.16,3.16,0,0,0,.46-.92A3.48,3.48,0,0,0,85.6,76a2.13,2.13,0,0,0-.32-1.22A1.15,1.15,0,0,0,84.26,74.29Z"/><path class="cls-2" d="M20.15,85.11h1.56L20,92H18.49Z"/><path class="cls-2" d="M26.29,92q-.42-1.18-.94-2.36a23.16,23.16,0,0,0-1.12-2.23L23.14,92H21.61l1.66-6.93h1.19q.23.35.5.83t.54,1q.28.55.56,1.15t.53,1.17l1-4.17h1.55L27.46,92Z"/><path class="cls-2" d="M31,92q-.16-.85-.31-1.76t-.27-1.81q-.13-.9-.23-1.76T30,85.11h1.67q0,.57.08,1.22t.1,1.32q.06.67.13,1.32t.14,1.22l.67-1.14q.35-.62.72-1.29t.72-1.35q.35-.68.66-1.31h1.66l-.83,1.55q-.45.83-1,1.72t-1.09,1.82q-.58.92-1.21,1.84Z"/><path class="cls-2" d="M35.91,92l1.66-6.93H42.1l-.32,1.28h-3l-.32,1.4h2.62L40.8,89H38.18l-.4,1.7H41L40.66,92Z"/><path class="cls-2" d="M43.79,90.88a3,3,0,0,0,.46,0,1.39,1.39,0,0,0,.41-.12.78.78,0,0,0,.29-.26.72.72,0,0,0,.12-.42.56.56,0,0,0-.11-.34,1.25,1.25,0,0,0-.28-.26,2.66,2.66,0,0,0-.38-.22L43.88,89a5.64,5.64,0,0,1-.51-.34,2,2,0,0,1-.41-.41,1.88,1.88,0,0,1-.27-.5,1.86,1.86,0,0,1-.1-.63,2.08,2.08,0,0,1,.17-.86,1.89,1.89,0,0,1,.52-.68,2.52,2.52,0,0,1,.87-.46,4,4,0,0,1,1.22-.17A3.48,3.48,0,0,1,46,85a5,5,0,0,1,.56.14,3.2,3.2,0,0,1,.47.18,3.3,3.3,0,0,1,.37.21l-.65,1.15a2.33,2.33,0,0,0-1.39-.45,2.38,2.38,0,0,0-.44,0,1.13,1.13,0,0,0-.37.13.75.75,0,0,0-.25.25.68.68,0,0,0-.09.37.69.69,0,0,0,.08.33.81.81,0,0,0,.19.23,1.44,1.44,0,0,0,.28.18l.34.17q.31.16.6.34a2.51,2.51,0,0,1,.51.42,1.84,1.84,0,0,1,.35.54,1.77,1.77,0,0,1,.13.71,2.18,2.18,0,0,1-.21,1,1.92,1.92,0,0,1-.59.7A2.58,2.58,0,0,1,45,92a4.65,4.65,0,0,1-1.17.14,4.15,4.15,0,0,1-.79-.07,5.56,5.56,0,0,1-.66-.17,3.41,3.41,0,0,1-.51-.21,3,3,0,0,1-.35-.2l.66-1.19.29.17.38.17a3.48,3.48,0,0,0,.46.13A2.21,2.21,0,0,0,43.79,90.88Z"/><path class="cls-2" d="M54.08,85.11l-.32,1.31h-2L50.38,92H48.82l1.35-5.62h-2l.32-1.31Z"/><path class="cls-2" d="M55,85.11H56.6L54.93,92H53.38Z"/><path class="cls-2" d="M59.91,85.11c0,.18.09.43.15.76s.13.69.2,1.09l.21,1.22.2,1.14.74-1.12L62.21,87,63,85.94q.35-.51.6-.83h1.38q-.07.69-.18,1.55t-.26,1.78q-.15.92-.3,1.85T63.86,92H62.34q.21-1,.45-2.21t.43-2.39l-.58.92-.64,1-.62,1-.52.8H59.72q0-.3-.12-.76t-.16-1q-.08-.51-.17-1c-.06-.35-.12-.67-.17-.95q-.39,1.21-.71,2.39L57.81,92H56.3q.23-.82.5-1.75t.57-1.85q.29-.93.58-1.79t.55-1.54Z"/><path class="cls-2" d="M65.28,92l1.66-6.93h4.53l-.32,1.28h-3l-.32,1.4h2.62L70.17,89H67.55l-.4,1.7h3.2L70,92Z"/><path class="cls-2" d="M75.9,92q-.42-1.18-.94-2.36a23.16,23.16,0,0,0-1.12-2.23L72.75,92H71.22l1.66-6.93h1.19q.23.35.5.83t.54,1q.28.55.56,1.15t.53,1.17l1-4.17h1.55L77.07,92Z"/><path class="cls-2" d="M85.28,85.11,85,86.42h-2L81.58,92H80l1.35-5.62h-2l.32-1.31Z"/><path class="cls-2" d="M87.74,92.18a3,3,0,0,1-1.12-.2,2.51,2.51,0,0,1-.88-.58,2.6,2.6,0,0,1-.57-.92A3.42,3.42,0,0,1,85,89.27a4.66,4.66,0,0,1,.27-1.55A4.53,4.53,0,0,1,86,86.33a4,4,0,0,1,1.23-1,3.5,3.5,0,0,1,1.65-.38,3,3,0,0,1,1.12.2,2.52,2.52,0,0,1,.88.58,2.59,2.59,0,0,1,.58.92,3.41,3.41,0,0,1,.21,1.22,4.78,4.78,0,0,1-.27,1.55,4.43,4.43,0,0,1-.77,1.39,3.92,3.92,0,0,1-1.24,1A3.53,3.53,0,0,1,87.74,92.18Zm1-5.89a1.61,1.61,0,0,0-.85.24,2.41,2.41,0,0,0-.69.64,3.16,3.16,0,0,0-.46.92,3.51,3.51,0,0,0-.17,1.07,2.13,2.13,0,0,0,.32,1.21,1.15,1.15,0,0,0,1,.46,1.62,1.62,0,0,0,.86-.24,2.42,2.42,0,0,0,.69-.64,3.11,3.11,0,0,0,.46-.92A3.48,3.48,0,0,0,90.07,88a2.13,2.13,0,0,0-.31-1.22A1.15,1.15,0,0,0,88.73,86.29Z"/></svg>