<svg id="Layer_1" data-name="Layer 1" xmlns="http://www.w3.org/2000/svg" viewBox="0 0 109.35 109.35"><defs><style>.cls-1{fill:#f06f23;}.cls-2{fill:#fff;}</style></defs><title>icone_sist_modular</title><circle class="cls-1" cx="54.68" cy="54.68" r="54.68"/><path class="cls-2" d="M36.16,78.88a3,3,0,0,0,.46,0,1.39,1.39,0,0,0,.41-.12.78.78,0,0,0,.29-.26.73.73,0,0,0,.12-.42.56.56,0,0,0-.11-.34,1.26,1.26,0,0,0-.28-.26,2.66,2.66,0,0,0-.38-.22L36.25,77a5.64,5.64,0,0,1-.51-.34,2,2,0,0,1-.41-.41,1.91,1.91,0,0,1-.27-.5,1.86,1.86,0,0,1-.1-.63,2.1,2.1,0,0,1,.17-.86,1.89,1.89,0,0,1,.52-.68,2.5,2.5,0,0,1,.86-.46,4,4,0,0,1,1.22-.17,3.49,3.49,0,0,1,.62.05,5,5,0,0,1,.56.14,3.16,3.16,0,0,1,.47.18,3.22,3.22,0,0,1,.37.21l-.65,1.15a2.33,2.33,0,0,0-1.39-.45,2.36,2.36,0,0,0-.44,0,1.12,1.12,0,0,0-.37.13.74.74,0,0,0-.25.25.68.68,0,0,0-.1.37.69.69,0,0,0,.08.33.82.82,0,0,0,.2.23,1.41,1.41,0,0,0,.28.18l.34.17q.31.16.6.34a2.51,2.51,0,0,1,.51.42,1.86,1.86,0,0,1,.35.54,1.79,1.79,0,0,1,.13.71,2.2,2.2,0,0,1-.21,1,1.93,1.93,0,0,1-.59.7,2.59,2.59,0,0,1-.91.42,4.64,4.64,0,0,1-1.17.14,4.15,4.15,0,0,1-.79-.07,5.66,5.66,0,0,1-.66-.17,3.49,3.49,0,0,1-.51-.21,2.92,2.92,0,0,1-.34-.2l.66-1.19.29.17.38.17a3.48,3.48,0,0,0,.46.13A2.2,2.2,0,0,0,36.16,78.88Z"/><path class="cls-2" d="M41.47,73.11H43L41.36,80H39.81Z"/><path class="cls-2" d="M44.87,78.88a3,3,0,0,0,.46,0,1.39,1.39,0,0,0,.41-.12.78.78,0,0,0,.29-.26.73.73,0,0,0,.12-.42.56.56,0,0,0-.11-.34,1.26,1.26,0,0,0-.28-.26,2.66,2.66,0,0,0-.38-.22L45,77a5.64,5.64,0,0,1-.51-.34,2,2,0,0,1-.41-.41,1.91,1.91,0,0,1-.27-.5,1.86,1.86,0,0,1-.1-.63,2.1,2.1,0,0,1,.17-.86,1.89,1.89,0,0,1,.52-.68,2.5,2.5,0,0,1,.86-.46,4,4,0,0,1,1.22-.17,3.49,3.49,0,0,1,.62.05,5,5,0,0,1,.56.14,3.16,3.16,0,0,1,.47.18,3.22,3.22,0,0,1,.37.21l-.65,1.15a2.33,2.33,0,0,0-1.39-.45,2.36,2.36,0,0,0-.44,0,1.12,1.12,0,0,0-.37.13.74.74,0,0,0-.25.25.68.68,0,0,0-.1.37.69.69,0,0,0,.08.33.82.82,0,0,0,.2.23,1.41,1.41,0,0,0,.28.18l.34.17q.31.16.6.34a2.51,2.51,0,0,1,.51.42,1.86,1.86,0,0,1,.35.54,1.79,1.79,0,0,1,.13.71,2.2,2.2,0,0,1-.21,1,1.93,1.93,0,0,1-.59.7A2.59,2.59,0,0,1,46,80a4.64,4.64,0,0,1-1.17.14,4.15,4.15,0,0,1-.79-.07,5.66,5.66,0,0,1-.66-.17,3.49,3.49,0,0,1-.51-.21,2.92,2.92,0,0,1-.34-.2l.66-1.19.29.17.38.17a3.48,3.48,0,0,0,.46.13A2.2,2.2,0,0,0,44.87,78.88Z"/><path class="cls-2" d="M55.16,73.11l-.32,1.31h-2L51.46,80H49.9l1.35-5.62h-2l.32-1.31Z"/><path class="cls-2" d="M54.46,80l1.66-6.93h4.53l-.32,1.28h-3L57,75.79h2.62L59.35,77H56.73l-.4,1.7h3.2L59.21,80Z"/><path class="cls-2" d="M63.81,73.11q.06.27.16.76c.06.33.13.69.2,1.09l.22,1.22.2,1.14.74-1.12L66.11,75l.74-1.08q.35-.51.6-.83h1.38q-.07.69-.18,1.55t-.26,1.78q-.15.92-.31,1.85T67.76,80H66.24q.21-1,.45-2.21t.43-2.39l-.58.92-.64,1-.62,1-.52.8H63.62q0-.3-.12-.76t-.15-1l-.18-1c-.06-.35-.12-.67-.17-.95q-.39,1.21-.71,2.39L61.71,80H60.2q.23-.82.5-1.75t.57-1.85q.29-.93.58-1.79t.55-1.54Z"/><path class="cls-2" d="M73.75,80q0-.39,0-.76c0-.25,0-.5-.06-.75h-2.6l-.42.75q-.22.38-.42.76H68.58L69.8,78q.56-1,1.09-1.79t1-1.6q.5-.75,1-1.47h1.39q.16.72.31,1.59t.27,1.79q.12.92.23,1.83L75.32,80Zm-.46-5.41L72.47,76q-.41.66-.79,1.35h1.87L73.45,76Q73.39,75.32,73.29,74.63Z"/><path class="cls-2" d="M33.77,85.11c0,.18.09.44.15.77s.13.69.2,1.09l.21,1.22.2,1.15.74-1.12L36.07,87l.74-1.09q.35-.5.6-.83h1.38q-.07.69-.18,1.55t-.26,1.78q-.15.92-.3,1.85T37.72,92H36.2q.21-1,.45-2.21t.43-2.4l-.58.92-.64,1-.62,1-.52.8H33.58q0-.3-.12-.76t-.16-1l-.17-1q-.09-.52-.17-.95-.39,1.21-.71,2.4L31.67,92H30.16q.23-.82.5-1.75t.57-1.86q.29-.92.58-1.79t.55-1.54Z"/><path class="cls-2" d="M42.4,92.18a3,3,0,0,1-1.12-.2,2.51,2.51,0,0,1-.88-.58,2.61,2.61,0,0,1-.57-.92,3.42,3.42,0,0,1-.21-1.22,4.67,4.67,0,0,1,.27-1.55,4.53,4.53,0,0,1,.78-1.38,4,4,0,0,1,1.23-1,3.48,3.48,0,0,1,1.65-.38,3.05,3.05,0,0,1,1.12.2,2.52,2.52,0,0,1,.88.58,2.59,2.59,0,0,1,.58.92,3.42,3.42,0,0,1,.21,1.22,4.78,4.78,0,0,1-.27,1.55,4.41,4.41,0,0,1-.77,1.39,3.91,3.91,0,0,1-1.24,1A3.53,3.53,0,0,1,42.4,92.18Zm1-5.89a1.61,1.61,0,0,0-.85.24,2.39,2.39,0,0,0-.69.64,3.15,3.15,0,0,0-.46.92,3.51,3.51,0,0,0-.17,1.07,2.13,2.13,0,0,0,.32,1.21,1.15,1.15,0,0,0,1,.46,1.62,1.62,0,0,0,.86-.24,2.4,2.4,0,0,0,.69-.64,3.11,3.11,0,0,0,.46-.92A3.49,3.49,0,0,0,44.73,88a2.13,2.13,0,0,0-.31-1.21A1.15,1.15,0,0,0,43.39,86.29Z"/><path class="cls-2" d="M53.5,87.81a4.72,4.72,0,0,1-.33,1.81A3.68,3.68,0,0,1,52.23,91a4.24,4.24,0,0,1-1.5.86,6.14,6.14,0,0,1-2,.3q-.42,0-1,0a8.8,8.8,0,0,1-1.06-.16l1.61-6.69a10.39,10.39,0,0,1,1.1-.15c.35,0,.67,0,.94,0a4.1,4.1,0,0,1,1.33.2,2.79,2.79,0,0,1,1,.57,2.45,2.45,0,0,1,.62.88A3,3,0,0,1,53.5,87.81Zm-5,3h.54a3.3,3.3,0,0,0,1.18-.2,2.44,2.44,0,0,0,.89-.58,2.58,2.58,0,0,0,.57-.92,3.55,3.55,0,0,0,.2-1.23,2.09,2.09,0,0,0-.09-.63,1.18,1.18,0,0,0-.29-.49,1.34,1.34,0,0,0-.53-.31,2.46,2.46,0,0,0-.78-.11c-.2,0-.4,0-.61,0Z"/><path class="cls-2" d="M59.82,89.52a3.64,3.64,0,0,1-1.11,2,3.1,3.1,0,0,1-2,.63A3.38,3.38,0,0,1,55.6,92a1.91,1.91,0,0,1-.72-.43,1.6,1.6,0,0,1-.41-.66,2.69,2.69,0,0,1-.12-.83A4.49,4.49,0,0,1,54.49,89l.93-3.88H57l-1,4.1a2.73,2.73,0,0,0-.1.73,1.31,1.31,0,0,0,0,.36.65.65,0,0,0,.16.28.75.75,0,0,0,.31.18,1.53,1.53,0,0,0,.48.07,1.11,1.11,0,0,0,.91-.37,2.66,2.66,0,0,0,.48-1.07l1-4.28h1.56Z"/><path class="cls-2" d="M65.66,90.72,65.34,92H60.72l1.66-6.93h1.56l-1.35,5.61Z"/><path class="cls-2" d="M71.13,92q0-.39,0-.76c0-.25,0-.5-.06-.75h-2.6l-.42.75q-.22.38-.42.76H66L67.18,90q.56-.95,1.09-1.79t1-1.59q.5-.76,1-1.48H71.7q.16.72.31,1.6t.27,1.79q.12.92.23,1.83L72.7,92Zm-.46-5.41L69.85,88q-.41.66-.79,1.35h1.87L70.83,88Q70.77,87.32,70.67,86.63Z"/><path class="cls-2" d="M77.23,85a3.86,3.86,0,0,1,1.17.16,2.51,2.51,0,0,1,.83.43,1.69,1.69,0,0,1,.49.63,1.87,1.87,0,0,1,.16.76,2.8,2.8,0,0,1-.08.65,1.73,1.73,0,0,1-.28.61,2.3,2.3,0,0,1-.55.54,3.18,3.18,0,0,1-.89.42,12.25,12.25,0,0,1,.58,1.26q.29.74.55,1.55H77.55l-.46-1.37a6.51,6.51,0,0,0-.52-1.17h-.78L75.17,92H73.62l1.63-6.83a10.39,10.39,0,0,1,1-.14Q76.81,85,77.23,85Zm-.05,1.32h-.35l-.3,0-.45,1.9h.53a3.14,3.14,0,0,0,.81-.09,1.59,1.59,0,0,0,.53-.24.86.86,0,0,0,.29-.35,1,1,0,0,0,.08-.39,1.06,1.06,0,0,0,0-.33.65.65,0,0,0-.18-.28.94.94,0,0,0-.35-.19A1.88,1.88,0,0,0,77.18,86.35Z"/><path class="cls-2" d="M55,66.79A14.17,14.17,0,1,1,69.12,52.62,14.18,14.18,0,0,1,55,66.79Zm0-25.33A11.17,11.17,0,1,0,66.12,52.62,11.18,11.18,0,0,0,55,41.45Z"/><path class="cls-2" d="M55,36.24A14.17,14.17,0,1,1,69.12,22.07,14.18,14.18,0,0,1,55,36.24ZM55,10.9A11.17,11.17,0,1,0,66.12,22.07,11.18,11.18,0,0,0,55,10.9Z"/><path class="cls-2" d="M33.07,46.46a9.12,9.12,0,1,1,9.12-9.12A9.13,9.13,0,0,1,33.07,46.46Zm0-15.23a6.12,6.12,0,1,0,6.12,6.12A6.12,6.12,0,0,0,33.07,31.23Z"/><path class="cls-2" d="M76.28,46.46a9.12,9.12,0,1,1,9.12-9.12A9.13,9.13,0,0,1,76.28,46.46Zm0-15.23a6.12,6.12,0,1,0,6.12,6.12A6.12,6.12,0,0,0,76.28,31.23Z"/></svg>