<svg id="Layer_1" data-name="Layer 1" xmlns="http://www.w3.org/2000/svg" viewBox="0 0 109.35 109.35"><defs><style>.cls-1{fill:#a80057;}.cls-2{fill:#fff;}</style></defs><title>icone_prot_uv</title><circle class="cls-1" cx="54.68" cy="54.68" r="54.68"/><path class="cls-2" d="M32.56,73a4.41,4.41,0,0,1,1.14.13,2.56,2.56,0,0,1,.85.39,1.76,1.76,0,0,1,.54.63,1.79,1.79,0,0,1,.19.83A2.57,2.57,0,0,1,35,76.28a2.3,2.3,0,0,1-.8.84,3.56,3.56,0,0,1-1.2.46,7.51,7.51,0,0,1-1.5.14H31.1L30.54,80H29l1.63-6.83a10.28,10.28,0,0,1,1-.14Q32.13,73,32.56,73Zm-.13,1.31h-.29l-.24,0-.48,2h.39a4.19,4.19,0,0,0,.77-.06,1.74,1.74,0,0,0,.59-.22,1.07,1.07,0,0,0,.38-.38,1.14,1.14,0,0,0,.13-.58.68.68,0,0,0-.32-.64A1.85,1.85,0,0,0,32.43,74.34Z"/><path class="cls-2" d="M39,73a3.85,3.85,0,0,1,1.17.16,2.5,2.5,0,0,1,.83.43,1.7,1.7,0,0,1,.49.63,1.89,1.89,0,0,1,.16.77,2.84,2.84,0,0,1-.07.65,1.75,1.75,0,0,1-.28.61,2.28,2.28,0,0,1-.55.54,3.19,3.19,0,0,1-.88.42,12.26,12.26,0,0,1,.57,1.26q.3.74.56,1.55H39.31q-.23-.69-.47-1.37a6.43,6.43,0,0,0-.52-1.16h-.78L36.93,80H35.38L37,73.21a10.09,10.09,0,0,1,1.05-.14Q38.57,73,39,73Zm0,1.32h-.35l-.3,0-.45,1.9h.53a3.14,3.14,0,0,0,.81-.09,1.58,1.58,0,0,0,.53-.24A.86.86,0,0,0,40,75.6a1,1,0,0,0,.08-.4,1,1,0,0,0,0-.32.64.64,0,0,0-.18-.28.93.93,0,0,0-.35-.19A1.91,1.91,0,0,0,38.94,74.35Z"/><path class="cls-2" d="M45.12,80.18A3,3,0,0,1,44,80a2.51,2.51,0,0,1-.88-.58,2.6,2.6,0,0,1-.57-.92,3.42,3.42,0,0,1-.21-1.22,4.66,4.66,0,0,1,.27-1.55,4.53,4.53,0,0,1,.78-1.39,4,4,0,0,1,1.23-1,3.5,3.5,0,0,1,1.65-.38,3,3,0,0,1,1.12.2,2.52,2.52,0,0,1,.88.58,2.59,2.59,0,0,1,.58.92,3.41,3.41,0,0,1,.21,1.22,4.78,4.78,0,0,1-.27,1.55A4.43,4.43,0,0,1,48,78.8a3.92,3.92,0,0,1-1.24,1A3.53,3.53,0,0,1,45.12,80.18Zm1-5.89a1.61,1.61,0,0,0-.85.24,2.41,2.41,0,0,0-.69.64,3.16,3.16,0,0,0-.46.92,3.51,3.51,0,0,0-.17,1.07,2.13,2.13,0,0,0,.32,1.21,1.15,1.15,0,0,0,1,.46,1.62,1.62,0,0,0,.86-.24,2.42,2.42,0,0,0,.69-.64,3.11,3.11,0,0,0,.46-.92A3.48,3.48,0,0,0,47.45,76a2.13,2.13,0,0,0-.31-1.22A1.15,1.15,0,0,0,46.11,74.29Z"/><path class="cls-2" d="M55.57,73.11l-.32,1.31h-2L51.87,80H50.31l1.35-5.62h-2L50,73.11Z"/><path class="cls-2" d="M54.87,80l1.66-6.93h4.53l-.32,1.28h-3l-.32,1.4h2.62L59.76,77H57.14l-.4,1.7h3.2L59.62,80Z"/><path class="cls-2" d="M66.2,79.74a4.3,4.3,0,0,1-.89.32,5.66,5.66,0,0,1-1.2.13l-.11.16-.09.14a.78.78,0,0,1,.33.29.72.72,0,0,1,.11.38,1,1,0,0,1-.12.5,1,1,0,0,1-.31.34,1.31,1.31,0,0,1-.45.2,2.18,2.18,0,0,1-.51.06,2.42,2.42,0,0,1-.54-.06A1.94,1.94,0,0,1,62,82l.36-.82a1.6,1.6,0,0,0,.29.1,1.3,1.3,0,0,0,.32,0c.27,0,.4-.08.4-.24a.25.25,0,0,0-.07-.18.8.8,0,0,0-.23-.14l-.2-.09.41-.61a2.4,2.4,0,0,1-1.43-1,3.18,3.18,0,0,1-.52-1.87,4.58,4.58,0,0,1,.27-1.55,4.14,4.14,0,0,1,2.12-2.36,4,4,0,0,1,1.79-.38,4.1,4.1,0,0,1,.95.11,3.92,3.92,0,0,1,1,.39l-.56,1.21a3.37,3.37,0,0,0-.75-.3,3,3,0,0,0-.71-.08,2.24,2.24,0,0,0-1,.23,2.4,2.4,0,0,0-.78.63,2.78,2.78,0,0,0-.5.91,3.53,3.53,0,0,0-.17,1.1,1.8,1.8,0,0,0,.38,1.28,1.46,1.46,0,0,0,1.11.4,3.7,3.7,0,0,0,.88-.1,4.26,4.26,0,0,0,.75-.26Z"/><path class="cls-2" d="M71.86,80q0-.39,0-.76c0-.25,0-.5-.06-.75h-2.6l-.42.75q-.22.38-.42.76H66.69L67.91,78q.56-1,1.09-1.79t1-1.6q.5-.75,1-1.47h1.39q.16.72.31,1.59T73,76.49q.12.92.23,1.83L73.43,80Zm-.46-5.41L70.58,76q-.41.66-.79,1.35h1.87L71.56,76Q71.5,75.32,71.4,74.63Zm1.1-2.29a1,1,0,0,1-.34-.05l-.28-.12L71.63,72a.58.58,0,0,0-.24-.05.44.44,0,0,0-.25.08,1.34,1.34,0,0,0-.29.33L70.18,72a2.08,2.08,0,0,1,.55-.8,1.18,1.18,0,0,1,.78-.27,1,1,0,0,1,.34.06l.28.12.25.12a.57.57,0,0,0,.24.06.44.44,0,0,0,.25-.08,1.34,1.34,0,0,0,.29-.33l.67.41a2.09,2.09,0,0,1-.55.8A1.18,1.18,0,0,1,72.5,72.34Z"/><path class="cls-2" d="M77.24,80.18a3.06,3.06,0,0,1-1.12-.2,2.52,2.52,0,0,1-.88-.58,2.6,2.6,0,0,1-.58-.92,3.42,3.42,0,0,1-.2-1.22,4.66,4.66,0,0,1,.27-1.55,4.51,4.51,0,0,1,.78-1.39,4,4,0,0,1,1.23-1,3.49,3.49,0,0,1,1.65-.38,3,3,0,0,1,1.12.2,2.52,2.52,0,0,1,.88.58,2.6,2.6,0,0,1,.58.92,3.43,3.43,0,0,1,.21,1.22,4.78,4.78,0,0,1-.27,1.55,4.45,4.45,0,0,1-.77,1.39,3.93,3.93,0,0,1-1.24,1A3.53,3.53,0,0,1,77.24,80.18Zm1-5.89a1.62,1.62,0,0,0-.86.24,2.42,2.42,0,0,0-.69.64,3.14,3.14,0,0,0-.46.92,3.51,3.51,0,0,0-.17,1.07,2.13,2.13,0,0,0,.31,1.21,1.15,1.15,0,0,0,1,.46,1.62,1.62,0,0,0,.86-.24,2.42,2.42,0,0,0,.69-.64,3.13,3.13,0,0,0,.46-.92A3.48,3.48,0,0,0,79.57,76a2.13,2.13,0,0,0-.31-1.22A1.15,1.15,0,0,0,78.23,74.29Z"/><path class="cls-2" d="M54.35,89.52a3.64,3.64,0,0,1-1.1,2,3.1,3.1,0,0,1-2,.63A3.37,3.37,0,0,1,50.12,92a1.91,1.91,0,0,1-.73-.43,1.6,1.6,0,0,1-.4-.66,2.66,2.66,0,0,1-.12-.83A4.53,4.53,0,0,1,49,89l.93-3.88h1.56l-1,4.1a2.73,2.73,0,0,0-.1.73,1.32,1.32,0,0,0,0,.36.65.65,0,0,0,.16.28.74.74,0,0,0,.31.18,1.53,1.53,0,0,0,.49.07,1.11,1.11,0,0,0,.91-.37,2.67,2.67,0,0,0,.48-1.07l1-4.28H55.4Z"/><path class="cls-2" d="M57.18,92q-.16-.85-.3-1.76t-.28-1.81q-.13-.9-.23-1.75t-.17-1.61h1.67q0,.57.07,1.23T58,87.65q.06.67.13,1.32t.13,1.23L59,89.06q.35-.62.72-1.29t.72-1.35q.35-.68.66-1.31h1.66l-.83,1.55q-.45.83-1,1.72t-1.09,1.82q-.58.92-1.21,1.84Z"/><circle class="cls-2" cx="53.37" cy="23.74" r="6.59"/><path class="cls-2" d="M53.37,16.3a1.55,1.55,0,0,1-1.55-1.55V10a1.55,1.55,0,1,1,3.11,0v4.75A1.55,1.55,0,0,1,53.37,16.3Z"/><path class="cls-2" d="M59.73,18.94a1.55,1.55,0,0,1-1.1-2.65L62,12.92a1.55,1.55,0,1,1,2.2,2.2l-3.36,3.36A1.55,1.55,0,0,1,59.73,18.94Z"/><path class="cls-2" d="M67.12,25.29H62.36a1.55,1.55,0,1,1,0-3.11h4.75a1.55,1.55,0,0,1,0,3.11Z"/><path class="cls-2" d="M63.09,35a1.55,1.55,0,0,1-1.1-.45l-3.36-3.36a1.55,1.55,0,1,1,2.2-2.2l3.36,3.36A1.55,1.55,0,0,1,63.09,35Z"/><path class="cls-2" d="M53.37,39a1.55,1.55,0,0,1-1.55-1.55V32.73a1.55,1.55,0,0,1,3.11,0v4.75A1.55,1.55,0,0,1,53.37,39Z"/><path class="cls-2" d="M43.66,35a1.55,1.55,0,0,1-1.1-2.65L45.92,29a1.55,1.55,0,0,1,2.2,2.2l-3.36,3.36A1.55,1.55,0,0,1,43.66,35Z"/><path class="cls-2" d="M44.39,25.29H39.63a1.55,1.55,0,1,1,0-3.11h4.75a1.55,1.55,0,1,1,0,3.11Z"/><path class="cls-2" d="M47,18.94a1.55,1.55,0,0,1-1.1-.45l-3.36-3.36a1.55,1.55,0,0,1,2.2-2.2l3.36,3.36A1.55,1.55,0,0,1,47,18.94Z"/><path class="cls-2" d="M54.06,57.08a1.55,1.55,0,0,1-1.1-.45L33.41,37.08a1.55,1.55,0,1,1,2.2-2.2L54.06,53.34,59.3,48.1a1.55,1.55,0,0,1,2.2,2.2l-6.34,6.34A1.55,1.55,0,0,1,54.06,57.08Z"/><path class="cls-2" d="M63.68,52l1.67-6.23a1.27,1.27,0,0,0-1.55-1.55l-6.23,1.67A1.27,1.27,0,0,0,57,48l4.56,4.56A1.27,1.27,0,0,0,63.68,52Z"/><path class="cls-2" d="M78.38,66.18a1.55,1.55,0,0,1-.66-.15,56,56,0,0,0-23.8-5.39h-.07A56.09,56.09,0,0,0,31.6,65.28a1.55,1.55,0,1,1-1.24-2.85,59.23,59.23,0,0,1,23.48-4.9h.08A59.15,59.15,0,0,1,79,63.22a1.55,1.55,0,0,1-.67,3Z"/></svg>